SplineFontDB: 3.0
FontName: SPSinsamut-Bold
FullName: SP Sinsamut Bold
FamilyName: SP Sinsamut
Weight: Bold
Copyright: Copyright (c) 2006 by Department of Intellectual Property (DIP), Ministry of Commerce and Software Industry Promotion Agency (Public Organization) (SIPA). All rights reserved.
Version: 2.1
ItalicAngle: 0
UnderlinePosition: -35
UnderlineWidth: 30
Ascent: 800
Descent: 200
LayerCount: 2
Layer: 0 0 "Back" 
Layer: 1 0 "Fore" 
NeedsXUIDChange: 1
XUID: [1021 375 425136265 5892016]
FSType: 0
OS2Version: 3
OS2_WeightWidthSlopeOnly: 0
OS2_UseTypoMetrics: 1
CreationTime: 1157457032
ModificationTime: 1211189998
PfmFamily: 17
TTFWeight: 700
TTFWidth: 5
LineGap: 60
VLineGap: 0
Panose: 2 0 5 6 0 0 0 2 0 4
OS2TypoAscent: 0
OS2TypoAOffset: 1
OS2TypoDescent: 0
OS2TypoDOffset: 1
OS2TypoLinegap: 0
OS2WinAscent: 18
OS2WinAOffset: 1
OS2WinDescent: 4
OS2WinDOffset: 1
HheadAscent: -111
HheadAOffset: 1
HheadDescent: 316
HheadDOffset: 1
OS2SubXSize: 700
OS2SubYSize: 650
OS2SubXOff: 0
OS2SubYOff: 140
OS2SupXSize: 700
OS2SupYSize: 650
OS2SupXOff: 0
OS2SupYOff: 477
OS2StrikeYSize: 30
OS2StrikeYPos: 250
OS2FamilyClass: 773
OS2Vendor: 'IPTH'
Lookup: 4 0 0 "'frac' Diagonal Fractions in Latin lookup 0"  {"'frac' Diagonal Fractions in Latin lookup 0 subtable"  } ['frac' ('latn' <'dflt' > ) ]
Lookup: 6 0 0 "'liga' Standard Ligatures in Latin lookup 1"  {"'liga' Standard Ligatures in Latin lookup 1 subtable"  } ['liga' ('latn' <'dflt' > ) ]
Lookup: 6 0 0 "'liga' Standard Ligatures in Latin lookup 2"  {"'liga' Standard Ligatures in Latin lookup 2 subtable"  } ['liga' ('latn' <'dflt' > ) ]
Lookup: 6 0 0 "'liga' Standard Ligatures in Latin lookup 3"  {"'liga' Standard Ligatures in Latin lookup 3 subtable"  } ['liga' ('latn' <'dflt' > ) ]
Lookup: 6 0 0 "'liga' Standard Ligatures in Latin lookup 4"  {"'liga' Standard Ligatures in Latin lookup 4 subtable"  } ['liga' ('latn' <'dflt' > ) ]

StartChar: .notdef
Encoding: 65536 -1 0
Width: 736
VWidth: 1473
Flags: W
HStem: 0 52<143 592> 972 52<143 592>
VStem: 93 50<52 972> 592 50<52 972>
LayerCount: 2
Fore
SplineSet
592 52 m 1
 592 972 l 1
 143 972 l 1
 143 52 l 1
 592 52 l 1
642 0 m 1
 93 0 l 1
 93 1024 l 1
 642 1024 l 1
 642 0 l 1
EndSplineSet
EndChar

StartChar: numbersign
Encoding: 35 35 4
Width: 698
VWidth: 1473
Flags: W
HStem: -9 21G<180.5 197.5 393 407.5> 211 75<86.46 183 271 398 482 553.378> 448 76<142.303 221 309 432 519 590.222> 700 20G<283.5 311.5 492.5 520>
LayerCount: 2
Fore
SplineSet
569 524 m 2
 587 524 614 517 614 490 c 0
 614 478 608 448 560 448 c 2
 507 448 l 1
 482 286 l 1
 535 286 l 2
 553 286 581 279 581 253 c 0
 581 243 576 234 568 224 c 0
 561 215 548 211 527 211 c 2
 474 211 l 1
 446 38 l 2
 440 -6 411 -9 404 -9 c 0
 382 -9 370 9 370 30 c 0
 370 34 370 39 371 43 c 2
 398 211 l 1
 259 211 l 1
 231 38 l 2
 226 -0 206 -9 189 -9 c 256
 172 -9 155 -2 155 27 c 0
 155 32 155 37 156 43 c 2
 183 211 l 1
 125 211 l 2
 91 211 80 223 80 241 c 0
 80 254 86 286 134 286 c 2
 194 286 l 1
 221 448 l 1
 165 448 l 2
 145 448 118 455 118 481 c 0
 118 487 121 524 172 524 c 2
 233 524 l 1
 258 675 l 2
 260 688 265 720 302 720 c 0
 321 720 334 711 334 683 c 0
 334 679 334 674 333 670 c 2
 309 524 l 1
 443 524 l 1
 467 675 l 2
 469 688 474 720 511 720 c 0
 529 720 543 713 543 683 c 0
 543 679 543 675 542 670 c 2
 519 524 l 1
 569 524 l 2
298 448 m 1
 271 286 l 1
 407 286 l 1
 432 448 l 1
 298 448 l 1
EndSplineSet
EndChar

StartChar: dollar
Encoding: 36 36 5
Width: 648
VWidth: 1473
Flags: W
HStem: -4 113<205.458 277 359 441.3> 506 211<359 557> 777 20G<306 330.5>
VStem: 37 106<453.115 559.163> 277 82<-79.209 -6 109 299 414 605 717 792.209> 501 112<152.227 264.416>
LayerCount: 2
Fore
SplineSet
359 411 m 1
 570 399 613 292 613 212 c 0
 613 125 562 14 359 -6 c 1
 359 -43 l 2
 359 -64 343 -84 318 -84 c 256
 294 -84 277 -64 277 -43 c 2
 277 -4 l 1
 110 13 36 113 36 150 c 0
 36 184 67 205 94 205 c 0
 106 205 128 202 141 178 c 0
 163 141 222 117 277 109 c 1
 277 303 l 1
 174 314 37 367 37 501 c 0
 37 631 140 706 277 717 c 1
 277 756 l 2
 277 777 294 797 318 797 c 256
 343 797 359 777 359 756 c 2
 359 717 l 1
 528 707 612 606 612 562 c 0
 612 529 585 506 557 506 c 0
 547 506 523 509 508 535 c 0
 485 575 422 600 359 605 c 1
 359 411 l 1
277 605 m 1
 219 601 143 577 143 502 c 0
 143 442 202 423 277 414 c 1
 277 605 l 1
359 106 m 1
 485 124 501 170 501 212 c 0
 501 287 424 292 359 299 c 1
 359 106 l 1
EndSplineSet
EndChar

StartChar: percent
Encoding: 37 37 6
Width: 696
VWidth: 1473
Flags: W
HStem: 3 75<449.389 550.532> 224 75<451.203 551.168> 446 76<134.095 237.054> 667 75<135.198 238.104>
VStem: 40 73<543.72 645.497> 259 78<543.242 645.896> 355 74<99.0264 202.402> 573 78<99.3569 201.948>
LayerCount: 2
Fore
SplineSet
189 742 m 256
 274 742 337 674 337 595 c 256
 337 512 270 446 189 446 c 256
 114 446 40 505 40 595 c 256
 40 675 103 742 189 742 c 256
110 -32 m 0
 93 -32 77 -18 77 1 c 0
 77 6 79 11 82 16 c 2
 530 742 l 2
 537 752 546 758 556 758 c 0
 571 758 583 748 586 734 c 1
 589 726 588 718 583 710 c 2
 136 -16 l 2
 129 -26 120 -32 110 -32 c 0
502 299 m 256
 578 299 651 240 651 150 c 256
 651 61 576 3 502 3 c 0
 416 3 355 69 355 150 c 0
 355 234 423 299 502 299 c 256
187 522 m 0
 230 522 259 557 259 595 c 0
 259 638 225 667 187 667 c 0
 148 667 113 638 113 595 c 0
 113 551 148 522 187 522 c 0
501 78 m 256
 542 78 573 113 573 150 c 0
 573 193 540 224 501 224 c 0
 458 224 429 189 429 150 c 0
 429 112 459 78 501 78 c 256
EndSplineSet
EndChar

StartChar: ampersand
Encoding: 38 38 7
Width: 799
VWidth: 1473
Flags: W
HStem: -6 108<240.808 409.501> 656 89<291.802 425.695>
VStem: 63 120<157.065 302.843> 144 121<526.437 629.533> 449 110<548.265 631.998>
LayerCount: 2
Fore
SplineSet
361 745 m 0xd8
 429 744 559 712 559 582 c 0
 559 548 548 458 395 410 c 1
 545 271 l 1
 589 363 567 412 616 426 c 0
 646 435 686 411 686 366 c 0
 686 343 661 243 631 190 c 1
 719 100 l 2
 729 90 736 84 740 81 c 1
 746 72 748 63 748 53 c 0
 748 19 716 -1 687 -1 c 0
 657 -1 642 20 636 24 c 1
 566 94 l 1
 516 58 l 2
 451 10 373 -6 312 -6 c 0
 167 -6 63 101 63 223 c 0xe8
 63 334 144 409 209 442 c 1
 147 511 144 546 144 572 c 0
 144 641 199 745 361 745 c 0xd8
449 589 m 0
 449 613 426 656 361 656 c 0
 294 656 265 617 265 583 c 0xd8
 265 542 301 502 342 479 c 1
 346 475 393 490 433 540 c 0
 445 555 449 569 449 589 c 0
183 228 m 0xe8
 183 135 266 102 312 102 c 0
 416 102 475 169 485 184 c 1
 283 367 l 1
 213 336 183 283 183 228 c 0xe8
EndSplineSet
EndChar

StartChar: quotesingle
Encoding: 39 39 8
Width: 263
VWidth: 1473
Flags: W
HStem: 436 283<88.2 152.234>
VStem: 77 109<445.783 677.454 501 653 501 501>
LayerCount: 2
Fore
SplineSet
133 719 m 0
 175.4 719 186 676.75 186 653 c 2
 186 501 l 2
 186 442.603 148.665 436 133 436 c 0
 88.2 436 77 470.45 77 501 c 2
 77 653 l 2
 77 685 88.2 719 133 719 c 0
EndSplineSet
EndChar

StartChar: parenleft
Encoding: 40 40 9
Width: 441
VWidth: 1473
Flags: W
VStem: 149 110<35.5727 541.774>
LayerCount: 2
Fore
SplineSet
259 289 m 256
 259 34 320 -122 320 -125 c 1
 321 -127 323 -137 323 -143 c 0
 323 -181 280 -193 268 -193 c 0
 248 -193 217 -162 214 -146 c 2
 208 -140 149 34 149 289 c 256
 149 502 196 700 220 739 c 0
 232 758 248 771 266 771 c 0
 309 771 329 738 320 704 c 2
 310 674 l 2
 291 615 259 465 259 289 c 256
EndSplineSet
EndChar

StartChar: parenright
Encoding: 41 41 10
Width: 441
VWidth: 1473
Flags: W
VStem: 121 172 184 109<31.9317 547.712>
LayerCount: 2
Fore
SplineSet
121 720 m 0x80
 121 751 144 771 176 771 c 0
 223 771 240 708 262 604 c 0
 278 527 293 415 293 289 c 256
 293 44 237 -132 230 -146 c 0
 221 -165 196 -193 174 -193 c 0
 164 -193 120 -183 120 -144 c 0
 120 -138 122 -128 124 -125 c 1
 134 -96 l 2
 152 -39 184 112 184 289 c 256x40
 184 450 156 605 134 674 c 0
 127 693 124 703 124 704 c 2
 122 708 121 713 121 720 c 0x80
EndSplineSet
EndChar

StartChar: asterisk
Encoding: 42 42 11
Width: 674
VWidth: 1473
Flags: W
HStem: 326 409<320.973 359.471>
VStem: 298 84<331.284 401.622 644.842 730.781>
LayerCount: 2
Fore
SplineSet
395 530 m 1
 447 496 517 481 517 436 c 0
 517 415 494 396 473 396 c 0
 466 396 459 397 451 401 c 1
 425 420 397 443 373 466 c 1
 379 414 l 2
 381 398 382 381 382 365 c 0
 382 344 363 326 340 326 c 256
 318 326 298 344 298 365 c 0
 298 382 298 394 300 402 c 1
 306 466 l 1
 268 433 l 2
 255 422 242 412 228 401 c 0
 212 388 183 396 172 412 c 0
 167 421 164 429 164 438 c 0
 164 455 175 467 180 470 c 2
 230 500 l 2
 246 509 263 519 284 530 c 1
 263 541 246 552 230 561 c 2
 180 591 l 2
 170 599 164 611 164 624 c 0
 164 658 208 677 228 660 c 0
 260 635 274 620 306 595 c 1
 299 655 298 675 298 695 c 0
 298 727 323 735 340 735 c 0
 358 735 382 727 382 695 c 0
 382 678 381 662 379 644 c 2
 373 594 l 1
 386 607 398 618 411 628 c 2
 451 660 l 1
 459 664 467 666 474 666 c 0
 497 666 516 643 516 625 c 0
 516 580 445 565 395 530 c 1
EndSplineSet
EndChar

StartChar: plus
Encoding: 43 43 12
Width: 720
VWidth: 1473
Flags: W
HStem: 200 109<95.1274 302 412 620.498>
VStem: 302 110<23.0168 200 309 490.24>
LayerCount: 2
Fore
SplineSet
566 309 m 2
 595.692 309 632 298.4 632 256 c 0
 632 241.205 625.647 200 566 200 c 2
 412 200 l 1
 412 78 l 2
 412 19.3781 376.094 12 358 12 c 0
 313.2 12 302 48.8 302 78 c 2
 302 200 l 1
 150 200 l 2
 120.8 200 84 211.2 84 256 c 0
 84 298.4 120.308 309 150 309 c 2
 302 309 l 1
 302 436 l 2
 302 464.8 313.2 501 358 501 c 0
 401.2 501 412 462 412 436 c 2
 412 309 l 1
 566 309 l 2
EndSplineSet
EndChar

StartChar: comma
Encoding: 44 44 13
Width: 346
VWidth: 1473
Flags: W
HStem: -152 319<120.434 158 107 168 168 168>
VStem: 67 199 78 188<19.3163 124.91>
LayerCount: 2
Fore
SplineSet
165 -10 m 0xc0
 112 -10 78 31 78 77 c 0
 78 125.305 120.434 167 168 167 c 0
 207 167 266 139 266 45 c 0xa0
 266 -69 158 -152 107 -152 c 0
 85 -152 67 -137 67 -120 c 0
 67 -82 143 -98 180 -9 c 1
 174 -9 171 -10 165 -10 c 0xc0
EndSplineSet
EndChar

StartChar: hyphen
Encoding: 45 45 14
Width: 604
VWidth: 1473
Flags: W
HStem: 200 109<92.5307 508.788>
VStem: 82 438<236.304 297.639>
LayerCount: 2
Fore
SplineSet
455 309 m 2
 483.443 309 520 298.4 520 256 c 0
 520 240.862 514.044 200 455 200 c 2
 147 200 l 2
 118.2 200 82 211.2 82 256 c 0
 82 298.4 119.944 309 147 309 c 2
 455 309 l 2
EndSplineSet
EndChar

StartChar: period
Encoding: 46 46 15
Width: 335
VWidth: 1473
Flags: W
HStem: -15 180<109.461 226.539>
VStem: 78 180<16.4606 133.539>
LayerCount: 2
Fore
SplineSet
168 -15 m 256
 115.186 -15 78 25.5866 78 75 c 256
 78 127.814 118.587 165 168 165 c 256
 220.814 165 258 124.413 258 75 c 256
 258 22.1856 217.413 -15 168 -15 c 256
EndSplineSet
EndChar

StartChar: slash
Encoding: 47 47 16
Width: 550
VWidth: 1473
Flags: W
HStem: 702 20G<420.5 446>
VStem: 57 429
LayerCount: 2
Fore
SplineSet
433 722 m 0
 459 722 486 701 486 669 c 0
 486 662 484 655 482 648 c 1
 156 -68 l 2
 147 -93 123 -99 110 -99 c 0
 78 -99 57 -73 57 -44 c 0
 57 -28 54 -40 113 91 c 2
 386 691 l 2
 393 708 408 722 433 722 c 0
EndSplineSet
EndChar

StartChar: zero
Encoding: 48 48 17
Width: 708
VWidth: 1473
Flags: W
HStem: -10 108<264.671 444.699> 622 108<265.57 445.579>
VStem: 59 106<215.172 500.385> 545 106<220.492 505.85>
LayerCount: 2
Back
SplineSet
355 725 m 0
 564 725 651 549 651 355 c 0
 651 53 473 -15 355 -15 c 0
 143 -15 59 148 59 355 c 0
 59 661 237 725 355 725 c 0
355 617 m 0
 203 617 165 481 165 355 c 0
 165 166 241 93 355 93 c 256
 431 93 545 128 545 355 c 0
 545 530 482 617 355 617 c 0
EndSplineSet
Fore
SplineSet
355 730 m 0
 564 730 651 554 651 360 c 0
 651 58 473 -10 355 -10 c 0
 143 -10 59 153 59 360 c 0
 59 666 237 730 355 730 c 0
355 622 m 0
 203 622 165 486 165 360 c 0
 165 171 241 98 355 98 c 256
 431 98 545 133 545 360 c 0
 545 535 482 622 355 622 c 0
EndSplineSet
EndChar

StartChar: one
Encoding: 49 49 18
Width: 520
VWidth: 1473
Flags: W
HStem: -4 21G<302.5 331.5>
VStem: 78 292<597.143 623.355> 264 106<6.38199 597>
LayerCount: 2
Fore
SplineSet
322 729 m 0xc0
 348 729 370 704 370 673 c 2
 370 50 l 2
 370 19 346 -4 317 -4 c 256
 288 -4 264 19 264 50 c 2
 264 597 l 1xa0
 150 554 l 2
 144 552 138 551 132 551 c 0
 103 551 78 571 78 603 c 0
 78 618 84 645 112 654 c 0
 159 671 196 684 221 694 c 2
 301 725 l 2
 309 727 315 729 322 729 c 0xc0
EndSplineSet
EndChar

StartChar: two
Encoding: 50 50 19
Width: 679
VWidth: 1473
Flags: W
HStem: 0 106<253 608.979> 628 101<261.206 434.645>
VStem: 498 111<429.358 565.37>
LayerCount: 2
Fore
SplineSet
566 106 m 2
 597 106 619 82 619 53 c 256
 619 22 595 0 566 0 c 2
 118 0 l 2
 72 0 57 31 57 52 c 0
 57 71 70 95 77 102 c 2
 446 396 l 2
 473 418 498 450 498 499 c 0
 498 557 448 628 352 628 c 256
 203 628 184 515 175 474 c 0
 172 451 154 424 122 424 c 0
 94 424 69 449 69 479 c 0
 69 544 118 729 352 729 c 0
 511 729 609 611 609 496 c 0
 609 410 565 355 517 317 c 2
 253 106 l 1
 566 106 l 2
EndSplineSet
EndChar

StartChar: three
Encoding: 51 51 20
Width: 658
VWidth: 1473
Flags: W
HStem: -10 93<231.482 409.138> 320 106<254.727 435.549> 629 101<219.093 407.82>
VStem: 49 107<150.051 265.538 493.75 573.423> 461 106<467.487 580.536> 485 107<148.886 291.537>
LayerCount: 2
Back
SplineSet
492 374 m 1xf8
 519 367 592 339 592 206 c 0
 592 55 447 -13 317 -13 c 0
 174 -13 49 62 49 222 c 0
 49 254 74 275 103 275 c 256
 132 275 156 254 156 222 c 0
 156 108 266 80 315 80 c 0
 392 80 485 124 485 217 c 256xf4
 485 302 433 320 399 320 c 2
 298 320 l 2
 266 320 245 344 245 373 c 256
 245 402 266 427 298 427 c 2
 395 427 l 2
 428 427 461 470 461 518 c 0
 461 609 374 632 318 632 c 0
 193 632 161 563 161 533 c 0
 161 502 137 480 108 480 c 256
 76 480 55 504 55 533 c 0
 55 621 142 734 318 734 c 0
 414.138 734 567 691.8 567 523 c 0
 567 500 565 416 492 374 c 1xf8
EndSplineSet
Fore
SplineSet
492 374 m 1xf8
 519 367 592 339 592 207 c 0
 592 58 447 -10 317 -10 c 0
 174 -10 49 65 49 223 c 0
 49 255 74 276 103 276 c 256
 132 276 156 255 156 223 c 0
 156 110 266 83 315 83 c 0
 392 83 485 126 485 218 c 256xf4
 485 303 433 320 399 320 c 2
 298 320 l 2
 266 320 245 344 245 373 c 256
 245 402 266 426 298 426 c 2
 395 426 l 2
 428 426 461 469 461 517 c 0
 461 607 374 629 318 629 c 0
 193 629 161 561 161 531 c 0
 161 501 137 479 108 479 c 256
 76 479 55 503 55 531 c 0
 55 619 142 730 318 730 c 0
 414 730 567 689 567 521 c 0
 567 499 565 415 492 374 c 1xf8
EndSplineSet
EndChar

StartChar: four
Encoding: 52 52 21
Width: 720
VWidth: 1473
Flags: W
HStem: -6 21G<503 533.5> 127 106<194 466 572 655.979>
VStem: 466 106<4.02097 127 233 554>
LayerCount: 2
Fore
SplineSet
613 233 m 2
 644 233 666 209 666 180 c 256
 666 149 642 127 613 127 c 2
 572 127 l 1
 572 47 l 2
 572 16 548 -6 519 -6 c 256
 487 -6 466 18 466 47 c 2
 466 127 l 1
 90 127 l 2
 55 127 38 155 38 180 c 0
 38 201 48 211 50 214 c 2
 467 704 l 2
 485 726 504 727 514 727 c 0
 546 727 572 700 572 672 c 2
 572 233 l 1
 613 233 l 2
466 554 m 1
 194 233 l 1
 466 233 l 1
 466 554 l 1
EndSplineSet
EndChar

StartChar: five
Encoding: 53 53 22
Width: 692
VWidth: 1473
Flags: W
HStem: -10 103<240.481 437.139> 411 97<239.922 437.976> 612 104<233 595.273>
VStem: 522 108<178.229 329.48>
LayerCount: 2
Back
SplineSet
630 249 m 0
 630 75 505 -21 346 -21 c 0
 230 -21 96 37 65 190 c 0
 64 194 64 198 64 202 c 0
 64 232 89 254 118 254 c 0
 144 254 165 234 169 211 c 0
 189 124 242 84 344 84 c 0
 497.206 84 522 208.267 522 249 c 0
 522 332 458 408 346 408 c 0
 259 408 203 369 186 346 c 0
 183 343 168 326 142 326 c 0
 119 326 89 342 89 371 c 0
 89 374 90 377 90 380 c 2
 140 719 l 1
 552 719 l 2
 584 719 605 695 605 666 c 256
 605 637 584 613 552 613 c 2
 233 613 l 1
 212 480 l 1
 245 493 297 507 354 507 c 0
 524 507 630 404 630 249 c 0
EndSplineSet
Fore
SplineSet
630 255 m 0
 630 84 505 -10 346 -10 c 0
 230 -10 96 47 65 197 c 0
 64 201 64 205 64 209 c 0
 64 238 89 260 118 260 c 0
 144 260 165 240 169 218 c 0
 189 132 242 93 344 93 c 0
 497 93 522 215 522 255 c 0
 522 336 458 411 346 411 c 0
 259 411 203 373 186 350 c 0
 183 347 168 330 142 330 c 0
 119 330 89 346 89 375 c 0
 89 378 90 380 90 383 c 2
 140 716 l 1
 552 716 l 2
 584 716 605 692 605 664 c 256
 605 636 584 612 552 612 c 2
 233 612 l 1
 212 482 l 1
 245 494 297 508 354 508 c 0
 524 508 630 407 630 255 c 0
EndSplineSet
EndChar

StartChar: six
Encoding: 54 54 23
Width: 696
VWidth: 1473
Flags: W
HStem: -10 102<273.11 446.503> 399 98<273.206 446.406> 625 105<277.098 467.436>
VStem: 59 128<187.959 412.479> 532 106<175.518 315.849>
LayerCount: 2
Back
SplineSet
359 502 m 0
 522 502 638 405 638 254 c 0
 638 92 516 -16 366 -16 c 0
 120 -16 59 177 59 344 c 0
 59 668 253 740 382 740 c 0
 532 740 626 631 626 574 c 0
 626 533 596 523 576 523 c 0
 560 523 532 531 523 560 c 0
 514 584 461 633 379 633 c 0
 300 633 195 608 172 420 c 1
 214 459 280 502 359 502 c 0
359 88 m 0
 457 88 532 162 532 245 c 0
 532 324 460 402 359 402 c 0
 264 402 187 331 187 245 c 256
 187 146 280 88 359 88 c 0
EndSplineSet
Fore
SplineSet
359 497 m 0
 522 497 638 402 638 254 c 0
 638 96 516 -10 366 -10 c 0
 120 -10 59 179 59 342 c 0
 59 660 253 730 382 730 c 0
 532 730 626 623 626 568 c 0
 626 527 596 518 576 518 c 0
 560 518 532 525 523 554 c 0
 514 577 461 625 379 625 c 0
 300 625 195 601 172 417 c 1
 214 455 280 497 359 497 c 0
359 92 m 0
 457 92 532 164 532 245 c 0
 532 323 460 399 359 399 c 0
 264 399 187 330 187 245 c 256
 187 149 280 92 359 92 c 0
EndSplineSet
EndChar

StartChar: seven
Encoding: 55 55 24
Width: 651
VWidth: 1473
Flags: W
HStem: -10 21G<191 208.5> 612 104<56.021 474>
LayerCount: 2
Back
SplineSet
46 663 m 260
 46 694 70 716 99 716 c 6
 594 716 l 5
 594 603 l 5
 250 3 l 6
 236 -21 213 -24 204 -24 c 4
 178 -24 150 -1 150 30 c 4
 150 39 153 48 158 56 c 6
 474 610 l 5
 99 610 l 6
 68 610 46 634 46 663 c 260
EndSplineSet
Fore
SplineSet
46 664 m 256
 46 694 70 716 99 716 c 2
 594 716 l 1
 594 605 l 1
 250 16 l 2
 236 -7 213 -10 204 -10 c 0
 178 -10 150 13 150 43 c 0
 150 52 153 61 158 68 c 2
 474 612 l 1
 99 612 l 2
 68 612 46 636 46 664 c 256
EndSplineSet
EndChar

StartChar: eight
Encoding: 56 56 25
Width: 665
VWidth: 1473
Flags: W
HStem: -10 101<225.46 441.323> 354 88<243.147 422.186> 629 101<251.533 422.81>
VStem: 52 104<152.467 291.19> 96 107<491.333 588.41> 466 109<491.333 588.744> 514 105<155.524 288.342>
LayerCount: 2
Back
SplineSet
510 404 m 1xec
 576 365 619 290 619 214 c 256
 619 71 483 -25 334 -25 c 256
 196 -25 52 61 52 214 c 0xf2
 52 304 103 366 161 404 c 1
 98 455 96 526 96 539 c 0
 96 650 204 740 334 740 c 0
 453 740 575 661 575 539 c 0
 575 526 573 455 510 404 c 1xec
334 442 m 0
 377 442 466 461 466 539 c 0
 466 585 432 639 334 639 c 0
 279 639 203 607 203 539 c 0xec
 203 461 286 442 334 442 c 0
330 78 m 0
 391 78 514 105 514 214 c 0
 514 326 388 354 334 354 c 0
 301 354 232 345 182 293 c 0
 165 274 156 248 156 215 c 0xf2
 156 105 265 78 330 78 c 0
EndSplineSet
Fore
SplineSet
510 404 m 1xec
 576 365 619 296 619 220 c 256
 619 77 483 -10 334 -10 c 256
 196 -10 52 67 52 220 c 0xf2
 52 310 103 366 161 404 c 1
 98 455 96 521 96 534 c 0
 96 645 204 730 334 730 c 0
 453 730 575 656 575 534 c 0
 575 521 573 455 510 404 c 1xec
334 442 m 0
 377 442 466 456 466 534 c 0
 466 580 432 629 334 629 c 0
 279 629 203 602 203 534 c 0xec
 203 456 286 442 334 442 c 0
330 91 m 0
 391 91 514 111 514 220 c 0
 514 332 388 354 334 354 c 0
 286.395 354 156 337.18 156 221 c 0xf2
 156 111 265 91 330 91 c 0
EndSplineSet
EndChar

StartChar: nine
Encoding: 57 57 26
Width: 686
VWidth: 1473
Flags: W
HStem: -10 106<206.344 414.018> 216 100<234.709 416.937> 627 103<238.698 408.644>
VStem: 47 106<390.204 545.868> 498 128<300.404 526.272>
LayerCount: 2
Back
SplineSet
326 727 m 4
 537 727 626 564 626 367 c 4
 626 45 432 -19 303 -19 c 4
 120 -19 59 108 59 146 c 4
 59 177 80 197 109 197 c 4
 136 197 154 178 162 160 c 4
 180.57 113.573 225.997 87 306 87 c 4
 388 87 491 110 513 291 c 5
 471 253 404 210 326 210 c 4
 169.406 210 47 308.8 47 457 c 4
 47 588 142 727 326 727 c 4
326 310 m 4
 423 310 498 372 498 466 c 4
 498 562 408 624 326 624 c 4
 227 624 153 550 153 466 c 4
 153 372 225 310 326 310 c 4
EndSplineSet
Fore
SplineSet
326 730 m 0
 537 730 626 570 626 373 c 0
 626 51 432 -10 303 -10 c 0
 120 -10 59 117 59 155 c 0
 59 186 80 206 109 206 c 0
 136 206 154 187 162 169 c 0
 180.57 122.573 225.997 96 306 96 c 0
 388 96 491 116 513 297 c 1
 471 259 404 216 326 216 c 0
 169.406 216 47 313.8 47 462 c 0
 47 593 142 730 326 730 c 0
326 316 m 0
 423 316 498 377 498 471 c 0
 498 567 408 627 326 627 c 0
 227 627 153 555 153 471 c 0
 153 377 225 316 326 316 c 0
EndSplineSet
EndChar

StartChar: colon
Encoding: 58 58 27
Width: 343
VWidth: 1473
Flags: W
HStem: -9 180<109.461 226.539> 339 180<109.22 226.539>
VStem: 78 180<22.4606 139.539 369.968 487.539>
LayerCount: 2
Fore
SplineSet
168 339 m 256
 118.5 339 78 375 78 429 c 256
 78 481.814 118.587 519 168 519 c 256
 220.814 519 258 478.413 258 429 c 256
 258 375 217.5 339 168 339 c 256
168 -9 m 256
 115.186 -9 78 31.5866 78 81 c 256
 78 133.814 118.587 171 168 171 c 256
 220.814 171 258 130.413 258 81 c 256
 258 28.1856 217.413 -9 168 -9 c 256
EndSplineSet
EndChar

StartChar: semicolon
Encoding: 59 59 28
Width: 346
VWidth: 1473
Flags: W
HStem: -10 21G<138.5 177> 339 180<109.389 226.616>
VStem: 67 199 78 180<368.356 487.611> 78 188<19.3163 124.91>
LayerCount: 2
Fore
SplineSet
165 -10 m 0xe0
 112 -10 78 31 78 77 c 0
 78 125 120 167 168 167 c 0
 207 167 266 139 266 45 c 0xc8
 266 -69 158 -152 107 -152 c 0
 85 -152 67 -137 67 -120 c 0
 67 -82 143 -98 180 -9 c 1
 174 -9 171 -10 165 -10 c 0xe0
168 339 m 256
 118 339 78 375 78 429 c 256
 78 482 119 519 168 519 c 256
 221 519 258 478 258 429 c 256xd0
 258 375 218 339 168 339 c 256
EndSplineSet
EndChar

StartChar: less
Encoding: 60 60 29
Width: 677
VWidth: 1473
Flags: W
HStem: 512 20G<530 553>
LayerCount: 2
Fore
SplineSet
594 61 m 0
 594 31 571 4 535 4 c 0
 525 4 516 7 507 12 c 2
 121 220 l 2
 96 233 94 259 94 269 c 0
 94 290 104 307 124 318 c 2
 507 524 l 2
 516 529 525 532 535 532 c 0
 571 532 594 502 594 475 c 0
 594 465 591 439 564 424 c 0
 557 420 413 349 338 310 c 2
 253 268 l 1
 564 112 l 2
 591 97 594 71 594 61 c 0
EndSplineSet
EndChar

StartChar: equal
Encoding: 61 61 30
Width: 692
VWidth: 1473
Flags: W
HStem: 97 109<93.7528 592.826> 305 110<94.174 592.24>
LayerCount: 2
Fore
SplineSet
538 415 m 2
 564 415 603 404.2 603 361 c 0
 603 341.393 594.769 305 538 305 c 2
 149 305 l 2
 118.472 305 84 316.2 84 361 c 0
 84 404.2 120.3 415 149 415 c 2
 538 415 l 2
538 206 m 2
 566.7 206 603 195.2 603 152 c 0
 603 133.136 595.5 97 538 97 c 2
 149 97 l 2
 117.607 97 84 108 84 152 c 256
 84 195.2 118.359 206 149 206 c 2
 538 206 l 2
EndSplineSet
EndChar

StartChar: greater
Encoding: 62 62 31
Width: 677
VWidth: 1473
Flags: W
HStem: 512 20G<137.5 159.5>
LayerCount: 2
Fore
SplineSet
95 476 m 0
 95 504 120 532 155 532 c 0
 164 532 174 529 183 524 c 2
 566 318 l 2
 586 307 596 291 596 270 c 0
 596 240 582 227 569 220 c 2
 183 12 l 2
 174 7 164 4 154 4 c 0
 123 4 95 27 95 61 c 0
 95 71 98 97 125 112 c 2
 436 268 l 1
 125 424 l 2
 98 440 95 468 95 476 c 0
EndSplineSet
EndChar

StartChar: question
Encoding: 63 63 32
Width: 677
VWidth: 1473
Flags: W
HStem: -16 144<208.375 315.625> 644 107<250.249 429.098>
VStem: 187 150<5.75 106.25> 208 109<208.883 262.516> 488 112<461.699 586.263>
LayerCount: 2
Fore
SplineSet
339 751 m 0xd8
 536 751 600 624 600 522 c 256
 600 340 423 317 372 304 c 0
 353 300 335 286 325 272 c 0
 320 265 317 253 317 236 c 0
 317 214 314 177 262 177 c 0
 230 177 210 193 208 242 c 0
 208 318 239 348 295 383 c 0
 351.062 418.408 488 411.479 488 524 c 0
 488 563 455 644 342 644 c 0
 274 644 213 609 172 564 c 0
 169 561 156 547 131 547 c 0
 98 547 76 575 76 605 c 0
 76 619 81 631 91 641 c 0
 157 709 240 751 339 751 c 0xd8
262 128 m 256
 305 128 337 94 337 56 c 256
 337 18 305 -16 262 -16 c 256
 219 -16 187 18 187 56 c 256xe8
 187 94 219 128 262 128 c 256
EndSplineSet
EndChar

StartChar: at
Encoding: 64 64 33
Width: 1022
VWidth: 1473
Flags: W
HStem: -67 78<385.005 670.202> 129 64<678.665 743.35> 131 72<384.012 561.706> 392 74<410.799 604.646> 533 75<426.707 618.78> 710 77<404.863 653.246>
VStem: 97 77<217.894 472.493> 283 70<232.7 343.572> 655 72<410.003 499.082> 839 72<308.286 523.968>
LayerCount: 2
Fore
SplineSet
911 437 m 0xdfc0
 911 217 765 129 682 129 c 0xdfc0
 664 129 621 134 614 184 c 1
 568 144 508 131 457 131 c 256xbfc0
 339 131 283 212 283 285 c 0
 283 357 329 466 513 466 c 0
 597 466 639 425 653 408 c 1
 655 418 655 428 655 437 c 0
 655 514 593 533 524 533 c 0
 433 533 399 489 372 489 c 0
 359 489 343 501 343 521 c 0
 343 565 453 608 538 608 c 0
 647 608 727 558 727 454 c 0
 727 408 692 263 677 204 c 1
 677 196 683 193 692 193 c 0
 731 193 839 267 839 409 c 0
 839 593 705 710 535 710 c 0
 360 710 174 598 174 331 c 0
 174 175 285 11 522 11 c 0
 603 11 741 32 797 110 c 0
 803 121 821 134 838 134 c 0
 860 134 875 112 875 95 c 0
 875 63 774 -67 523 -67 c 0
 229 -67 97 144 97 340 c 0
 97 642 324 787 532 787 c 0
 738 787 911 647 911 437 c 0xdfc0
463 203 m 256xbfc0
 597 203 629 285 629 323 c 0
 629 351 612 392 510 392 c 0
 454 392 353 371 353 286 c 0
 353 219 420 203 463 203 c 256xbfc0
EndSplineSet
EndChar

StartChar: A
Encoding: 65 65 34
Width: 730
VWidth: 1473
Flags: W
HStem: 0 21G<107.5 124 612 630.5> 302 109<169 564> 617 103<256.976 477.566>
VStem: 60 109<10.875 302 411 532.688> 564 109<11.3659 302 411 531.204>
LayerCount: 2
Fore
SplineSet
368 720 m 0
 612 720 673 569 673 438 c 2
 673 66 l 2
 673 10 641 -0 620 0 c 0
 604 0 564 6 564 66 c 2
 564 302 l 1
 169 302 l 1
 169 66 l 2
 169 7 133 -0 115 0 c 0
 100 0 60 6 60 66 c 2
 60 433 l 2
 60 563 122 720 368 720 c 0
368 617 m 0
 212 617 169 532 169 442 c 2
 169 411 l 1
 566 411 l 1
 566 442 l 2
 566 532 520 617 368 617 c 0
EndSplineSet
EndChar

StartChar: B
Encoding: 66 66 35
Width: 730
VWidth: 1473
Flags: W
HStem: 0 105<231.89 518.577> 302 109<237.875 524.719> 613 110<241.367 492.875>
VStem: 60 109<164.452 231 231 552.008> 566 110<148.986 255.998 447.211 558.285>
LayerCount: 2
Fore
SplineSet
595 358 m 1
 671 316 676 235 676 206 c 0
 676 82 573 0 435 0 c 2
 318 0 l 2
 182 0 60 77 60 231 c 2
 60 485 l 2
 60 659 209 723 370 723 c 0
 542 723 676 633 676 499 c 0
 676 436 649 389 595 358 c 1
227 358 m 0
 227 400 262 411 293 411 c 2
 427 411 l 2
 489 408 566 430 566 505 c 0
 566 591 443 613 370 613 c 0
 225 613 169 561 169 482 c 2
 169 236 l 2
 169 146 229 114 309 105 c 2
 435 105 l 2
 496 105 566 135 566 206 c 0
 566 270 520 302 427 302 c 2
 293 302 l 2
 234 302 227 340 227 358 c 0
EndSplineSet
EndChar

StartChar: C
Encoding: 67 67 36
Width: 687
VWidth: 1473
Flags: W
HStem: -8 110<289.944 459.667> 610 110<286.391 467.915>
VStem: 43 112<244.513 476.912>
LayerCount: 2
Fore
SplineSet
43 358 m 0
 43 569 184 720 396 720 c 0
 415 720 542 721 648 613 c 0
 658 603 664 590 664 575 c 0
 664 543 642 518 610 518 c 0
 584 518 570 532 567 535 c 0
 520 585 463 610 396 610 c 0
 290 610 155 559 155 357 c 0
 155 182 280 102 384 102 c 0
 453 102 521 134 567 180 c 0
 578 192 598 196 611 196 c 0
 641 196 663 165 663 144 c 0
 663 140 659 113 647 102 c 0
 539 -12 404 -8 382 -8 c 0
 146 -8 43 209 43 358 c 0
EndSplineSet
EndChar

StartChar: D
Encoding: 68 68 37
Width: 723
VWidth: 1473
Flags: W
HStem: -1 107<215.784 410.812> 608 109<186.503 242 242 413.81>
VStem: 62 109<122.17 570.45> 570 109<247.415 468.755>
LayerCount: 2
Fore
SplineSet
62 557 m 2
 62 638 125 717 242 717 c 2
 287 717 l 2
 368 717 679 690 679 358 c 256
 679 136 523 -1 287 -1 c 2
 240 -1 l 2
 152 -1 54 64 62 155 c 2
 62 557 l 2
570 358 m 256
 570 558 412 608 289 608 c 2
 243 608 l 2
 181 608 171 567 171 555 c 2
 171 155 l 2
 171 115 220 106 242 106 c 2
 297 106 l 2
 524 116 570 250 570 358 c 256
EndSplineSet
EndChar

StartChar: E
Encoding: 69 69 38
Width: 695
VWidth: 1473
Flags: W
HStem: -7 110<219.082 488.961> 302 110<149 467.904> 613 110<225.738 489.172>
VStem: 40 109<166.223 302 412 549.777>
LayerCount: 2
Fore
SplineSet
361 -7 m 0
 224 -7 40 41 40 231 c 2
 40 485 l 2
 40 675 224 723 361 723 c 0
 553 723 658 624 658 567 c 0
 658 531 623 518 606 518 c 0
 588 518 568 530 555 545 c 0
 535 572 482 613 361 613 c 0
 262 613 149 591 149 482 c 2
 149 412 l 1
 412 411 l 2
 443 411 479 400 479 358 c 0
 479 342 472 302 412 302 c 2
 149 302 l 1
 149 236 l 2
 149 130 236 103 361 103 c 0
 482 103 535 144 555 171 c 0
 568 186 588 198 606 198 c 0
 626 198 658 183 658 149 c 0
 658 92 552 -7 361 -7 c 0
EndSplineSet
EndChar

StartChar: F
Encoding: 70 70 39
Width: 701
VWidth: 1473
Flags: W
HStem: -1 21G<102.5 126.5> 302 109<171 489.249> 613 110<247.738 511.593>
VStem: 62 107<8.84584 302 411 542.371>
LayerCount: 2
Fore
SplineSet
62 65 m 2
 62 485 l 2
 62 675 246 723 383 723 c 0
 577 723 680 624 680 567 c 0
 680 529 644 518 629 518 c 0
 610 518 590 530 577 545 c 0
 557 572 504 613 383 613 c 0
 284 613 171 591 171 482 c 2
 171 411 l 1
 435 411 l 2
 466 411 501 400 501 358 c 0
 501 342 493 302 435 302 c 2
 169 302 l 1
 169 65 l 2
 169 9 137 -1 116 -1 c 0
 89 -1 62 10 62 65 c 2
EndSplineSet
EndChar

StartChar: G
Encoding: 71 71 40
Width: 764
VWidth: 1473
Flags: W
HStem: -6 111<294.553 518.297> 301 110<252.052 603.306> 613 110<293.934 520.799>
VStem: 50 112<241.583 480.763> 607 110<169.902 300.071>
LayerCount: 2
Fore
SplineSet
50 357 m 256
 50 571 176 723 405 723 c 0
 571 723 651 653 688 598 c 0
 695 587 698 576 698 565 c 0
 698 528 663 516 648 516 c 0
 587 516 578 613 406 613 c 0
 211 613 162 479 162 362 c 0
 162 156 293 105 407 105 c 0
 493 105 607 145 607 221 c 2
 607 258 l 2
 607 297 598 301 579 301 c 2
 317 301 l 2
 283 301 240 312 240 356 c 0
 240 400 283 411 317 411 c 2
 579 411 l 2
 689 411 717 332 717 275 c 2
 717 221 l 2
 717 77 568 -6 407 -6 c 0
 193 -6 50 137 50 357 c 256
EndSplineSet
EndChar

StartChar: H
Encoding: 72 72 41
Width: 746
VWidth: 1473
Flags: W
HStem: 0 21G<100.5 131.5 606 637> 302 109<177 573> 697 20G<99.5 144 606 649.5>
VStem: 68 109<10.1088 302 411 679.365> 573 109<9.92731 302 411 706.492>
LayerCount: 2
Fore
SplineSet
628 717 m 0
 671 717 682 679 682 653 c 2
 682 65 l 2
 682 7 646 0 628 0 c 0
 584 0 573 34 573 65 c 2
 573 302 l 1
 177 302 l 1
 177 65 l 2
 177 7 141 0 122 0 c 0
 79 0 68 36 68 65 c 2
 68 653 l 2
 68 679 77 717 122 717 c 0
 166 717 177 679 177 653 c 2
 177 411 l 1
 573 411 l 1
 573 653 l 2
 573 685 584 717 628 717 c 0
EndSplineSet
EndChar

StartChar: I
Encoding: 73 73 42
Width: 244
VWidth: 1473
Flags: W
HStem: 0 21G<102 131.5> 697 20G<102 145.5>
VStem: 69 109<10.5498 676.7 65 653 65 65>
LayerCount: 2
Fore
SplineSet
124 717 m 0
 167 717 178 676 178 653 c 2
 178 65 l 2
 178 6 139 0 124 0 c 0
 80 0 69 34 69 65 c 2
 69 653 l 2
 69 685 80 717 124 717 c 0
EndSplineSet
EndChar

StartChar: J
Encoding: 74 74 43
Width: 598
VWidth: 1473
Flags: W
HStem: -9 108<198.536 358.562>
VStem: 29 109<159.19 365.988> 420 109<163.042 699.891>
LayerCount: 2
Fore
SplineSet
473 710 m 0
 518 710 529 674 529 645 c 2
 529 239 l 2
 529 38 358 -9 296 -9 c 2
 271 -9 l 2
 136 -9 29 86 29 228 c 2
 29 311 l 2
 29 338 40 377 84 377 c 0
 127 377 138 337 138 311 c 2
 138 228 l 2
 138 160 188 99 284 99 c 0
 340 99 420 134 420 239 c 2
 420 645 l 2
 420 674 431 710 473 710 c 0
EndSplineSet
EndChar

StartChar: K
Encoding: 75 75 44
Width: 686
VWidth: 1473
Flags: W
HStem: -10 21G<101.5 132 593 624.5> 699 20G<101.5 145 600 618.5>
VStem: 68 109<10.4039 65 65 315 443 677.564>
LayerCount: 2
Fore
SplineSet
382 454 m 1
 626 301 664 63 664 45 c 0
 664 18 642 -10 607 -10 c 0
 579 -10 557 13 552 36 c 0
 521 213 396 334 290 390 c 1
 177 315 l 1
 177 66 l 2
 177 8 140 -0 124 0 c 0
 79 0 68 36 68 65 c 2
 68 653 l 2
 68 683 79 719 124 719 c 0
 166 719 177 677 177 653 c 2
 177 443 l 1
 181 445 198 456 227 476 c 2
 583 713 l 1
 590 716 597 717 603 717 c 0
 634 717 651 686 651 667 c 0
 651 660 646 637 635 631 c 2
 382 454 l 1
EndSplineSet
EndChar

StartChar: L
Encoding: 76 76 45
Width: 664
VWidth: 1473
Flags: W
HStem: -1 109<184.698 601.005> 696 20G<105.5 149>
VStem: 72 109<112.121 705.24>
LayerCount: 2
Fore
SplineSet
576 108 m 2
 601 108 642 97 642 55 c 0
 642 37 635 -1 576 -1 c 2
 212 -1 l 2
 125 -1 72 64 72 140 c 2
 72 651 l 2
 72 680 83 716 128 716 c 0
 170 716 181 677 181 651 c 2
 181 137 l 2
 181 120 191 108 212 108 c 2
 576 108 l 2
EndSplineSet
EndChar

StartChar: M
Encoding: 77 77 46
Width: 1025
VWidth: 1473
Flags: W
HStem: -7 21G<100.5 131 491 520.5 882.5 913> 617 109<228.761 399.403 627.969 799.005>
VStem: 68 110<3.875 569.172> 458 111<4.36591 559.296> 849 109<3.59045 568.8>
LayerCount: 2
Fore
SplineSet
706 726 m 0
 848 726 958 645 958 489 c 2
 958 59 l 2
 958 1 921 -7 905 -7 c 0
 860 -7 849 27 849 59 c 2
 849 489 l 2
 849 574 801 617 706 617 c 0
 653 617 569 587 569 489 c 2
 569 59 l 2
 569 -1 528 -7 513 -7 c 0
 469 -7 458 33 458 59 c 2
 458 489 l 2
 458 572 391 617 321 617 c 0
 214 617 178 566 178 489 c 2
 178 59 l 2
 178 0 140 -7 122 -7 c 0
 79 -7 68 30 68 59 c 2
 68 489 l 2
 68 646 175 726 321 726 c 0
 393 726 482 688 514 629 c 1
 546 688 631 726 706 726 c 0
EndSplineSet
EndChar

StartChar: N
Encoding: 78 78 47
Width: 717
VWidth: 1473
Flags: W
HStem: 0 21G<99.5 130.5 575 605> 616 106<197.444 303.588>
VStem: 66 111<10.75 596.973> 542 109<10.75 275 477 653 653 707.988>
LayerCount: 2
Fore
SplineSet
597 719 m 0
 640 719 651 679 651 653 c 2
 651 65 l 2
 651 7 613 -0 597 0 c 0
 553 0 542 34 542 65 c 2
 542 275 l 1
 537 286 376 616 238 616 c 0
 202 616 177 587 177 513 c 2
 177 65 l 2
 177 7 139 -0 122 0 c 0
 77 0 66 36 66 65 c 2
 66 527 l 2
 66 642 146 722 236 722 c 0
 359 722 467 604 542 477 c 1
 542 653 l 2
 542 684 553 719 597 719 c 0
EndSplineSet
EndChar

StartChar: O
Encoding: 79 79 48
Width: 788
VWidth: 1473
Flags: W
HStem: -7 112<300.14 488.346> 608 112<298.75 493.417>
VStem: 41 112<256.383 455.35> 639 112<253.297 454.807>
LayerCount: 2
Fore
SplineSet
396 720 m 256
 595 720 751 548 751 357 c 0
 751 168 599 -7 396 -7 c 256
 203 -7 41 159 41 357 c 0
 41 550 200 720 396 720 c 256
396 105 m 0
 528 105 639 218 639 357 c 256
 639 487 535 608 396 608 c 0
 268 608 153 501 153 357 c 0
 153 207 272 105 396 105 c 0
EndSplineSet
EndChar

StartChar: P
Encoding: 80 80 49
Width: 723
VWidth: 1473
Flags: W
HStem: -1 21G<88 131> 258 103<316.099 516.489> 617 105<243.076 486.084>
VStem: 55 107<9.35782 542.337> 568 111<409.679 547.044>
LayerCount: 2
Fore
SplineSet
415 258 m 0
 304 258 209 305 209 347 c 0
 209 359 219 401 260 401 c 0
 291 401 331 361 425 361 c 0
 489 361 568 385 568 478 c 0
 568 533 530 617 365 617 c 0
 208 617 162 549 162 448 c 2
 162 65 l 2
 162 32 152 -1 110 -1 c 0
 66 -1 55 35 55 65 c 2
 55 485 l 2
 55 675 250 722 365 722 c 0
 555 722 679 627 679 485 c 0
 679 304 534 258 415 258 c 0
EndSplineSet
EndChar

StartChar: Q
Encoding: 81 81 50
Width: 802
VWidth: 1473
Flags: W
HStem: -6 105<305.104 507.471> 197 94<332.096 504.218> 610 112<298.1 499.029>
VStem: 47 112<257.828 465.396> 645 112<256.092 457.361>
LayerCount: 2
Fore
SplineSet
402 722 m 0
 600 722 757 551 757 358 c 0
 757 287 737 210 685 140 c 1
 725 80 748 31 748 3 c 0
 748 -34 706 -43 695 -43 c 0
 652 -43 658 6 614 66 c 1
 567 31 487 -6 402 -6 c 0
 209 -6 47 160 47 358 c 0
 47 559 189 722 402 722 c 0
611 233 m 1
 634 271 645 313 645 358 c 0
 645 493 540 610 402 610 c 0
 244 610 159 491 159 358 c 0
 159 296 179 242 218 197 c 1
 235 220 299 291 421 291 c 0
 440 291 517 297 611 233 c 1
281 134 m 1
 302 118 346 99 419 99 c 0
 462 99 493 104 561 156 c 1
 526 183 484 197 430 197 c 0
 351 197 305 164 281 134 c 1
EndSplineSet
EndChar

StartChar: R
Encoding: 82 82 51
Width: 746
VWidth: 1473
Flags: W
HStem: -10 21G<95.5 138.5 604.5 614> 265 96<476 522.876> 617 105<256.209 494.083>
VStem: 62 107<9.59045 537.132> 575 112<411.589 545.898>
LayerCount: 2
Fore
SplineSet
660 31 m 0
 660 -0 618 -10 610 -10 c 0
 599 -10 573 -6 552 29 c 0
 500 121 392 206 324 251 c 2
 255 299 l 2
 237 310 217 329 217 348 c 0
 217 361 227 401 267 401 c 0
 300 401 338 361 433 361 c 0
 548 361 575 430 575 476 c 0
 575 561 502 617 388 617 c 0
 206.462 617 169 540.674 169 448 c 2
 169 65 l 2
 169 33 159 -1 118 -1 c 0
 73 -1 62 34 62 65 c 2
 62 485 l 2
 62 655 226 722 373 722 c 0
 498 722 687 674 687 479 c 0
 687 340 577 265 476 265 c 1
 570 197 660 82 660 31 c 0
EndSplineSet
EndChar

StartChar: S
Encoding: 83 83 52
Width: 685
VWidth: 1473
Flags: W
HStem: -9 112<216.431 468.198> 303 112<201.506 476.814> 611 111<210.335 469.709>
VStem: 41 106<457.137 560.896> 532 110<155.691 260.603>
LayerCount: 2
Fore
SplineSet
343 415 m 0
 465 415 642 374 642 211 c 0
 642 35 452 -9 343 -9 c 0
 238 -9 99 29 49 118 c 0
 44 126 41 135 41 145 c 0
 41 178 70 201 98 201 c 0
 107 201 131 198 144 174 c 0
 183 118 286 103 343 103 c 0
 419 103 532 121 532 211 c 0
 532 285 430 303 343 303 c 0
 218 303 41 353 41 504 c 0
 41 664 203 722 343 722 c 0
 517 722 643 629 643 568 c 0
 643 535 616 512 588 512 c 0
 578 512 554 515 539 541 c 0
 512 589 409 611 343 611 c 0
 249 611 147 590 147 505 c 0
 147 433 245 415 343 415 c 0
EndSplineSet
EndChar

StartChar: T
Encoding: 84 84 53
Width: 651
VWidth: 1473
Flags: W
HStem: 0 21G<304.5 335> 608 114<177.152 271 380 469.795>
VStem: 271 109<10.3172 608>
LayerCount: 2
Fore
SplineSet
587 523 m 0
 530 523 560 584 380 608 c 1
 380 65 l 2
 380 7 343 0 327 0 c 0
 282 0 271 33 271 65 c 2
 271 608 l 1
 208 600 141 581 110 545 c 0
 100 531 81 523 66 523 c 0
 37 523 11 545 11 578 c 0
 11 635 123 722 327 722 c 256
 532 722 641 635 641 577 c 0
 641 542 612 523 587 523 c 0
EndSplineSet
EndChar

StartChar: U
Encoding: 85 85 54
Width: 749
VWidth: 1473
Flags: W
HStem: -7 97<263.416 483.613>
VStem: 68 109<170.549 701.544> 572 109<170.078 701.544>
LayerCount: 2
Fore
SplineSet
628 713 m 0
 662 713 681 683 681 648 c 2
 681 277 l 2
 687 97 568 -7 376 -7 c 0
 130 -7 68 155 68 281 c 2
 68 648 l 2
 68 679 79 713 124 713 c 0
 158 713 177 683 177 648 c 2
 177 264 l 2
 177 148 243 90 374 90 c 0
 549 90 572 197 572 259 c 2
 572 648 l 2
 572 679 583 713 628 713 c 0
EndSplineSet
EndChar

StartChar: V
Encoding: 86 86 55
Width: 655
VWidth: 1473
Flags: W
HStem: -3 93<271.394 383.165> 696 20G<68.5 92 562 586.5>
LayerCount: 2
Fore
SplineSet
578 716 m 0
 595 716 634 706 634 662 c 0
 634 656 634 649 632 641 c 2
 542 212 l 2
 514 82 456 -3 327 -3 c 256
 199 -3 140 80 113 212 c 2
 22 644 l 2
 20 651 20 657 20 663 c 0
 20 705 61 716 76 716 c 0
 108 716 125 679 130 654 c 2
 221 224 l 2
 246 108 289 90 327 90 c 256
 370 90 409 112 435 225 c 2
 524 656 l 2
 529 678 546 716 578 716 c 0
EndSplineSet
EndChar

StartChar: W
Encoding: 87 87 56
Width: 997
VWidth: 1473
Flags: W
HStem: -12 109<210.713 380.401 635.416 778.711> 702 20G<83 111.5 473 503 864.5 893.5>
VStem: 50 111<144.828 710.479> 440 111<155.641 681.005> 831 109<144.828 711.125>
LayerCount: 2
Fore
SplineSet
887 722 m 0
 900 722 940 715 940 656 c 2
 940 225 l 2
 940 68 833 -12 688 -12 c 0
 600 -12 522 37 496 85 c 1
 475 43 393 -12 303 -12 c 0
 157 -12 50 68 50 225 c 2
 50 656 l 2
 50 684 61 722 105 722 c 0
 118 722 161 716 161 656 c 2
 161 225 l 2
 161 148 195 97 303 97 c 0
 376 97 440 146 440 225 c 2
 440 656 l 2
 440 681 451 722 495 722 c 0
 511 722 551 714 551 656 c 2
 551 225 l 2
 551 108 669 97 688 97 c 0
 783 97 831 140 831 225 c 2
 831 656 l 2
 831 688 842 722 887 722 c 0
EndSplineSet
EndChar

StartChar: X
Encoding: 88 88 57
Width: 687
VWidth: 1473
Flags: W
HStem: -6 21G<76 98 588 610.5> 311 109<315.648 399.768> 699 20G<75.5 98 588 608>
LayerCount: 2
Fore
SplineSet
594 719 m 0
 622 719 650 698 650 662 c 0
 650 653 648 645 644 638 c 2
 538 443 l 2
 519 412 499 390 464 368 c 1
 494 347 517 328 536 290 c 2
 644 74 l 2
 648 66 651 58 651 49 c 0
 651 22 627 -6 594 -6 c 0
 582 -6 558 -1 545 25 c 2
 440 236 l 2
 411 295 373 311 343 311 c 256
 317 311 292 310 246 236 c 2
 141 25 l 2
 128 -2 104 -6 92 -6 c 0
 60 -6 36 22 36 49 c 0
 36 57 39 65 43 74 c 2
 149 289 l 2
 166 325 193 348 222 368 c 1
 170 401 154 436 149 445 c 2
 43 636 l 2
 38 644 36 653 36 662 c 0
 36 687 59 719 92 719 c 0
 104 719 127 714 141 688 c 2
 247 491 l 2
 282 425 308 420 343 420 c 256
 382 420 405 428 440 492 c 2
 545 688 l 2
 559 714 582 719 594 719 c 0
EndSplineSet
EndChar

StartChar: Y
Encoding: 89 89 58
Width: 693
VWidth: 1473
Flags: W
HStem: 0 109<162.675 487.952> 212 109<253.387 451.835> 699 20G<87.5 131 560.5 604>
VStem: 55 107<411.415 708.891> 527 109<147.767 271 388.626 708.891>
LayerCount: 2
Fore
SplineSet
583 719 m 0
 625 719 636 683 636 654 c 2
 636 206 l 2
 636 72 527 0 420 0 c 2
 218 0 l 2
 187 0 153 11 153 55 c 256
 153 98 187 109 218 109 c 2
 420 109 l 2
 474 109 527 144 527 206 c 2
 527 271 l 1
 506 250 456 212 346 212 c 0
 169 212 55 315 55 499 c 2
 55 654 l 2
 55 685 66 719 109 719 c 0
 153 719 164 683 164 654 c 2
 162 495 l 2
 162 391 242 321 346 321 c 0
 445 321 518 362 527 455 c 2
 527 654 l 2
 527 683 538 719 583 719 c 0
EndSplineSet
EndChar

StartChar: Z
Encoding: 90 90 59
Width: 680
VWidth: 1473
Flags: W
HStem: -1 109<152.174 607.776> 608 109<80.2235 535.826>
VStem: 38 108<111.912 172.545> 542 108<544.063 604.088>
LayerCount: 2
Fore
SplineSet
650 55 m 0
 650 39 643 -1 583 -1 c 2
 184 -1 l 2
 95 -1 38 63 38 147 c 0
 38 182 56 234 106 261 c 2
 520 532 l 2
 534 540 542 556 542 572 c 0
 542 591 530 608 502 608 c 2
 105 608 l 2
 81 608 38 619 38 661 c 0
 38 677 45 717 105 717 c 2
 504 717 l 2
 593 717 650 653 650 569 c 0
 650 545 638 483 582 455 c 2
 168 184 l 2
 154 176 146 160 146 144 c 0
 146 125 158 108 186 108 c 2
 583 108 l 2
 607 108 650 97 650 55 c 0
EndSplineSet
EndChar

StartChar: bracketleft
Encoding: 91 91 60
Width: 441
VWidth: 1473
Flags: W
HStem: -180 109<197 345.166> 653 109<197 345.166>
VStem: 88 109<-71 653> 88 291<-150.405 -79.7547 661.755 752.613>
LayerCount: 2
Fore
SplineSet
326 -71 m 2xe0
 344 -71 379 -81 379 -122 c 0
 379 -156 359 -180 326 -180 c 2
 137 -180 l 2
 95 -180 87 -149 88 -124 c 2
 88 706 l 2
 88 732 98 762 137 762 c 2
 326 762 l 2
 359 762 379 738 379 704 c 0xd0
 379 663 344 653 326 653 c 2
 197 653 l 1
 197 -71 l 1
 326 -71 l 2xe0
EndSplineSet
EndChar

StartChar: backslash
Encoding: 92 92 61
Width: 366
VWidth: 1473
Flags: W
HStem: -5 21G<325.5 344>
VStem: -18 400
LayerCount: 2
Fore
SplineSet
-18 696 m 0
 -18 735 18 743 31 743 c 0
 51 743 74 731 82 713 c 2
 376 69 l 2
 380 61 382 52 382 44 c 0
 382 11 356 -5 332 -5 c 0
 319 -5 293 -0 281 27 c 2
 -12 669 l 2
 -16 678 -18 687 -18 696 c 0
EndSplineSet
EndChar

StartChar: bracketright
Encoding: 93 93 62
Width: 441
VWidth: 1473
Flags: W
HStem: -180 109<92.8345 240> 653 109<92.8345 240>
VStem: 59 290<-152.968 -79.7548 661.755 752.451 -122 706 704 704> 240 109<-71 653>
LayerCount: 2
Fore
SplineSet
301 762 m 2xe0
 339 762 349 734 349 706 c 2
 349 -124 l 2
 351 -147 344 -180 301 -180 c 2
 112 -180 l 2
 79 -180 59 -156 59 -122 c 0xe0
 59 -81 94 -71 112 -71 c 2
 240 -71 l 1
 240 653 l 1xd0
 112 653 l 2
 94 653 59 663 59 704 c 0
 59 738 79 762 112 762 c 2
 301 762 l 2xe0
EndSplineSet
EndChar

StartChar: asciicircum
Encoding: 94 94 63
Width: 718
VWidth: 1473
Flags: W
HStem: 253 473
VStem: 135 459<267 310 294 301 301 301>
LayerCount: 2
Fore
SplineSet
594 294 m 0
 594 267 569 251 544 251 c 0
 513 251 499 271 492 286 c 2
 364 575 l 1
 236 286 l 2
 231 277 216 253 186 253 c 0
 171 253 135 263 135 301 c 0
 135 314 139 328 146 343 c 2
 324 701 l 2
 329 710 340 726 365 726 c 256
 383 726 397 715 404 701 c 2
 582 343 l 2
 590 326 594 310 594 294 c 0
EndSplineSet
EndChar

StartChar: underscore
Encoding: 95 95 64
Width: 736
VWidth: 1473
Flags: W
HStem: -169 95<0 737>
LayerCount: 2
Fore
SplineSet
0 -169 m 1
 0 -74 l 1
 737 -74 l 1
 737 -169 l 1
 0 -169 l 1
EndSplineSet
EndChar

StartChar: grave
Encoding: 96 96 65
Width: 343
VWidth: 1473
Flags: W
HStem: 435 282<134.129 198.03>
VStem: 124 109<445.277 706.492 499 653 499 499>
LayerCount: 2
Fore
SplineSet
178 717 m 0
 222 717 233 679 233 653 c 2
 233 499 l 2
 233 443 197 435 178 435 c 0
 135 435 124 468 124 499 c 2
 124 653 l 2
 124 684 135 717 178 717 c 0
EndSplineSet
EndChar

StartChar: a
Encoding: 97 97 66
Width: 633
VWidth: 1473
Flags: W
HStem: -7 92<199.351 378.46> 273 95<201.364 421.352> 429 101<185.522 419.173>
VStem: 47 102<127.492 228.791> 467 103<3.25007 41.9769 41.9769 46 133.272 229.073>
LayerCount: 2
Fore
SplineSet
70 427 m 0
 70 486 190 530 293 530 c 0
 475 530 570 463 570 289 c 2
 570 46 l 2
 570 13 543 -7 516 -7 c 256
 490 -7 469 11 469 38 c 0
 469 40 470 43 470 46 c 1
 424 1 340 -7 298 -7 c 0
 158 -7 47 48 47 178 c 0
 47 292 156 368 306 368 c 0
 368 368 451 348 471 314 c 1
 464 399 419 429 296 429 c 0
 188 429 146 380 115 380 c 0
 101 380 70 399 70 427 c 0
298 85 m 0
 394 85 467 122 467 177 c 0
 467 254 386 273 302 273 c 0
 251 273 149 254 149 177 c 0
 149 122 212 85 298 85 c 0
EndSplineSet
Substitution2: "Single Substitution lookup 22 subtable" uni0E38
Substitution2: "Single Substitution lookup 22 subtable" uni0E38
EndChar

StartChar: b
Encoding: 98 98 67
Width: 674
VWidth: 1473
Flags: W
HStem: -7 109<248.353 441.422> 427 107<257.636 438.727> 815 20G<107 135.5>
VStem: 66 108<24.0027 50 177.844 343.901 478 823.049> 519 106<177.979 350.447>
LayerCount: 2
Back
SplineSet
121 -9 m 0
 90 -9 66 15 66 44 c 2
 66 781 l 2
 66 812 93 835 121 835 c 256
 150 835 174 812 174 781 c 2
 174 468 l 1
 222 513 283 524 346 524 c 0
 522 524 625 410 625 259 c 256
 625 112 531 -7 346 -7 c 0
 293 -7 220 5 172 50 c 1
 174 25 162 -9 121 -9 c 0
346 417 m 0
 246 417 174 354 174 259 c 0
 174 133 263 102 346 102 c 256
 425 102 519 133 519 259 c 0
 519 359 452 417 346 417 c 0
EndSplineSet
Fore
SplineSet
121 -9 m 0
 90 -9 66 15 66 44 c 2
 66 781 l 2
 66 812 93 835 121 835 c 256
 150 835 174 812 174 781 c 2
 174 478 l 1
 222 523 283 534 346 534 c 0
 522 534 625 415 625 264 c 256
 625 117 531 -7 346 -7 c 0
 293 -7 220 5 172 50 c 1
 174 25 162 -9 121 -9 c 0
346 427 m 0
 246 427 174 359 174 264 c 0
 174 138 263 102 346 102 c 256
 425 102 519 138 519 264 c 0
 519 364 452 427 346 427 c 0
EndSplineSet
Substitution2: "Single Substitution lookup 22 subtable" uni0E39
Substitution2: "Single Substitution lookup 22 subtable" uni0E39
EndChar

StartChar: c
Encoding: 99 99 68
Width: 595
VWidth: 1473
Flags: W
HStem: -13 102<236.634 415.879> 424 103<240.608 421.036>
VStem: 49 106<169.918 338.741>
LayerCount: 2
Fore
SplineSet
552 112 m 0
 552 48 436 -13 332 -13 c 0
 224 -13 49 40 49 252 c 0
 49 433 181 527 331 527 c 0
 449 527 552 460 552 402 c 0
 552 366 520 350 500 350 c 0
 448 350 453 424 331 424 c 0
 239 424 155 368 155 253 c 0
 155 122 262 89 327 89 c 0
 451 89 446 164 499 164 c 0
 519 164 552 149 552 112 c 0
EndSplineSet
Substitution2: "Single Substitution lookup 22 subtable" uni0E3A
Substitution2: "Single Substitution lookup 22 subtable" uni0E3A
EndChar

StartChar: d
Encoding: 100 100 69
Width: 674
VWidth: 1473
Flags: W
HStem: -7 109<230.944 424.647> 427 107<235.421 416.484> 815 20G<537.5 568>
VStem: 49 106<175.306 348.393> 499 108<22.4405 50 174.165 344.787 478 823.846>
LayerCount: 2
Back
SplineSet
552 835 m 256
 584 835 607 810 607 781 c 2
 607 44 l 2
 607 15 584 -9 552 -9 c 0
 509 -9 499 27 501 50 c 1
 453 5 380 -7 327 -7 c 0
 117 -7 49 138 49 259 c 256
 49 416 155 524 327 524 c 0
 390 524 451 513 499 468 c 1
 499 781 l 2
 499 812 523 835 552 835 c 256
327 102 m 256
 410 102 499 133 499 259 c 0
 499 356 424 417 327 417 c 0
 222 417 155 359 155 259 c 0
 155 133 248 102 327 102 c 256
EndSplineSet
Fore
SplineSet
552 835 m 256
 584 835 607 810 607 781 c 2
 607 44 l 2
 607 15 584 -9 552 -9 c 0
 509 -9 499 27 501 50 c 1
 453 5 380 -7 327 -7 c 0
 117 -7 49 143 49 264 c 256
 49 421 155 534 327 534 c 0
 390 534 451 523 499 478 c 1
 499 781 l 2
 499 812 523 835 552 835 c 256
327 102 m 256
 410 102 499 138 499 264 c 0
 499 361 424 427 327 427 c 0
 222 427 155 364 155 264 c 0
 155 138 248 102 327 102 c 256
EndSplineSet
EndChar

StartChar: e
Encoding: 101 101 70
Width: 645
VWidth: 1473
Flags: W
HStem: -7 97<233.338 429.635> 222 98<165 487.97> 436 96<242.508 399.944>
VStem: 50 108<166.569 222 320 355.487>
LayerCount: 2
Fore
SplineSet
590 311 m 0
 590 240 536 222 483 222 c 2
 158 222 l 1
 167 139 237 90 329 90 c 0
 460 90 460 159 508 159 c 0
 533 159 558 138 558 110 c 0
 558 93 551 79 538 68 c 0
 468 7 403 -7 330 -7 c 0
 204 -7 50 47 50 265 c 0
 50 425 170 532 330 532 c 0
 520 532 590 400 590 311 c 0
489 320 m 1
 463 435 365 436 333 436 c 0
 226 436 168 364 165 320 c 1
 489 320 l 1
EndSplineSet
EndChar

StartChar: f
Encoding: 102 102 71
Width: 371
VWidth: 1473
Flags: W
HStem: -4 21G<109 137> 420 107<219.61 342.42> 737 107<222.216 432.745>
VStem: 77 106<6.74182 411.502 496 699.75>
LayerCount: 2
Fore
SplineSet
245 420 m 2
 212 420 183 413 183 354 c 2
 183 60 l 2
 183 3 144 -4 130 -4 c 0
 88 -4 77 31 77 60 c 2
 77 625 l 2
 77 745 152 844 286 844 c 2
 380 844 l 2
 406 844 443 833 443 791 c 0
 443 774 435 737 380 737 c 2
 286 737 l 2
 204 737 183 675 183 625 c 2
 183 496 l 1
 189 523 230 527 253 527 c 2
 290 527 l 2
 349 527 354 482 354 477 c 0
 354 462 347 420 290 420 c 2
 245 420 l 2
EndSplineSet
EndChar

StartChar: g
Encoding: 103 103 72
Width: 667
VWidth: 1473
Flags: W
HStem: -262 107<248.32 427.887> -1 109<227.871 424.995> 423 109<227.894 417.46>
VStem: 47 106<176.589 348.755> 499 106<-86.9631 65 179.103 347.085 473.06 494.981>
LayerCount: 2
Fore
SplineSet
552 533 m 256
 598 533 606 489 606 476 c 0
 606 473 605 471 605 468 c 2
 605 -6 l 2
 605 -183 463 -262 339 -262 c 0
 206 -262 131 -187 131 -144 c 0
 131 -119 155 -92 183 -92 c 0
 202 -92 222 -101 231 -119 c 0
 241 -134 274 -155 340 -155 c 0
 390 -155 499 -134 499 -6 c 2
 499 65 l 1
 460 25 400 -1 327 -1 c 0
 170 -1 47 94 47 265 c 0
 47 438 168 532 327 532 c 0
 430 532 487 484 499 473 c 1
 498 492 507 533 552 533 c 256
327 108 m 0
 465 108 499 197 499 265 c 0
 499 360 426 423 327 423 c 0
 248 423 153 391 153 265 c 0
 153 139 246 108 327 108 c 0
EndSplineSet
EndChar

StartChar: h
Encoding: 104 104 73
Width: 662
VWidth: 1473
Flags: W
HStem: -7 21G<103 133.5 529 558.5> 421 109<250.438 434.462> 836 20G<104.5 132.5>
VStem: 66 106<3.38199 345.451 458 845.229> 491 106<4.85187 360.186>
LayerCount: 2
Fore
SplineSet
331 530 m 0
 544 530 597 380 597 264 c 2
 597 47 l 2
 597 16 573 -7 544 -7 c 256
 514 -7 491 21 491 47 c 2
 491 264 l 2
 491 390 430 421 331 421 c 0
 243 421 172 352 172 273 c 2
 172 47 l 2
 172 16 148 -7 119 -7 c 0
 87 -7 66 18 66 47 c 2
 66 803 l 2
 66 835 90 856 119 856 c 0
 146 856 172 834 172 803 c 2
 172 458 l 1
 203 500 272 530 331 530 c 0
EndSplineSet
EndChar

StartChar: i
Encoding: 105 105 74
Width: 237
VWidth: 1473
Flags: MW
HStem: -6 21G<98 126> 507 20G<98 140> 585 132<66.0703 168.805>
VStem: 52 131<599.374 704.396> 66 105<4.78247 59 463 517.143>
LayerCount: 2
Fore
SplineSet
119 -6 m 0
 133 -6 171 2 171 59 c 2
 171 463 l 2
 171 494 161 527 119 527 c 0
 77 527 66 492 66 463 c 2
 66 59 l 2
 66 29 77 -6 119 -6 c 0
118 717 m 0
 146 717 183 705 183 653 c 0
 183 611 159 585 118 585 c 0
 65 585 52 622 52 653 c 0
 52 682 65 717 118 717 c 0
EndSplineSet
EndChar

StartChar: j
Encoding: 106 106 75
Width: 238
VWidth: 1473
Flags: W
HStem: -303 106<-64.1462 44.7389> 586 133<66.0703 168.868>
VStem: 52 131<600.653 705.453> 66 106<-173.628 -68 466 489.488>
LayerCount: 2
Fore
SplineSet
-21 -303 m 0xd0
 95 -303 174 -245 172 -68 c 2
 172 466 l 2
 172 491 161 529 119 529 c 256
 77 529 66 489 66 466 c 2
 66 -68 l 2
 66 -165 58 -197 -21 -197 c 0
 -53 -197 -74 -221 -74 -250 c 0
 -74 -282 -50 -303 -21 -303 c 0xd0
118 719 m 0
 147 719 183 707 183 654 c 0
 183 612 159 586 118 586 c 0
 65 586 52 624 52 654 c 0xe0
 52 683 65 719 118 719 c 0
EndSplineSet
EndChar

StartChar: k
Encoding: 107 107 76
Width: 561
VWidth: 1473
Flags: W
HStem: -8 21G<97 126 482 509> 508 20G<508 526.5> 818 20G<97 139>
VStem: 65 495<464 497 57 476 349 828.108> 65 106<3.74185 57 57 237 349 828.108>
LayerCount: 2
Fore
SplineSet
510 528 m 0xe8
 543 528 560 497 560 476 c 0xf0
 560 464 554 451 542 439 c 1
 542 440 l 1
 537 435 524 427 502 416 c 2
 383 354 l 1
 502 253 548 78 548 46 c 0
 548 15 526 -8 492 -8 c 0
 472 -8 446 5 442 35 c 0
 408 208 311 290 289 305 c 1
 171 237 l 1
 171 59 l 2xe8
 171 1 134 -7 118 -7 c 0
 76 -7 65 28 65 57 c 2
 65 773 l 2xf0
 65 805 76 838 118 838 c 0
 160 838 171 803 171 773 c 2
 171 349 l 1
 352 442 l 2
 397 466 472 506 498 526 c 1
 502 527 506 528 510 528 c 0xe8
EndSplineSet
EndChar

StartChar: l
Encoding: 108 108 77
Width: 238
VWidth: 1473
Flags: W
HStem: -1 21G<99 128.175> 827 20G<99 141.4>
VStem: 66 106<8.9043 805.549 63 782 63 63>
LayerCount: 2
Fore
SplineSet
121 847 m 0
 161.8 847 172 804.175 172 782 c 2
 172 63 l 2
 172 5.80352 135.35 -1 121 -1 c 0
 77 -1 66 34.2203 66 63 c 2
 66 782 l 2
 66 812.018 77 847 121 847 c 0
EndSplineSet
EndChar

StartChar: m
Encoding: 109 109 78
Width: 932
VWidth: 1473
Flags: W
HStem: -1 21G<103 130.5 452.5 481.5 804.5 833.5> 433 102<218.958 371.434 568.78 720.697>
VStem: 63 106<10.9509 382.085 470 522.787> 414 108<10.2639 389.01> 766 106<10.5579 381.016>
LayerCount: 2
Fore
SplineSet
644 535 m 0
 826 535 872 419 872 286 c 2
 872 53 l 2
 872 22 848 -1 819 -1 c 0
 790 -1 765 26 766 53 c 2
 766 284 l 2
 766 399 717 433 644 433 c 0
 581 433 522 392 522 333 c 2
 522 53 l 2
 522 22 495 -1 468 -1 c 0
 437 -1 414 25 414 53 c 2
 414 333 l 2
 414 393 360 433 299 433 c 0
 195 433 167 361 169 284 c 2
 169 53 l 2
 169 22 145 -1 116 -1 c 0
 90 -1 63 24 63 53 c 2
 63 480 l 2
 63 509 90 535 116 535 c 0
 148 535 169 506 169 480 c 2
 169 470 l 1
 194 512 256 535 299 535 c 0
 377 535 433 503 470 454 c 1
 499 503 582 535 644 535 c 0
EndSplineSet
EndChar

StartChar: n
Encoding: 110 110 79
Width: 662
VWidth: 1473
Flags: W
HStem: -1 21G<107.5 135.5 530.5 558.5> 426 109<241.852 423.17>
VStem: 66 108<11.2739 359.515 463 520.92> 491 106<10.4629 358.487>
LayerCount: 2
Fore
SplineSet
333 535 m 0
 504 535 597 428 597 268 c 2
 597 53 l 2
 597 22 573 -1 544 -1 c 0
 517 -1 491 23 491 53 c 2
 491 268 l 2
 491 343 459 426 333 426 c 0
 227 426 174 372 174 264 c 2
 174 53 l 2
 174 22 150 -1 121 -1 c 0
 94 -1 66 23 66 53 c 2
 66 479 l 2
 66 507 93 533 119 533 c 0
 150 533 174 507 174 479 c 2
 174 463 l 1
 212 505 269 535 333 535 c 0
EndSplineSet
EndChar

StartChar: o
Encoding: 111 111 80
Width: 659
VWidth: 1473
Flags: W
HStem: 1 107<226.11 427.299> 429 106<225.998 427.598>
VStem: 50 103<179.713 357.469> 505 103<182.819 351.636>
LayerCount: 2
Fore
SplineSet
329 535 m 0
 523 535 608 395 608 268 c 0
 608 107 503 1 329 1 c 0
 158 1 50 102 50 268 c 0
 50 428 158 535 329 535 c 0
329 108 m 0
 470 108 505 195 505 268 c 0
 505 335 470 429 329 429 c 0
 188 429 153 346 153 268 c 0
 153 140 245 108 329 108 c 0
EndSplineSet
EndChar

StartChar: p
Encoding: 112 112 81
Width: 674
VWidth: 1473
Flags: W
HStem: -312 21G<104.5 132> -1 107<243.501 442.866> 421 109<242.752 440.127>
VStem: 63 109<-300.049 53 460 518.798> 516 107<175.361 346.436>
LayerCount: 2
Fore
SplineSet
343 530 m 0
 518 530 623 436 623 264 c 0
 623 94 520 -1 343 -1 c 0
 271 -1 212 21 172 53 c 1
 172 -258 l 2
 172 -290 146 -312 118 -312 c 0
 91 -312 62 -289 63 -258 c 2
 63 477 l 2
 63 506 90 532 116 532 c 0
 145 532 169 508 169 477 c 2
 169 460 l 1
 183 475 239 530 343 530 c 0
343 106 m 0
 481 106 516 188 516 264 c 0
 516 333 479 421 343 421 c 0
 205 421 175 336 171 273 c 0
 164 166 230 106 343 106 c 0
EndSplineSet
EndChar

StartChar: q
Encoding: 113 113 82
Width: 674
VWidth: 1473
Flags: W
HStem: -312 21G<533 568> -1 107<235.305 428.948> 421 109<232.218 424.483>
VStem: 49 107<180.764 347.786> 501 106<-278.258 53 178.424 348.979 467 477 477 520.963>
LayerCount: 2
Fore
SplineSet
555 532 m 0
 582 532 611 507 608 477 c 2
 607 -258 l 2
 607 -290 582 -312 554 -312 c 0
 512 -312 501 -278 501 -258 c 2
 501 53 l 1
 447 12 380 -1 329 -1 c 0
 166 -1 49 105 49 264 c 0
 49 424 158 530 329 530 c 0
 433 530 487 481 502 467 c 1
 502 477 l 2
 502 508 526 532 555 532 c 0
329 106 m 0
 435 106 501 155 501 273 c 0
 501 367 428 421 329 421 c 0
 224 421 156 363 156 264 c 0
 156 167 223 106 329 106 c 0
EndSplineSet
EndChar

StartChar: r
Encoding: 114 114 83
Width: 439
VWidth: 1473
Flags: W
HStem: -1 21G<95.5 123.5> 420 107<261.021 416.5>
VStem: 56 371<458 463 53 474 53 53> 56 106<10.4629 315.507 438 517.361>
LayerCount: 2
Fore
SplineSet
109 -1 m 0xd0
 82 -1 56 23 56 53 c 2
 56 463 l 2xe0
 56 526 97 527 109 527 c 0
 151 527 162 493 162 463 c 2
 162 438 l 1xd0
 198 485 258 527 342 527 c 2
 364 527 l 2
 393 527 427 516 427 474 c 0xe0
 427 458 420 420 364 420 c 2
 329 420 l 1
 263 410 162 375 162 196 c 2
 162 53 l 2
 162 22 138 -1 109 -1 c 0xd0
EndSplineSet
EndChar

StartChar: s
Encoding: 115 115 84
Width: 531
VWidth: 1473
Flags: W
HStem: -10 94<197.68 358.126> 438 97<188.043 349.651>
VStem: 63 109<351.632 420.47> 382 107<107.008 179.771>
LayerCount: 2
Back
SplineSet
489 417 m 4
 489 384 457 365 434 365 c 4
 414 365 394 374 385 387 c 4
 357 426 306 442 262 442 c 4
 223 442 172 427 172 389 c 4
 172 336 291 311 321 302 c 0
 486 254 489 181 489 142 c 0
 489 46 392 -18 263 -18 c 0
 116 -18 44 87 44 129 c 0
 44 148 55 183 97 183 c 0
 111 183 139 178 152 149 c 0
 169 108 221 76 277 76 c 0
 320 76 382 98 382 139 c 0
 382 204 223 226 164 250 c 0
 92 278 63 337 63 384 c 4
 63 477 160 539 278 539 c 4
 406 539 489 466 489 417 c 4
EndSplineSet
Fore
SplineSet
489 415 m 0
 489 382 457 363 434 363 c 0
 414 363 394 372 385 385 c 0
 357 424 306 438 262 438 c 0
 223 438 172 425 172 387 c 0
 172 334 291 311 321 302 c 0
 486 254 489 185 489 146 c 0
 489 50 392 -10 263 -10 c 0
 116 -10 44 91 44 133 c 0
 44 152 55 187 97 187 c 0
 111 187 139 182 152 153 c 0
 169 112 221 84 277 84 c 0
 320 84 382 102 382 143 c 0
 382 208 223 226 164 250 c 0
 92 278 63 335 63 382 c 0
 63 475 160 535 278 535 c 0
 406 535 489 464 489 415 c 0
EndSplineSet
EndChar

StartChar: t
Encoding: 116 116 85
Width: 409
VWidth: 1473
Flags: W
HStem: 0 108<210.703 394.745> 420 107<172 333.179> 812 20G<99 141.5>
VStem: 66 106<146.832 420 527 822.795> 66 339<44 98>
LayerCount: 2
Fore
SplineSet
342 108 m 2xf0
 368 108 405 98 405 53 c 0xe8
 405 40 399 0 342 0 c 2
 290 0 l 2
 185 0 66 44 66 220 c 2
 66 768 l 2
 66 800 77 832 121 832 c 0
 162 832 172 796 172 768 c 2
 172 527 l 1
 280 527 l 2
 308 527 343 516 343 473 c 0
 343 455 336 420 280 420 c 2
 172 420 l 1
 172 220 l 2
 172 130 230 108 290 108 c 2
 342 108 l 2xf0
EndSplineSet
EndChar

StartChar: u
Encoding: 117 117 86
Width: 658
VWidth: 1473
Flags: W
HStem: -7 109<237.819 427.311> 507 20G<103 132.5 526.5 554>
VStem: 63 106<168.078 515.779> 488 106<4.25201 56 161.863 515.921>
LayerCount: 2
Fore
SplineSet
541 527 m 0
 567 527 595 504 594 474 c 2
 594 49 l 2
 594 19 573 -6 541 -6 c 0
 513 -6 485 14 488 44 c 2
 488 56 l 1
 447 18 393 -7 329 -7 c 0
 116 -7 63 142 63 259 c 2
 63 474 l 2
 63 504 90 527 116 527 c 0
 149 527 169 506 169 474 c 2
 169 259 l 2
 169 184 201 102 329 102 c 0
 439 102 488 151 488 259 c 2
 488 474 l 2
 488 505 512 527 541 527 c 0
EndSplineSet
EndChar

StartChar: v
Encoding: 118 118 87
Width: 589
VWidth: 1473
Flags: W
HStem: -8 103<249.285 337.125> 507 20G<56.5 74.5 512 531.5>
LayerCount: 2
Fore
SplineSet
570 456 m 2
 451 109 l 2
 419 15 349 -8 293 -8 c 256
 199 -8 159 53 136 109 c 2
 16 456 l 2
 14 462 13 467 13 473 c 0
 13 508 45 527 68 527 c 0
 81 527 108 520 118 491 c 2
 234 149 l 2
 247 111 262 95 293 95 c 256
 328 95 342 117 352 149 c 2
 468 491 l 2
 479 520 506 527 518 527 c 0
 545 527 573 505 573 473 c 0
 573 467 572 462 570 456 c 2
EndSplineSet
EndChar

StartChar: w
Encoding: 119 119 88
Width: 880
VWidth: 1473
Flags: W
HStem: -7 109<197.095 348.649 529.435 691.716> 507 20G<73.5 101.5 425.5 455.5 776.5 804.5>
VStem: 35 106<161.75 516.229> 386 106<136.961 516.229> 738 106<152.84 516.229>
LayerCount: 2
Fore
SplineSet
791 527 m 0
 818 527 844 505 844 474 c 2
 844 255 l 2
 844 45 721 -7 608 -7 c 0
 507 -7 452 46 439 63 c 1
 396 14 322 -7 271 -7 c 0
 82 -7 35 127 35 259 c 2
 35 474 l 2
 35 505 59 527 88 527 c 0
 115 527 141 505 141 474 c 2
 141 255 l 2
 141 183 167 102 271 102 c 0
 328 102 386 131 386 193 c 2
 386 474 l 2
 386 505 412 527 439 527 c 0
 472 527 492 506 492 474 c 2
 492 193 l 2
 492 134 546 102 608 102 c 0
 686 102 738 130 738 259 c 2
 738 474 l 2
 738 505 762 527 791 527 c 0
EndSplineSet
EndChar

StartChar: x
Encoding: 120 120 89
Width: 573
VWidth: 1473
Flags: W
HStem: -4 21G<60.5 89 486.5 510> 224 84<266.475 303.965> 510 20G<55.5 90 492 512>
LayerCount: 2
Fore
SplineSet
496 530 m 0
 528 530 550 506 550 475 c 0
 550 463 546 452 539 442 c 2
 433 296 l 2
 426 287 402 268 380 265 c 1
 413 261 432 240 436 234 c 2
 541 84 l 2
 548 74 550 63 550 51 c 0
 550 16 523 -4 497 -4 c 0
 476 -4 461 6 452 19 c 2
 348 172 l 2
 322 210 318 224 286 224 c 0
 262 224 249 208 225 172 c 2
 119 19 l 2
 114 12 102 -4 76 -4 c 0
 45 -4 21 20 21 52 c 0
 21 63 24 74 31 84 c 2
 136 234 l 2
 149 253 172 265 192 265 c 1
 169 268 145 287 137 296 c 2
 32 442 l 2
 25 452 21 462 21 474 c 0
 21 494 33 531 78 531 c 0
 102 531 111 518 118 508 c 2
 249 326 l 2
 257 314 269 308 286 308 c 0
 301 308 313 314 322 325 c 2
 454 508 l 2
 469 529 488 530 496 530 c 0
EndSplineSet
EndChar

StartChar: y
Encoding: 121 121 90
Width: 602
VWidth: 1473
Flags: W
HStem: -284 107<206.105 385.237> -3 109<203.422 399.909> 513 20G<75 105 489 534.5>
VStem: 35 106<167.64 520.612> 460 106<-104.805 49 169.306 470 470 474 474 493.877>
LayerCount: 2
Fore
SplineSet
513 533 m 256
 556 533 567 495 567 478 c 0
 567 475 566 473 566 470 c 2
 566 -27 l 2
 566 -190 443 -284 300 -284 c 0
 167 -284 92 -210 92 -168 c 0
 92 -143 115 -114 145 -114 c 0
 155 -114 178 -117 192 -141 c 0
 200 -156 231 -177 300 -177 c 0
 352 -177 460 -153 460 -27 c 2
 460 49 l 1
 443 34 396 -3 301 -3 c 0
 88 -3 35 148 35 264 c 2
 35 479 l 2
 35 509 62 532 88 532 c 0
 122 532 141 508 141 479 c 2
 141 264 l 2
 141 152 191 106 301 106 c 0
 388 106 455 133 460 264 c 2
 460 470 l 2
 460 485 465 533 513 533 c 256
EndSplineSet
EndChar

StartChar: z
Encoding: 122 122 91
Width: 545
VWidth: 1473
Flags: W
HStem: -1 109<163.002 456.564> 418 109<85.4356 377.791>
VStem: 44 101<111.491 161.008> 398 100<367.175 413.783>
LayerCount: 2
Fore
SplineSet
145 138 m 0
 145 113 164 108 192 108 c 2
 432 108 l 2
 456 108 498 97 498 55 c 0
 498 39 490 -1 432 -1 c 2
 190 -1 l 2
 99 -1 44 61 44 142 c 0
 44 166 54 222 112 250 c 2
 368 355 l 2
 390 363 398 376 398 388 c 0
 398 412 376 418 351 418 c 2
 110 418 l 2
 86 418 44 429 44 471 c 0
 44 487 52 527 110 527 c 2
 352 527 l 2
 452 527 498 458 498 386 c 0
 498 361 489 308 430 278 c 2
 174 174 l 2
 154 166 145 151 145 138 c 0
EndSplineSet
EndChar

StartChar: braceleft
Encoding: 123 123 92
Width: 441
VWidth: 1473
Flags: W
VStem: 149 109<-26.5961 178.416 364.16 606.649>
LayerCount: 2
Fore
SplineSet
355 694 m 0
 355 635 258 650 258 530 c 2
 258 440 l 2
 258 369 225 320 178 290 c 1
 253 242 258 170 258 140 c 2
 258 52 l 2
 258 -72 353 -54 353 -112 c 0
 353 -144 324 -168 299 -168 c 0
 271 -168 238 -147 202 -106 c 0
 167 -68 149 -15 149 52 c 2
 149 140 l 2
 149 255 62 233 62 287 c 0
 62 350 149 324 149 440 c 2
 149 530 l 2
 149 597 167 650 202 688 c 0
 240 729 272 748 299 748 c 0
 330 748 355 718 355 694 c 0
EndSplineSet
EndChar

StartChar: bar
Encoding: 124 124 93
Width: 294
VWidth: 1473
Flags: W
HStem: 777 20G<126.6 170.2>
VStem: 93 109<-201.217 755.454 -146 731 -146 -146>
LayerCount: 2
Fore
SplineSet
149 797 m 0
 191.4 797 202 754.75 202 731 c 2
 202 -146 l 2
 202 -204.397 164.665 -211 149 -211 c 0
 104.2 -211 93 -176.55 93 -146 c 2
 93 731 l 2
 93 763 104.2 797 149 797 c 0
EndSplineSet
EndChar

StartChar: braceright
Encoding: 125 125 94
Width: 441
VWidth: 1473
Flags: W
VStem: 184 109<-28.8068 176.883 400.584 605>
LayerCount: 2
Fore
SplineSet
141 -172 m 0
 107 -172 87 -133 87 -113 c 0
 87 -96 99 -79 132 -59 c 0
 165 -39 184 -6 184 50 c 2
 184 138 l 2
 184 210 217 259 264 289 c 1
 189 337 184 409 184 439 c 2
 184 529 l 2
 184 649 87 636 87 692 c 0
 87 712 106 748 142 748 c 0
 159 748 180 740 204 720 c 0
 232 697 293 656 293 529 c 2
 293 439 l 2
 293 321 380 350 380 285 c 0
 380 255 347 251 311 210 c 0
 299 196 293 172 293 138 c 2
 293 50 l 2
 293 -66 241 -113 204 -143 c 0
 181 -161 160 -172 141 -172 c 0
EndSplineSet
EndChar

StartChar: asciitilde
Encoding: 126 126 95
Width: 636
VWidth: 1473
Flags: W
HStem: 158 229<157 460 157 157> 158 112<426.71 476.929> 269 118<134.357 239.424>
VStem: 44 109<185.073 262.369> 482 107<275.095 349.877>
LayerCount: 2
Fore
SplineSet
533 376 m 0x58
 553 376 584 373 589 323 c 0
 589 235 549 158 460 158 c 0x98
 434 158 407 165 379 178 c 2
 250 247 l 2
 238 255 213 269 190 269 c 0x38
 160 269 155 249 153 228 c 0
 153 203 135 175 100 175 c 0
 62 175 44 200 44 227 c 0
 44 363 112 387 157 387 c 0x98
 186 387 224 374 240 365 c 2
 374 296 l 2
 414 275 433 270 448 270 c 0
 474 270 482 291 482 323 c 0
 482 346 484 376 533 376 c 0x58
EndSplineSet
EndChar

StartChar: uni0E33.alt1
Encoding: 65539 -1 96
Width: 623
VWidth: 1473
Flags: W
HStem: 0 21G<493 514.5> 496 108<215.63 400.296> 698 84<-399.455 -280.849> 888 84<-399.854 -278.03>
VStem: -496 84<795.374 874.961> -268 84<795.02 876.371> 449 108<7.68356 447.372>
LayerCount: 2
Fore
SplineSet
40 439 m 0
 40 481 145 604 308 604 c 0
 448 604 557 516 557 383 c 2
 557 44 l 2
 557 9 525 -0 504 0 c 256
 482 0 449 9 449 43 c 2
 449 383 l 2
 449 428 429 496 308 496 c 0
 204 496 150 426 141 411 c 0
 132 396 119 391 105 391 c 0
 82 391 40 410 40 439 c 0
-340 972 m 0
 -243 972 -184 903 -184 835 c 0
 -184 752 -252 698 -340 698 c 0
 -430 698 -496 754 -496 835 c 0
 -496 906 -430 972 -340 972 c 0
-340 782 m 0
 -310 782 -268 793 -268 835 c 0
 -268 856 -277 888 -340 888 c 0
 -399 888 -412 856 -412 835 c 0
 -412 793 -369 782 -340 782 c 0
EndSplineSet
EndChar

StartChar: quotedbl
Encoding: 34 34 97
Width: 380
VWidth: 1473
Flags: W
HStem: 435 282<58.125 121.939 232.243 297.944>
VStem: 47 284<499 653 499 653 499 499> 47 109<445.25 706.492> 222 109<444.205 706.492>
LayerCount: 2
Fore
SplineSet
277 717 m 0x90
 320 717 331 679 331 653 c 2
 331 499 l 2xc0
 331 442 296 435 277 435 c 0
 233 435 222 467 222 499 c 2
 222 653 l 2
 222 685 233 717 277 717 c 0x90
103 717 m 0
 145 717 156 679 156 653 c 2
 156 499 l 2xa0
 156 441 118 435 103 435 c 0
 58 435 47 471 47 499 c 2
 47 653 l 2
 47 681 58 717 103 717 c 0
EndSplineSet
EndChar

StartChar: exclam
Encoding: 33 33 98
Width: 307
VWidth: 1473
Flags: W
HStem: -7 132<107.225 209.526>
VStem: 93 131<6.13086 110.908> 102 110<579.733 732.15> 116 81<203.52 332.267>
LayerCount: 2
Fore
SplineSet
158 738 m 0xa0
 178 738 212 736 212 688 c 2xa0
 197 224 l 2
 196 205 189 172 158 172 c 0
 141 172 121 176 116 224 c 2x90
 102 688 l 2
 102 736 136 738 158 738 c 0xa0
159 125 m 0
 200 125 224 99 224 57 c 0
 224 4 186 -7 159 -7 c 0
 106 -7 93 30 93 57 c 0xc0
 93 100 117 125 159 125 c 0
EndSplineSet
EndChar

StartChar: uni0E4E.alt1
Encoding: 65540 -1 99
Width: 0
VWidth: 1473
Flags: W
HStem: 664 61<-368.475 -294.354> 988 46<-268.706 -179.081 -194.422 -163.739>
VStem: -466 307<756 1001 807.578 838.261> -466 92<732.333 807.365> -371 80<886.121 964.63>
LayerCount: 2
Back
SplineSet
-189 1027 m 0
 -179.667 1025 -172.333 1021.5 -167 1016.5 c 128
 -161.667 1011.5 -158.833 1006.83 -158.5 1002.5 c 128
 -158.167 998.167 -159.833 994.5 -163.5 991.5 c 128
 -167.167 988.5 -174 987 -184 987 c 1
 -210.667 991 -235.5 986.167 -258.5 972.5 c 128
 -281.5 958.833 -292 940.667 -290 918 c 128
 -288 895.333 -273.333 882.667 -246 880 c 0
 -236 878 -230 873.167 -228 865.5 c 128
 -226 857.833 -225.667 852.667 -227 850 c 256
 -227.667 847.333 -229.333 843.667 -232 839 c 128
 -234.667 834.333 -241.667 831.667 -253 831 c 0
 -331 829.667 -371 807.667 -373 765 c 1
 -367.667 738.333 -349.833 725 -319.5 725 c 128
 -289.167 725 -269.667 728.333 -261 735 c 1
 -273 681 l 1
 -315.667 662.333 -356.667 659 -396 671 c 128
 -435.333 683 -458.667 711.333 -466 756 c 1
 -462 827.333 -420 864 -340 866 c 1
 -364.667 892 -374.333 919.833 -369 949.5 c 128
 -363.667 979.167 -344.833 1002.33 -312.5 1019 c 128
 -280.167 1035.67 -239 1038.33 -189 1027 c 0
EndSplineSet
Fore
SplineSet
-246 1034 m 0xc8
 -179 1034 -159 1014 -159 1001 c 0xe0
 -159 990 -171 987 -185 987 c 0
 -191 987 -197 988 -203 988 c 0
 -245 988 -291 963 -291 923 c 0
 -291 869 -236 891 -229 866 c 0
 -225 851 -227 833 -254 831 c 0
 -332 830 -374 807 -374 765 c 0xd8
 -374 738 -346 725 -321 725 c 0
 -290 725 -271 728 -262 735 c 1
 -273 681 l 1
 -299 670 -325 664 -350 664 c 0
 -376 664 -466 676 -466 756 c 0xe0
 -466 825 -421 864 -341 866 c 1
 -361 887 -371 910 -371 934 c 0
 -371 991 -317 1034 -246 1034 c 0xc8
EndSplineSet
EndChar

StartChar: exclamdown
Encoding: 161 161 100
Width: 307
VWidth: 1473
Flags: W
HStem: 399 133<107.225 209.868>
VStem: 93 131<413.092 518.453> 102 110<-208.15 -55.5> 116 81<192.5 347.405>
LayerCount: 2
Fore
SplineSet
158 -214 m 0xa0
 135 -214 102 -212 102 -164 c 2xa0
 116 301 l 2
 122 348 141 352 158 352 c 0
 186 352 196 326 197 301 c 2x90
 212 -164 l 2
 212 -212 177 -214 158 -214 c 0xa0
159 532 m 0
 188 532 224 520 224 467 c 0
 224 425 200 399 159 399 c 0
 117 399 93 424 93 467 c 0xc0
 93 495 106 532 159 532 c 0
EndSplineSet
EndChar

StartChar: cent
Encoding: 162 162 101
Width: 636
VWidth: 1473
Flags: W
HStem: 66 113<315.632 446.307> 442 299<432 522> 514 112<247.231 338.732 335.023 342.441>
VStem: 62 106<251.522 434.154>
LayerCount: 2
Fore
SplineSet
522 252 m 0xd0
 541 252 577 236 577 197 c 0
 577 139 465 66 353 66 c 0
 331 66 309 69 286 75 c 1
 253 -31 l 2
 249 -47 234 -52 226 -52 c 0
 209 -52 187 -38 193 -18 c 2
 227 91 l 1
 117 132 62 216 62 342 c 0
 62 540 208 626 330 626 c 0xb0
 345 626 359 624 373 622 c 1
 402 722 l 2
 405 732 417 741 432 741 c 0
 446 741 461 731 461 718 c 0
 461 715 461 712 460 709 c 2
 435 614 l 1
 529 592 577 529 577 495 c 0
 577 462 549 442 522 442 c 0
 472 442 491 484 405 507 c 1
 314 183 l 1
 328 180 341 179 354 179 c 0
 419 179 464 206 476 224 c 0
 490 249 513 252 522 252 c 0xd0
327 514 m 0
 265 514 168 477 168 342 c 0
 168 268 198 220 255 196 c 1
 343 513 l 1
 338 514 333 514 327 514 c 0
EndSplineSet
EndChar

StartChar: sterling
Encoding: 163 163 102
Width: 586
VWidth: 1473
Flags: W
HStem: -2 102<283.148 491.074> 29 92<193.511 336.055> 330 57<69 130 249 327> 644 90<216.323 363.395>
VStem: 64 105<470.768 598.704> 168 91<199.842 308.528> 432 104<496 565.488>
LayerCount: 2
Fore
SplineSet
168 283 m 0x76
 168 301 164 317 159 330 c 1
 69 330 l 1
 49 387 l 1
 130 387 l 1
 125 401 64 470 64 542 c 0
 64 657 177 734 298 734 c 0
 488 734 535 573 536 496 c 1
 432 496 l 1
 429 526 404 644 292 644 c 0
 232 644 169 608 169 536 c 0x7a
 169 483 213 447 234 387 c 1
 327 387 l 1
 348 330 l 1
 249 330 l 1
 256 309 259 289 259 272 c 0
 259 204 224 160 165 103 c 1
 201 118 244 121 263 121 c 0x76
 340 121 353 100 402 100 c 0
 443 100 482 116 508 130 c 1
 550 41 l 1
 516 27 472 -2 400 -2 c 0xb6
 343 -2 281 29 210 29 c 0
 167 29 132 14 103 -1 c 1
 50 97 l 1
 75 120 168 177 168 283 c 0x76
EndSplineSet
EndChar

StartChar: currency
Encoding: 164 164 103
Width: 715
VWidth: 1473
Flags: W
HStem: 85 95<278.51 441.801> 488 97<278.605 440.003>
VStem: 108 98<251.199 396.14> 514 99<275.18 413.953>
LayerCount: 2
Fore
SplineSet
566 476 m 1
 608 413 613 383 613 337 c 0
 613 323 614 264 563 194 c 1
 597 161 l 2
 607 151 612 141 612 131 c 0
 612 102 586 85 561 85 c 0
 550 85 540 89 530 99 c 2
 495 133 l 1
 459 105 423 85 358 85 c 0
 302 85 264 97 218 134 c 1
 183 99 l 2
 173 89 164 85 154 85 c 0
 119 85 103 122 103 140 c 0
 103 149 106 157 113 165 c 2
 149 202 l 1
 115 249 108 279 108 331 c 0
 108 377 113 414 153 477 c 1
 113 517 l 2
 105 524 101 533 101 541 c 0
 101 549 107 568 118 580 c 0
 128 589 146 599 160 599 c 0
 168 599 176 595 184 588 c 2
 224 545 l 1
 261 572 296 585 358 585 c 0
 412 585 448 576 494 542 c 1
 532 582 l 2
 540 590 549 594 559 594 c 0
 568 594 588 590 600 579 c 0
 609 570 616 553 616 539 c 0
 616 529 612 520 603 513 c 2
 566 476 l 1
359 488 m 256
 267 488 206 419 206 333 c 256
 206 242 273 180 359 180 c 256
 451 180 514 246 514 333 c 256
 514 419 451 488 359 488 c 256
EndSplineSet
EndChar

StartChar: yen
Encoding: 165 165 104
Width: 562
VWidth: 1473
Flags: W
HStem: -4 21G<266 299.5> 156 68<71 222 343 492> 275 70<71 220 346 492> 704 20G<62.5 86.5 482.5 506.5>
VStem: 222 121<10.0614 156 224 275>
LayerCount: 2
Fore
SplineSet
489 724 m 0
 524 724 547 694 547 664 c 0
 547 652 544 641 536 631 c 2
 346 345 l 1
 492 345 l 1
 492 275 l 1
 343 275 l 1
 343 224 l 1
 492 224 l 1
 492 156 l 1
 343 156 l 1
 343 53 l 2
 343 19 316 -4 283 -4 c 0
 249 -4 222 22 222 53 c 2
 222 156 l 1
 71 156 l 1
 71 224 l 1
 222 224 l 1
 222 275 l 1
 71 275 l 1
 71 345 l 1
 220 345 l 1
 31 632 l 2
 25 642 23 653 23 664 c 0
 23 696 45 724 80 724 c 0
 93 724 116.937 718.307 134 691 c 2
 284 452 l 1
 436 692 l 2
 450 720 476 724 489 724 c 0
EndSplineSet
EndChar

StartChar: brokenbar
Encoding: 166 166 105
Width: 241
VWidth: 1473
Flags: W
VStem: 80 79<-224.449 186.838 351.551 761.816>
LayerCount: 2
Fore
SplineSet
80 703 m 2
 80 754.55 95.6 765 119 765 c 0
 143 765 159 756.6 159 703 c 2
 159 411 l 2
 159 358.6 143 348 119 348 c 0
 95.6 348 80 360.6 80 411 c 2
 80 703 l 2
80 128 m 2
 80 179.55 95.6 190 119 190 c 0
 143 190 159 182.6 159 128 c 2
 159 -165 l 2
 159 -217.4 143 -228 119 -228 c 0
 95.6 -228 80 -215.4 80 -165 c 2
 80 128 l 2
EndSplineSet
EndChar

StartChar: section
Encoding: 167 167 106
Width: 695
VWidth: 1473
Flags: W
HStem: -149 94<285.541 414.161> 529 21G<494 525.5> 691 100<299.235 423.469>
VStem: 95 105<326.695 429.294> 136 111<28.7192 108.192> 146 123<567.651 660.884> 441 114<-30.1062 82.1165> 457 109<540.38 655.535> 498 112<221.479 320.863>
LayerCount: 2
Fore
SplineSet
610 276 m 0xe480
 610 187 541 135 519 130 c 1
 543 98 555 66 555 33 c 0
 555 -70 456 -149 358 -149 c 0
 259.499 -149 136 -110.256 136 62 c 0
 136 99 161 119 193 119 c 256
 223 119 247 101 247 68 c 0xea
 247 38.031 248.592 -55 353 -55 c 0
 403 -55 441 -24 441 23 c 0
 441 60 421.303 86.6374 399 99 c 2
 178 224 l 2
 128 248 95 307 95 370 c 0xf2
 95 422 117 485 177 523 c 1
 155 551 146 581 146 612 c 0
 146 720 238 791 352 791 c 0
 465 791 566 709 566 586 c 0
 566 552 541 529 510 529 c 0
 478 529 457 552 457 580 c 0xe5
 457 674.23 395.829 691 357 691 c 0
 305 691 269 650 269 606 c 0
 269 560 304 543 336 524 c 2
 486 439 l 2
 521 420 610 381 610 276 c 0xe480
249 446 m 1
 210 434 200 398 200 375 c 0
 200 344 219 327 227 323 c 2
 448 202 l 1
 476 209 498 244 498 274 c 0xf080
 498 303 483.556 318.16 464 329 c 2
 249 446 l 1
EndSplineSet
EndChar

StartChar: dieresis
Encoding: 168 168 107
Width: 402
VWidth: 1473
Flags: W
HStem: 575 138<41.4121 144.854 259.109 360.854>
VStem: 22 142<593.731 693.064> 239 141<593.731 693.064>
LayerCount: 2
Fore
SplineSet
164 642 m 0
 164 605.631 135.61 575 96 575 c 0
 45.175 575 22 610.575 22 642 c 0
 22 682.336 52.316 713 96 713 c 0
 133.138 713 164 683.504 164 642 c 0
380 642 m 0
 380 605.631 351.61 575 312 575 c 0
 271.55 575 239 601.8 239 642 c 0
 239 680.95 268.2 713 312 713 c 0
 349.138 713 380 683.504 380 642 c 0
EndSplineSet
EndChar

StartChar: copyright
Encoding: 169 169 108
Width: 847
VWidth: 1473
Flags: W
HStem: -21 73<312.991 533.234> 125 69<385.626 509.557> 513 67<354.712 509.399> 666 68<313.112 530.219>
VStem: 43 73<250.036 469.547> 211 72<269.675 438.585> 729 69<248.126 467.364>
LayerCount: 2
Fore
SplineSet
43 359 m 0
 43 562 207 734 423 734 c 0
 614 734 798 584 798 359 c 0
 798 138 624 -21 423 -21 c 0
 200 -21 43 158 43 359 c 0
116 359 m 0
 116 200 239 52 423 52 c 0
 607 52 729 203 729 359 c 0
 729 534 584 666 423 666 c 0
 251 666 116 525 116 359 c 0
438 194 m 0
 416 194 283 208 283 355 c 0
 283 455 352 513 436 513 c 0
 476 513 512 496 544 463 c 0
 551 455 559 451 568 451 c 0
 586 451 604 465 604 489 c 0
 604 499 600 508 594 514 c 0
 551 560 491 580 436 580 c 0
 317 580 211 493 211 355 c 0
 211 217 319 125 435 125 c 0
 508 125 555 154 592 192 c 1
 600 198 602 216 602 218 c 0
 602 238 584 252 567 252 c 0
 559 252 550 248 544 240 c 1
 529 226 484 194 438 194 c 0
EndSplineSet
EndChar

StartChar: ordfeminine
Encoding: 170 170 109
Width: 431
VWidth: 1473
Flags: W
HStem: 271 59<121.642 289.562> 454 62<123.979 290.438> 526 21G<72.5 92> 558 67<108.263 293.961>
VStem: 35 65<351.637 430.629> 35 344<295 442 392 464 392 392> 312 67<353.619 429.414 480 537.677>
LayerCount: 2
Fore
SplineSet
197 625 m 0xf8
 357 625 379 546 379 464 c 2
 379 305 l 2xf4
 379 278 356 271 343 271 c 0
 328 271 311 281 314 302 c 1
 287 285 244 271 200 271 c 0
 118 271 35 295 35 392 c 0
 35 442 77 516 206 516 c 0
 247 516 300 502 315 480 c 1
 315 524 304 558 200 558 c 0
 122 558 104 526 80 526 c 0
 65 526 49 543 49 561 c 0
 49 599 136 625 197 625 c 0xf8
100 395 m 0xfa
 100 343 161 330 200 330 c 0
 250 330 312 345 312 390 c 0
 312 442.354 248.381 454 203 454 c 0
 162 454 103 438 100 395 c 0xfa
EndSplineSet
EndChar

StartChar: guillemotleft
Encoding: 171 171 110
Width: 578
VWidth: 1473
Flags: W
HStem: 38 459<201 228 209 209 209 209>
VStem: 45 452<269 445 269 269>
LayerCount: 2
Fore
SplineSet
209 497 m 0
 239 497 261 472 261 445 c 0
 261 435 259 426 253 418 c 2
 190 322 l 2
 174 296 163 279 158 268 c 1
 163 257 169 248 174 240 c 2
 253 118 l 2
 258 110 261 102 261 92 c 0
 261 52 228 38 209 38 c 0
 197 38 179.29 43.7309 166 65 c 2
 63 233 l 2
 54.4577 246.671 45 255 45 269 c 0
 45 274 49 284 56 296 c 2
 166 473 l 2
 180 495 201 497 209 497 c 0
445 497 m 0
 475 497 497 473 497 445 c 0
 497 423 490 424 451 359 c 2
 426 322 l 2
 410 296 399 279 393 268 c 1
 399 257 405 248 410 240 c 2
 451 177 l 2
 491 112 496 115 496 92 c 0
 496 49 461 38 445 38 c 0
 432 38 415.29 43.731 402 65 c 2
 298 233 l 2
 288 249 280 259 280 269 c 0
 280 275 284 284 292 296 c 2
 402 473 l 2
 414 495 437 497 445 497 c 0
EndSplineSet
EndChar

StartChar: logicalnot
Encoding: 172 172 111
Width: 855
VWidth: 1473
Flags: W
HStem: 82 354<670.252 760.821 94 717 772 772> 327 109<49.7562 659>
VStem: 659 113<94.2168 327>
LayerCount: 2
Fore
SplineSet
38 383 m 0x60
 38 416.071 59.8787 436 94 436 c 2
 772 436 l 1
 772 137 l 2
 772 108.199 749.163 82 717 82 c 0xa0
 686.944 82 659 103.166 659 137 c 2
 659 327 l 1
 94 327 l 2
 64.6 327 38 349.4 38 383 c 0x60
EndSplineSet
EndChar

StartChar: registered
Encoding: 174 174 112
Width: 782
VWidth: 1473
Flags: W
HStem: -19 71<276.709 500.197> 311 56<458 501.877> 524 65<308.964 488.292> 666 72<277.535 500.691>
VStem: 12 70<246.582 467.76> 208 63<147.54 488.263> 523 66<386.996 491.261> 697 72<247.267 473.916>
LayerCount: 2
Fore
SplineSet
390 738 m 256
 595 738 769 569 769 359 c 256
 769 151 599 -19 390 -19 c 256
 180 -19 12 150 12 359 c 0
 12 577 190 738 390 738 c 256
390 52 m 0
 548 52 697 175 697 359 c 0
 697 539 554 666 390 666 c 0
 213 666 82 524 82 359 c 0
 82 190 218 52 390 52 c 0
299 361 m 0
 299 372 309 388 334 388 c 0
 362 388 379 367 436 367 c 0
 475 367 523 381 523 438 c 0
 523 466 506 524 406 524 c 0
 290 524 271 474 271 418 c 2
 271 186 l 2
 271 156 259 146 242 146 c 0
 222 146 208 156 208 186 c 2
 208 445 l 2
 208 548 309 589 398 589 c 0
 473 589 589 560 589 442 c 0
 589 337 507 311 458 311 c 1
 513 276 573 196 573 165 c 0
 573 151 553 141 539 141 c 256
 522 141 514 156 510 165 c 1
 473 221 428 259 329 329 c 1
 307 338 299 350 299 361 c 0
EndSplineSet
EndChar

StartChar: macron
Encoding: 175 175 113
Width: 483
VWidth: 1473
Flags: W
HStem: 622 101<47.1735 432.654>
VStem: 37 405<631.313 712.874>
LayerCount: 2
Fore
SplineSet
442 672 m 0
 442 644.702 419.605 622 390 622 c 2
 88 622 l 2
 62.5732 619.324 37 642.877 37 672 c 256
 37 700.252 62.318 723 88 723 c 2
 390 723 l 2
 417.375 723 442 702.6 442 672 c 0
EndSplineSet
EndChar

StartChar: degree
Encoding: 176 176 114
Width: 318
VWidth: 1473
Flags: W
HStem: 466 63<108.306 207.892> 661 64<108.719 207.932>
VStem: 28 63<546.868 643.82> 224 63<545.699 644.749>
LayerCount: 2
Fore
SplineSet
158 466 m 256
 82 466 28 524 28 595 c 256
 28 669 84 725 158 725 c 256
 229 725 287 671 287 595 c 256
 287 520 228 466 158 466 c 256
158 661 m 256
 123 661 91 635 91 595 c 256
 91 555 123 529 158 529 c 256
 198 529 224 559 224 595 c 256
 224 635 194 661 158 661 c 256
EndSplineSet
EndChar

StartChar: plusminus
Encoding: 177 177 115
Width: 632
VWidth: 1473
Flags: W
HStem: 0 109<67.5428 556.674> 299 109<67.0557 259 370 561.944>
VStem: 259 111<158 299 408 521.912>
LayerCount: 2
Fore
SplineSet
507 408 m 2
 537 408 573 397 573 355 c 0
 573 337 566 299 507 299 c 2
 370 299 l 1
 370 214 l 2
 370 154 332 147 315 147 c 0
 270 147 259 186 259 214 c 2
 259 299 l 1
 122 299 l 2
 93 299 56 310 56 355 c 0
 56 397 92 408 122 408 c 2
 259 408 l 1
 259 498 l 2
 259 527 270 563 315 563 c 0
 359 563 370 521 370 498 c 2
 370 408 l 1
 507 408 l 2
502 109 m 2
 530 109 567 98 567 56 c 0
 567 36 559 -0 502 0 c 2
 122 0 l 2
 93 0 57 11 57 56 c 0
 57 98 95 109 122 109 c 2
 502 109 l 2
EndSplineSet
EndChar

StartChar: twosuperior
Encoding: 178 178 116
Width: 455
VWidth: 1473
Flags: W
HStem: 280 84<217 392.898> 631 84<172.742 287.006>
VStem: 59 339<286.318 358.809> 65 82<524.828 604.853> 307 83<529.818 610.232>
LayerCount: 2
Fore
SplineSet
358 364 m 2xd8
 386 364 398 341 398 321 c 0
 398 300 381 280 358 280 c 2
 103 280 l 2
 75 280 59 304 59 326 c 0xe0
 59 346 69 355 74 359 c 2
 280 526 l 2
 299 539 307 552 307 569 c 0
 307 600 273 631 236 631 c 0
 165 631 149 580 147 557 c 0
 146 536 127 519 107 519 c 0
 88 519 65 535 65 559 c 0
 65 588 81 715 236 715 c 0
 333 715 390 640 390 569 c 0
 390 518 368.174 484.625 339 461 c 2
 254 393 l 2
 240.167 381.798 228 372 217 364 c 1
 358 364 l 2xd8
EndSplineSet
EndChar

StartChar: threesuperior
Encoding: 179 179 117
Width: 412
VWidth: 1473
Flags: W
HStem: 274 77<156.641 272.078> 471 80<146.914 251.54> 636 79<165.544 260.633>
VStem: 55 88<366.078 448.792 560.959 624.698> 271 82<553.175 624.544> 289 75<367.009 463.107>
LayerCount: 2
Fore
SplineSet
353 594 m 0xf8
 353 563 333 528 305 516 c 1
 338 505 364 461 364 410 c 0
 364 328 294 274 214 274 c 0
 73 274 55 362 55 411 c 0
 55 437 72 454 97 454 c 0
 125 454 143 437 143 411 c 0
 143 363 185 351 215 351 c 0
 268 351 289 384 289 415 c 0xf4
 289 444 271 471 245 471 c 2
 183 471 l 2
 158 471 141 493 141 514 c 0
 141 536 164 551 183 551 c 2
 242 551 l 2
 247 551 271 560 271 587 c 0
 271 614 244 636 212 636 c 0
 189 636 151 634 146 598 c 0
 141 569 125 555 100 555 c 0
 74 555 57 572 57 598 c 0
 57 655 118 715 214 715 c 0
 326 715 353 621 353 594 c 0xf8
EndSplineSet
EndChar

StartChar: acute
Encoding: 180 180 118
Width: 372
VWidth: 1473
Flags: W
HStem: 588 149<192 206 206 206>
LayerCount: 2
Fore
SplineSet
206 737 m 1
 331 737 l 1
 192 588 l 1
 125 588 l 1
 206 737 l 1
EndSplineSet
EndChar

StartChar: mu
Encoding: 181 181 119
Width: 707
VWidth: 1473
Flags: W
HStem: -7 109<258.681 450.091> 507 20G<126.5 156.5 549.5 578.5>
VStem: 59 136<-212.74 -18.4363> 87 106<167.446 516.229> 87 79<-69.707 72> 511 106<4.252 56 160.984 259 259 516.685>
LayerCount: 2
Fore
SplineSet
352 -7 m 0xd4
 240 -7 181 51 165 72 c 1
 166 46 l 2xcc
 178 -100 195 -43 195 -143 c 0
 195 -191 182 -236 134 -236 c 0
 74 -236 59 -184 59 -140 c 0xe4
 59 -64.5244 87 -42 87 74 c 2xcc
 87 474 l 2
 87 505 113 527 140 527 c 0
 173 527 193 506 193 474 c 2
 193 259 l 2
 193 185 225 102 352 102 c 0
 461 102 511 149 511 259 c 2
 511 474 l 2
 511 505 535 527 564 527 c 0
 593 527 620 504 617 474 c 2
 617 49 l 2
 617 19 596 -6 564 -6 c 0
 545 -6 509 8 511 44 c 2
 511 56 l 1
 470 18 416 -7 352 -7 c 0xd4
EndSplineSet
EndChar

StartChar: paragraph
Encoding: 182 182 120
Width: 593
VWidth: 1473
Flags: W
HStem: 589 112<315 412.599>
VStem: 36.8202 471.18<348 482 589 604 482 589 490.758 490.758> 225 90<-191.737 277> 414 94<-226.135 589>
LayerCount: 2
Fore
SplineSet
408 701 m 2xb0
 439 701 508 679 508 589 c 2xc0
 508 -175 l 2
 508 -200 498 -234 460 -234 c 0
 432 -234 414 -220 414 -175 c 2
 414 589 l 1
 315 589 l 1
 315 -169 l 2
 315 -191 306 -225 270 -225 c 256
 234 -225 225 -191 225 -169 c 2
 225 277 l 1
 136 277 40 348 37 482 c 0
 32 604 132 701 250 701 c 2
 408 701 l 2xb0
EndSplineSet
EndChar

StartChar: periodcentered
Encoding: 183 183 121
Width: 338
VWidth: 1473
Flags: W
HStem: 253 190<109.898 229.132>
VStem: 74 191<287.919 407.4>
LayerCount: 2
Fore
SplineSet
169 443 m 0
 224.06 443 265 398.926 265 348 c 256
 265 295.981 224.464 253 169 253 c 0
 119.728 253 74 292.153 74 348 c 256
 74 402.237 119.586 443 169 443 c 0
EndSplineSet
EndChar

StartChar: cedilla
Encoding: 184 184 122
Width: 318
VWidth: 1473
Flags: W
HStem: -224 67<81.0497 168.649>
VStem: 180 99<-154.137 -95.4497>
LayerCount: 2
Fore
SplineSet
279 -118 m 0
 279 -164 237 -224 145 -224 c 0
 102 -224 67 -212 38 -197 c 1
 71 -136 l 1
 92 -153 129 -157 140 -157 c 0
 157 -157 180 -151 180 -125 c 0
 180 -97 158 -89 88 -84 c 1
 147 6 l 1
 234 6 l 1
 177 -47 l 1
 184 -46 191 -46 197 -46 c 0
 247 -46 279 -80 279 -118 c 0
EndSplineSet
EndChar

StartChar: onesuperior
Encoding: 185 185 123
Width: 355
VWidth: 1473
Flags: W
HStem: 271 437<187.266 240.785>
VStem: 53 194<605.04 662.695> 159 88<278.503 605>
LayerCount: 2
Fore
SplineSet
204 708 m 0xc0
 230 708 247 691 247 666 c 2
 247 315 l 2
 247 292 229 271 202 271 c 0
 182 271 159 293 159 315 c 2
 159 605 l 1xa0
 113 588 l 2
 107 585 102 584 96 584 c 0
 75 584 53 602 53 627 c 0
 53 643 63 659 84 667 c 2
 187 706 l 2
 192.676 708.179 198 708 204 708 c 0xc0
EndSplineSet
EndChar

StartChar: ordmasculine
Encoding: 186 186 124
Width: 433
VWidth: 1473
Flags: W
HStem: 275 80<158.179 279.864> 548 80<158.416 279.205>
VStem: 40 85<388.018 514.818> 312 84<387.558 514.794>
LayerCount: 2
Fore
SplineSet
217 628 m 0
 336 628 396 540 396 454 c 0
 396 324 289 275 217 275 c 0
 119 275 40 344 40 448 c 0
 40 548 116 628 217 628 c 0
218 355 m 0
 250 355 312 372 312 451 c 0
 312 485 293 548 218 548 c 0
 144 548 125 484 125 449 c 0
 125 371 192 355 218 355 c 0
EndSplineSet
EndChar

StartChar: guillemotright
Encoding: 187 187 125
Width: 576
VWidth: 1473
Flags: W
HStem: 38 459<343 369 361 361 361 361>
VStem: 73 452<270 444 444 444>
LayerCount: 2
Fore
SplineSet
361 38 m 0
 343 38 309 51 309 92 c 0
 309 117 330 133 386 227 c 2
 412 268 l 1
 317 418 l 2
 311 426 309 435 309 445 c 0
 309 473 331 497 361 497 c 0
 369 497 390 495 404 473 c 2
 514 296 l 2
 522 285 525 275 525 270 c 0
 525 254 510 239 486 200 c 2
 412 78 l 2
 400 57 392 38 361 38 c 0
74 93 m 0
 74 113 77 111 177 268 c 1
 81 418 l 2
 75.5536 426.387 73 435 73 444 c 0
 73 469 94 497 125 497 c 0
 133 497 156 495 168 473 c 2
 278 296 l 2
 286 284 290 275 290 269 c 0
 290 263 287 256 281 247 c 2
 176 78 l 2
 164 57 156 38 125 38 c 0
 108 38 74 49 74 93 c 0
EndSplineSet
EndChar

StartChar: onequarter
Encoding: 188 188 126
Width: 894
VWidth: 1473
Flags: W
HStem: 1 21G<747.5 770.5> 77 82<598 716 801 829.011>
VStem: 159 88<278.503 605> 719 82<8.20821 77 161 298>
LayerCount: 2
Fore
SplineSet
178 -15 m 1
 597 712 l 1
 684 712 l 1
 265 -15 l 1
 178 -15 l 1
759 439 m 0
 782 439 801 417 801 395 c 2
 801 161 l 1
 829 161 858 154 858 119 c 0
 858 104 849 77 801 77 c 1
 801 44 l 2
 801 22 781 1 760 1 c 0
 735 1 719 23 719 44 c 2
 719 77 l 1
 511 77 l 2
 489 77 475 98 475 119 c 0
 475 129 478 139 485 146 c 2
 722 421 l 2
 726 426 740 439 759 439 c 0
598 159 m 1
 716 159 l 1
 716 298 l 1
 598 159 l 1
204 708 m 0
 230 708 247 691 247 666 c 2
 247 315 l 2
 247 292 229 271 202 271 c 0
 182 271 159 293 159 315 c 2
 159 605 l 1
 113 588 l 2
 107 585 102 584 96 584 c 0
 75 584 53 602 53 627 c 0
 53 643 63 659 84 667 c 2
 187 706 l 2
 193 708 198 708 204 708 c 0
EndSplineSet
LCarets2: 2 0 0 
Ligature2: "'frac' Diagonal Fractions in Latin lookup 0 subtable" one fraction four
Ligature2: "'frac' Diagonal Fractions in Latin lookup 0 subtable" one slash four
EndChar

StartChar: onehalf
Encoding: 189 189 127
Width: 875
VWidth: 1473
Flags: W
HStem: 0 84<648 823.473> 351 84<605.647 718.728> 696 20G<538.457 638>
VStem: 144 84<272.857 600> 496 83<245.169 325.015> 738 83<260.699 330.375>
LayerCount: 2
Fore
SplineSet
131 -10 m 1
 550 716 l 1
 638 716 l 1
 218 -10 l 1
 131 -10 l 1
191 702 m 0
 221 702 228 677 228 660 c 2
 228 309 l 2
 228 286 210 265 189 265 c 256
 166 265 144 288 144 309 c 2
 144 600 l 1
 96 582 l 2
 91 580 85 578 80 578 c 0
 55 578 39 603 39 622 c 0
 39 646 59 658 66 661 c 2
 174 700 l 2
 179.713 702.079 186 702 191 702 c 0
790 84 m 2
 822 84 829 55 829 42 c 0
 829 22 813 -0 790 0 c 2
 535 0 l 2
 507 0 491 24 491 46 c 0
 491 79 507 78 592 150 c 2
 712 246 l 2
 731 259 738 272 738 290 c 0
 738 319 706 351 667 351 c 0
 597 351 581 299 579 277 c 0
 576 256 559 239 538 239 c 0
 519 239 496 256 496 281 c 0
 496 321 521 435 667 435 c 0
 766 435 821 360 821 290 c 0
 821 209 770 183 725 146 c 0
 710 133 672 102 648 84 c 1
 790 84 l 2
EndSplineSet
LCarets2: 2 0 0 
Ligature2: "'frac' Diagonal Fractions in Latin lookup 0 subtable" one fraction two
Ligature2: "'frac' Diagonal Fractions in Latin lookup 0 subtable" one slash two
EndChar

StartChar: threequarters
Encoding: 190 190 128
Width: 900
VWidth: 1473
Flags: W
HStem: 1 21G<747.5 770.5> 77 82<598 716 801 850.86> 274 77<148.892 264.839> 461 80<140.287 241.63> 638 77<144.707 251.722>
VStem: 47 89<366.938 448.299 561.468 627.337> 263 81<544.636 625.284> 282 75<367.331 443.69> 719 82<8.20821 77 161 298>
LayerCount: 2
Fore
SplineSet
303 -13 m 1xfc80
 725 713 l 1
 636 713 l 1
 217 -13 l 1
 303 -13 l 1xfc80
758 439 m 0
 781 439 801 418 801 395 c 2
 801 161 l 1
 835 161 857 152 857 118 c 0
 857 102 844 77 801 77 c 1
 801 44 l 2
 801 22 781 1 760 1 c 0
 735 1 719 23 719 44 c 2
 719 77 l 1
 512 77 l 0
 489 77 475 98 475 119 c 0
 475 129 478 139 485 146 c 2
 722 421 l 1
 724 427 740 439 758 439 c 0
598 159 m 1
 716 159 l 1
 716 298 l 1
 598 159 l 1
344 593 m 0xfe80
 344 558 326 518 298 505 c 1
 325 497 357 466 357 410 c 0
 357 338 295 274 206 274 c 0
 65 274 47 364 47 411 c 0
 47 437 64 454 90 454 c 0
 118 454 136 436 136 411 c 0
 136 363 176 351 208 351 c 0
 264 351 282 388 282 413 c 0xfd80
 282 422 278 461 237 461 c 2
 175 461 l 2
 150 461 134 485 134 504 c 0
 134 526 159 541 175 541 c 2
 234 541 l 2
 240 541 263 557 263 586 c 0
 263 618 233 638 205 638 c 0
 166 638 142 627 138 598 c 0
 133 569 118 555 93 555 c 0
 67 555 50 572 50 598 c 0
 50 655 110 715 206 715 c 0
 294 715 344 654 344 593 c 0xfe80
EndSplineSet
LCarets2: 2 0 0 
Ligature2: "'frac' Diagonal Fractions in Latin lookup 0 subtable" three fraction four
Ligature2: "'frac' Diagonal Fractions in Latin lookup 0 subtable" three slash four
EndChar

StartChar: questiondown
Encoding: 191 191 129
Width: 683
VWidth: 1473
Flags: W
HStem: -225 107<239.281 401.656> 398 144<355.875 463.25>
VStem: 72 109<-65.5272 67.1504> 334 151<419.375 520.25> 355 109<240.195 317.117>
LayerCount: 2
Fore
SplineSet
333 -225 m 0xe8
 131 -225 72 -94 72 4 c 256
 72 186 248 210 299 222 c 0
 309.181 224.036 355 235.6 355 290 c 0
 355 312 358 349 410 349 c 0
 427 349 462 346 464 284 c 0
 464 208 433 178 377 143 c 0
 306 98 181 122 181 4 c 0
 181 -94 267 -118 330 -118 c 0
 398 -118 459 -83 499 -38 c 0
 502 -35 516 -21 541 -21 c 0
 574 -21 596 -49 596 -79 c 0
 596 -93 591 -105 580 -115 c 0
 476 -223 367 -225 333 -225 c 0xe8
410 398 m 256
 367 398 334 431 334 470 c 256
 334 508 367 542 410 542 c 256
 452 542 485 508 485 470 c 256xf0
 485 431 452 398 410 398 c 256
EndSplineSet
EndChar

StartChar: Aring
Encoding: 197 197 134
Width: 736
VWidth: 1473
Flags: W
HStem: 0 21G<107.5 124 612 630.5> 302 109<169 564> 617 103<256.976 477.566> 772 53<332.956 405.351> 909 54<332.96 406.206>
VStem: 60 109<10.875 302 411 532.688> 274 53<830.635 903.076> 411 55<830.754 904.342> 564 109<11.3659 302 411 531.204>
LayerCount: 2
Fore
SplineSet
370 772 m 256
 314 772 274 816 274 868 c 256
 274 919 315 963 370 963 c 256
 425 963 466 919 466 868 c 256
 466 812 422 772 370 772 c 256
370 909 m 256
 345 909 327 890 327 868 c 256
 327 842 347 825 370 825 c 256
 392 825 411 843 411 868 c 256
 411 892 392 909 370 909 c 256
368 720 m 0
 612 720 673 569 673 438 c 2
 673 66 l 2
 673 10 641 -0 620 0 c 0
 604 0 564 6 564 66 c 2
 564 302 l 1
 169 302 l 1
 169 66 l 2
 169 7 133 -0 115 0 c 0
 100 0 60 6 60 66 c 2
 60 433 l 2
 60 563 122 720 368 720 c 0
368 617 m 0
 212 617 169 532 169 442 c 2
 169 411 l 1
 566 411 l 1
 566 442 l 2
 566 532 520 617 368 617 c 0
EndSplineSet
EndChar

StartChar: AE
Encoding: 198 198 135
Width: 1231
VWidth: 1473
Flags: W
HStem: -3 106<789.346 1013.16> 302 109<169 564 673 992.125> 617 103<256.976 478.216 783.482 1004.53>
VStem: 60 109<10.875 302 411 532.688> 564 109<11.3659 97 202.788 302 412 529.791>
LayerCount: 2
Fore
SplineSet
368 617 m 0
 212 617 169 532 169 442 c 2
 169 411 l 1
 566 411 l 1
 566 442 l 2
 566 532 520 617 368 617 c 0
1131 198 m 0
 1156 198 1182 179 1182 152 c 0
 1182 87 1074 -3 885 -3 c 0
 804 -3 697 45 673 97 c 1
 673 66 l 2
 673 10 641 -0 620 0 c 0
 604 0 564 6 564 66 c 2
 564 302 l 1
 169 302 l 1
 169 66 l 2
 169 7 133 -0 115 0 c 0
 100 0 60 6 60 66 c 2
 60 433 l 2
 60 563 122 720 368 720 c 0
 489 720 572 682 622 616 c 1
 683 694 789 723 885 723 c 0
 1072 723 1182 629 1182 564 c 0
 1182 536 1156 519 1131 519 c 0
 1114 519 1096 526 1080 545 c 0
 1060 572 1008 613 885 613 c 0
 794 613 673 571 673 460 c 2
 673 412 l 1
 937 411 l 2
 968 411 1003 400 1003 358 c 0
 1003 340 996 302 937 302 c 2
 673 302 l 1
 673 273 l 2
 678 160 799 103 885 103 c 0
 1008 103 1060 144 1080 171 c 0
 1096 190 1114 198 1131 198 c 0
EndSplineSet
EndChar

StartChar: Eth
Encoding: 208 208 145
Width: 769
VWidth: 1473
Flags: W
HStem: 0 109<200.017 440.346> 331 90<0 90 199 359> 610 110<201.877 444.843>
VStem: 90 109<112.135 331 421 605.815> 604 108<263.068 462.684>
LayerCount: 2
Fore
SplineSet
315 720 m 2
 566 720 712 563 712 347 c 0
 712 147 551 0 317 0 c 2
 228 0 l 2
 162 1 90 48 90 141 c 2
 90 331 l 1
 0 331 l 1
 0 421 l 1
 90 421 l 1
 90 579 l 2
 90 664 153 720 230 720 c 2
 315 720 l 2
604 364 m 0
 604 484 519 610 318 610 c 2
 230 610 l 2
 209 610 199 600 199 580 c 2
 199 421 l 1
 359 421 l 1
 359 331 l 1
 199 331 l 1
 199 138 l 2
 199 119 209 109 230 109 c 2
 318 109 l 2
 550 109 604 275 604 364 c 0
EndSplineSet
EndChar

StartChar: multiply
Encoding: 215 215 152
Width: 677
VWidth: 1473
Flags: W
HStem: 22 469<509 540 519 520 519 519>
VStem: 103 469<49 83 73 75 73 73>
LayerCount: 2
Fore
SplineSet
519 491 m 0
 540 491 571 469 571 434 c 0
 571 420 563 405 547 389 c 2
 414 255 l 1
 547 122 l 2
 564 107 572 92 572 75 c 0
 572 48 545 22 520 22 c 0
 504 22 485 31 470 46 c 2
 337 177 l 1
 205 46 l 2
 190 31 171 22 155 22 c 0
 129 22 103 49 103 73 c 0
 103 83 107 102 128 122 c 2
 261 255 l 1
 130 386 l 2
 114 402 106 417 106 431 c 0
 106 467 137 488 157 488 c 0
 167 488 186 484 206 463 c 2
 337 331 l 1
 470 466 l 2
 490 487 509 491 519 491 c 0
EndSplineSet
EndChar

StartChar: Oslash
Encoding: 216 216 153
Width: 798
VWidth: 1473
Flags: W
HStem: -8 113<351.083 499.348> 607 112<303.41 465.45>
VStem: 46 109<251.185 457.922> 641 110<255.016 461.171>
LayerCount: 2
Fore
SplineSet
647 787 m 0
 672 787 690 765 690 742 c 0
 690 734 688 727 684 720 c 2
 626 636 l 1
 709 553 751 467 751 355 c 0
 751 152 590 -8 397 -8 c 0
 352 -8 300 0 247 28 c 1
 192 -57 l 2
 183 -69 170 -77 155 -77 c 0
 133 -77 116 -57 116 -37 c 0
 116 -29 119 -22 124 -15 c 2
 174 74 l 1
 89 145 46 249 46 354 c 0
 46 545 187 719 400 719 c 0
 463 719 516 703 558 682 c 1
 610 765 l 2
 621 785 640 787 647 787 c 0
397 607 m 0
 272 607 155 503 155 356 c 0
 155 231 235 173 237 168 c 1
 495 585 l 1
 469 598 436 607 397 607 c 0
399 105 m 0
 556 105 641 236 641 356 c 0
 641 433 610 496 567 538 c 1
 305 121 l 1
 335 110 366 105 399 105 c 0
EndSplineSet
EndChar

StartChar: Thorn
Encoding: 222 222 159
Width: 698
VWidth: 1473
Flags: W
HStem: 138 86<199 480.542> 517 102<199 484.064>
VStem: 90 109<-14.928 138 224 517 619 726.631> 539 106<283.191 458.162>
LayerCount: 2
Fore
SplineSet
146 737 m 256
 157 737 199 730 199 691 c 2
 199 619 l 1
 395 619 l 2
 503 619 645 570 645 374 c 0
 645 217 526 138 411 138 c 2
 199 138 l 1
 199 21 l 2
 199 -18 156 -25 146 -25 c 256
 134 -25 90 -17 90 21 c 2
 90 691 l 2
 90 729 135 737 146 737 c 256
539 367 m 0
 539 493 462 517 410 517 c 2
 199 517 l 1
 199 224 l 1
 410 224 l 2
 458 224 539 255 539 367 c 0
EndSplineSet
EndChar

StartChar: uni00DF
Encoding: 223 223 160
Width: 671
VWidth: 1473
Flags: W
HStem: 3 99<275.801 407.11> 415 93<258 393.619> 657 80<238.189 382.592>
VStem: 91 96<6.54102 604.67> 414 102<551.518 627.216> 482 101<170.472 334.325>
LayerCount: 2
Fore
SplineSet
313 657 m 0xf8
 230 657 187 600 187 524 c 2
 187 47 l 2
 187 18 167 -1 138 -1 c 256
 112 -1 91 19 91 47 c 2
 91 532 l 2
 91 665 180 737 302 737 c 0
 463 737 516 636 516 569 c 0xf8
 516 548 511 495 457 463 c 1
 566 415 583 299 583 256 c 0
 583 104 469 5 334 3 c 2
 298 3 l 2
 276 3 239 13 239 52 c 0
 239 82 270 100 293 102 c 2
 323 102 l 2
 417 106 482 159 482 252 c 0xf4
 482 367 385 415 323 415 c 2
 258 415 l 1
 258 508 l 1
 331 508 l 2
 407 508 414 563 414 578 c 0
 414 630 362 657 313 657 c 0xf8
EndSplineSet
EndChar

StartChar: ae
Encoding: 230 230 167
Width: 1087
VWidth: 1473
Flags: W
HStem: -12 92<203.707 426.726 681.251 873.899> 221 102<607 934.926> 274 93<209.093 422.577> 442 96<194.015 421.908 684.999 842.348>
VStem: 480 120<154.677 219.507>
LayerCount: 2
Fore
SplineSet
550 436 m 1xb8
 602 505 684 538 773 538 c 0
 875 538 1037 490 1037 319 c 0
 1037 298 1032 245 990 230 c 0
 972 224 952 221 931 221 c 2
 600 221 l 1xd8
 603 129 695 85 773 85 c 0
 912 85 906 160 961 160 c 0
 977 160 1006 149 1006 108 c 0
 1006 90 1001 76 990 65 c 0
 919 3 852 -13 773 -13 c 0
 687 -13 599 17 545 85 c 1
 495 22 412 -12 302 -12 c 0
 158 -12 46 42 46 177 c 0
 46 291 165 367 315 367 c 0
 399 367 464 328 491 306 c 1
 491 309 l 2
 482 380 451 442 303 442 c 0
 196 442 148 388 115 388 c 0
 99 388 71 405 71 433 c 0
 71 493 193 538 302 538 c 0
 413 538 492 509 550 436 c 1xb8
152 183 m 0
 158 109 225 80 306 80 c 0
 410 80 480 118 480 174 c 0
 480 257 386 274 311 274 c 0xb8
 239 274 155 242 152 183 c 0
935 323 m 1xd8
 909 442 802 442 776 442 c 0
 668 442 607 368 607 323 c 1
 935 323 l 1xd8
EndSplineSet
EndChar

StartChar: eth
Encoding: 240 240 177
Width: 696
VWidth: 1473
Flags: W
HStem: 1 111<238.432 429.882> 436 108<240.694 430.382> 772 20G<326.5 341.5>
VStem: 47 106<196.253 353.101> 510 109<11.1184 56 189.372 363.014>
LayerCount: 2
Fore
SplineSet
47 274 m 0
 47 416 161 544 331 544 c 0
 391 544 459 534 510 489 c 1
 499 542 468 587 446 613 c 1
 373 583 l 1
 330 632 l 1
 396 663 l 1
 360 685 349 699 326 709 c 256
 305 717 296 733 296 748 c 0
 296 770 315 792 338 792 c 0
 345 792 369 788 376 784 c 0
 426 760 482 712 492 703 c 1
 564 734 l 1
 613 679 l 1
 538 648 l 1
 571 602 619 503 619 359 c 2
 619 55 l 2
 619 22 592 -1 563 -1 c 256
 533 -1 510 22 510 50 c 2
 510 56 l 1
 457 12 384 1 331 1 c 0
 155 1 47 118 47 274 c 0
331 112 m 0
 472 112 507 204 507 277 c 0
 507 404 408 436 331 436 c 0
 235 436 153 371 153 274 c 256
 153 196 213 112 331 112 c 0
EndSplineSet
EndChar

StartChar: divide
Encoding: 247 247 184
Width: 738
VWidth: 1473
Flags: W
HStem: 6 141<308.248 408.022> 194 121<55.4814 100 633 677.856> 368 140<308.248 407.659>
VStem: 287 140<26.9372 126.2 389.186 487.2>
LayerCount: 2
Fore
SplineSet
41 255 m 256
 41 220 70 194 100 194 c 2
 633 194 l 2
 668 194 691 221 691 255 c 256
 691 290 668 315 633 315 c 2
 100 315 l 2
 65 315 41 287 41 255 c 256
427 438 m 0
 427 398 395 368 359 368 c 256
 321 368 287 400 287 438 c 0
 287 479 323 508 359 508 c 256
 396 508 427 479 427 438 c 0
427 77 m 256
 427 35 396 6 359 6 c 256
 322 6 287 35 287 77 c 256
 287 118 323 147 359 147 c 256
 396 147 427 118 427 77 c 256
EndSplineSet
EndChar

StartChar: oslash
Encoding: 248 248 185
Width: 649
VWidth: 1473
Flags: W
HStem: -19 84<284.318 404.559> 463 88<235.967 364.312> 579 20G<514 525.5>
VStem: 46 85<172.441 357.058> 516 85<176.774 354.49>
LayerCount: 2
Fore
SplineSet
327 551 m 0
 364 551 407 543 448 519 c 1
 491 583 l 2
 500 594 510 599 518 599 c 0
 533 599 552 580 552 561 c 0
 552 556 551 551 548 547 c 2
 507 480 l 1
 547 440 601 376 601 267 c 0
 601 94 471 -19 323 -19 c 0
 283 -19 236 -11 190 15 c 1
 146 -52 l 2
 140 -61 129 -67 119 -67 c 0
 104 -67 87 -52 87 -34 c 0
 87 -28 89 -21 93 -15 c 2
 137 53 l 1
 75 112 46 195 46 270 c 0
 46 433 182 551 327 551 c 0
325 463 m 0
 210 463 131 369 131 267 c 0
 131 212 149 165 184 128 c 1
 402 446 l 1
 378 457 352 463 325 463 c 0
321 65 m 0
 419 65 516 152 516 265 c 0
 516 326 490 376 454 408 c 1
 242 87 l 1
 267 72 293 65 321 65 c 0
EndSplineSet
EndChar

StartChar: thorn
Encoding: 254 254 191
Width: 674
VWidth: 1473
Flags: W
HStem: -16 101<265.026 441.638> 430 109<272.83 437.849>
VStem: 91 94<165.606 344.841> 91 109<-236.629 32 482 746.891> 522 104<170.617 343.918>
LayerCount: 2
Fore
SplineSet
348 -16 m 0xd8
 259 -16 202 31 200 32 c 1
 200 -190 l 2
 200 -222 179 -247 146 -247 c 0
 102 -247 91 -214 91 -184 c 2
 91 692 l 2
 91 723 102 757 146 757 c 0
 189 757 200 721 200 692 c 2
 200 482 l 1
 236 508 294 539 357 539 c 0
 518 539 626 410 626 253 c 0
 626 145 551 -16 348 -16 c 0xd8
185 257 m 0xe8
 185 149 254 85 358 85 c 0
 461 85 522 159 522 270 c 0
 522 337 462 430 364 430 c 0
 284 430 185 382 185 257 c 0xe8
EndSplineSet
EndChar

StartChar: Lslash
Encoding: 321 321 193
Width: 701
VWidth: 1473
Flags: W
HStem: -1 109<209.261 653.559> 697 20G<129.5 174>
VStem: 94 111<121.316 323 467 704.008>
LayerCount: 2
Fore
SplineSet
601 108 m 2
 637 108 664 91 664 55 c 0
 664 36 655 -1 601 -1 c 2
 234 -1 l 2
 122 -1 94 74.8484 94 141 c 2
 94 323 l 1
 4 265 l 1
 4 342 l 1
 94 399 l 1
 94 651 l 2
 94 677 106 717 153 717 c 0
 195 717 205 680 205 651 c 2
 205 467 l 1
 289 517 l 1
 289 440 l 1
 205 390 l 1
 205 138 l 2
 205 123 211 108 234 108 c 2
 601 108 l 2
EndSplineSet
EndChar

StartChar: lslash
Encoding: 322 322 194
Width: 296
VWidth: 1473
Flags: W
HStem: -1 21G<130.688 151.52> 818 20G<127.8 160.5>
VStem: 12 268<255 569 -113 -91> 90 109<10.3016 329 404 426 501 828.684>
LayerCount: 2
Fore
SplineSet
144 838 m 0xd0
 177 838 199 821.362 199 772 c 2
 199 501 l 1xd0
 280 569 l 1
 280 495 l 1xe0
 199 426 l 1
 199 65 l 2
 199 5.30352 159.039 -1 144 -1 c 0
 117.375 -1 90 7.1375 90 65 c 2
 90 329 l 1xd0
 12 255 l 1
 12 331 l 1xe0
 90 404 l 1
 90 772 l 2
 90 823.028 111.6 838 144 838 c 0xd0
EndSplineSet
EndChar

StartChar: OE
Encoding: 338 338 195
Width: 1311
VWidth: 1473
Flags: W
HStem: -9 112<300.14 491.307 821.72 1088.91> 302 110<750 1068.25> 607 112<298.105 492.77 821.55 1096.07>
VStem: 41 112<254.383 456.042> 639 111<253.947 302 412 456.053>
LayerCount: 2
Fore
SplineSet
1259 149 m 0
 1259 88 1148 -7 962 -7 c 0
 829 -7 717 31 667 121 c 1
 610 51 517 -9 396 -9 c 0
 203 -9 41 157 41 355 c 0
 41 549 200 719 396 719 c 0
 514 719 607 659 664 591 c 1
 713 682 828 723 962 723 c 0
 1150 723 1259 627 1259 566 c 0
 1259 537 1233 518 1207 518 c 0
 1187 518 1168 531 1156 545 c 0
 1136 572 1083 613 962 613 c 0
 863 613 750 591 750 482 c 2
 750 412 l 1
 1014 411 l 2
 1045 411 1080 400 1080 358 c 0
 1080 342 1072 302 1014 302 c 2
 750 302 l 1
 750 236 l 2
 750 130 837 103 962 103 c 0
 1083 103 1136 144 1156 171 c 0
 1171 190 1190 197 1208 197 c 0
 1235 197 1259 178 1259 149 c 0
396 103 m 0
 532 103 639 222 639 355 c 256
 639 488 532 607 396 607 c 0
 265 607 153 497 153 355 c 0
 153 205 272 103 396 103 c 0
EndSplineSet
EndChar

StartChar: oe
Encoding: 339 339 196
Width: 1113
VWidth: 1473
Flags: W
HStem: -15 100<702.584 903.586> -10 107<233.778 427.699> 220 100<631 962> 426 109<232.779 425.494> 439 97<708.745 897.979>
VStem: 44 103<182.554 346.211>
LayerCount: 2
Fore
SplineSet
566 423 m 1x74
 594 463 660 536 800 536 c 0
 998 536 1062 399 1062 321 c 0
 1062 285 1050 220 958 220 c 2
 623 220 l 1
 636 136 702 85 798 85 c 0
 937 85 938 157 986 157 c 0
 1000 157 1030 143 1030 101 c 0
 1030 85 1024 72 1012 62 c 0
 943 0 873 -15 800 -15 c 0xac
 696 -15 616 21 561 94 c 1
 532 54 468 -10 329 -10 c 0
 151 -10 44 120 44 262 c 0
 44 439 165 535 329 535 c 0
 435 535 517 498 566 423 c 1x74
329 97 m 0x74
 481 97 511 206 511 262 c 0
 511 343 452 426 329 426 c 0
 193 426 147 336 147 262 c 0
 147 181 203 97 329 97 c 0x74
962 320 m 1
 956 359 930 439 803 439 c 0x2c
 696 439 634 368 631 320 c 1
 962 320 l 1
EndSplineSet
EndChar

StartChar: florin
Encoding: 402 402 202
Width: 531
VWidth: 1473
Flags: W
HStem: -202 140<40.625 119.19> 362 87<133 228 352 436> 594 138<394.894 468.75>
VStem: 21 467<-130 663 -258.631 -130>
LayerCount: 2
Fore
SplineSet
488 663 m 256
 488 627 460 594 418 594 c 0
 401 594 388 598 379 607 c 1
 348 485 369 519 352 448 c 1
 449 448 l 1
 436 362 l 1
 336 362 l 1
 332 343 327 318 320 285 c 0
 268 15 247 -105 165 -176 c 0
 144 -193 119 -202 88 -202 c 0
 51 -202 21 -170 21 -130 c 0
 21 -90 52 -62 88 -62 c 0
 114 -62 133 -71 146 -88 c 1
 164 -30 163 10 180 96 c 0
 199 189 212 286 228 362 c 1
 124 362 l 1
 133 449 l 1
 246 449 l 1
 246 451 l 1
 296 610 316 732 418 732 c 256
 460 732 488 699 488 663 c 256
EndSplineSet
EndChar

StartChar: circumflex
Encoding: 710 710 203
Width: 472
VWidth: 1473
Flags: W
HStem: 775 146<273 395 273 273>
VStem: 63 332<775 775 775 775>
LayerCount: 2
Fore
SplineSet
273 921 m 1
 395 775 l 1
 303 775 l 1
 231 854 l 1
 159 775 l 1
 63 775 l 1
 190 921 l 1
 273 921 l 1
EndSplineSet
EndChar

StartChar: caron
Encoding: 711 711 204
Width: 472
VWidth: 1473
Flags: W
HStem: 754 146<78 199 78 78>
VStem: 78 329<900 900 900 900>
LayerCount: 2
Fore
SplineSet
199 754 m 1
 78 900 l 1
 165 900 l 1
 240 810 l 1
 315 900 l 1
 407 900 l 1
 281 754 l 1
 199 754 l 1
EndSplineSet
EndChar

StartChar: breve
Encoding: 728 728 205
Width: 441
VWidth: 1473
Flags: W
HStem: 626 74<160.615 281.891> 626 170
VStem: 60 322<664.097 700 796 796 796 796> 60 77<722.322 796> 305 77<723.205 796>
LayerCount: 2
Fore
SplineSet
382 796 m 1x60
 386.333 653.096 268.816 626 224 626 c 0xa0
 155.372 626 56.0028 664.097 60 796 c 1x60
 137 796 l 1x50
 132.567 723.586 173.292 700 221 700 c 0x90
 271.4 700 306.347 726 305 796 c 1x58
 382 796 l 1x60
EndSplineSet
EndChar

StartChar: dotaccent
Encoding: 729 729 206
Width: 274
VWidth: 1473
Flags: W
HStem: 619 144<84.8234 192.062>
VStem: 63 151<640.403 741.198>
LayerCount: 2
Fore
SplineSet
138 619 m 256
 95.715 619 63 652.074 63 691 c 256
 63 728.862 96.1957 763 138 763 c 256
 180.833 763 214 729.293 214 691 c 256
 214 651.628 181.223 619 138 619 c 256
EndSplineSet
EndChar

StartChar: ring
Encoding: 730 730 207
Width: 409
VWidth: 1473
Flags: W
HStem: 597 54<170.31 239.718> 734 54<169.773 239.864>
VStem: 109 55<657.086 728.374> 246 55<657.121 728.708>
LayerCount: 2
Fore
SplineSet
205 597 m 256
 149.94 597 109 641.074 109 692 c 256
 109 747.531 153.099 788 205 788 c 256
 260.531 788 301 743.901 301 692 c 256
 301 641.06 260.013 597 205 597 c 256
205 734 m 256
 184.03 734 164 715.552 164 692 c 256
 164 671.455 182.422 651 205 651 c 256
 225.545 651 246 669.422 246 692 c 256
 246 715.585 225.972 734 205 734 c 256
EndSplineSet
EndChar

StartChar: tilde
Encoding: 732 732 209
Width: 434
VWidth: 1473
Flags: W
HStem: 585 84<234.49 332.073> 636 84<115.16 213.334>
VStem: 336 72<672.308 710>
LayerCount: 2
Fore
SplineSet
408 699 m 0xa0
 408 633 370 585 313 585 c 0xa0
 253 585 193 636 154 636 c 0
 120 636 115 618 110 597 c 1
 28 597 l 1
 37 673 80 720 139 720 c 0x60
 198 720 245 669 300 669 c 0
 322 669 336 681 336 710 c 1
 408 710 l 1
 408 706 408 702 408 699 c 0xa0
EndSplineSet
EndChar

StartChar: uni0E01
Encoding: 3585 3585 212
Width: 761
VWidth: 1473
Flags: W
HStem: -0 21G<210 230.5 625.5 647.5> 510 87<278.21 503.804>
VStem: 169 106<7.02438 79.3903 79.3903 167.069 167.069 212.569 212.569 262.252> 583 106<7.03229 440.966>
LayerCount: 2
Fore
SplineSet
290 409 m 0
 305 409 339 374 339 349 c 0
 339 341 334 334 324 330 c 0
 285 311 275 256 275 239 c 2
 275 41 l 2
 275 7 241 -0 220 -0 c 0
 200 -0 169 8 169 41 c 0
 166 84 165 116 165 148 c 0
 165 162 166 175 166 186 c 0
 166 205 167 223 169 239 c 0
 169 251 172 282 181 295 c 1
 87 340 l 2
 75 347 73 353 73 361 c 0
 73 419 157 597 396 597 c 0
 608 597 689 495 689 343 c 2
 689 43 l 2
 689 9 659 0 636 0 c 256
 615 0 583 9 583 43 c 2
 583 357 l 2
 583 449 534 510 387 510 c 0
 259 510 186 434 174 390 c 1
 199 378 l 2
 209 373 218 369 225 365 c 1
 243 377 266 409 290 409 c 0
EndSplineSet
EndChar

StartChar: uni0E02
Encoding: 3586 3586 213
Width: 679
VWidth: 1473
Flags: W
HStem: -7 98<312.97 471.262> 357 74<128.609 218.681> 526 79<134.489 226.54>
VStem: 45 77<438.661 513.183> 171 111<121.106 247.657> 233 68<445.716 501.564> 333 82<381.883 488.724> 499 108<117.803 558 558 593.419>
LayerCount: 2
Fore
SplineSet
552 601 m 256xfb
 574 601 607 592 607 558 c 2
 607 181 l 2
 600 44 529 -7 379 -7 c 0
 293 -7 171 28 171 170 c 0xfb
 171 273 263 335 276 346 c 0
 300 365 333 399 333 442 c 0
 333 462 322 481 299 502 c 1
 301 492 301 483 301 475 c 0xf7
 301 418 253 357 168 357 c 0
 86 357 45 420 45 472 c 0
 45 513.892 73.1477 605 219 605 c 0
 365 605 415 507 415 442 c 0
 415 307 282 290 282 180 c 0
 282 136 311 91 379 91 c 0
 454 91 499 109 499 181 c 2
 499 558 l 2
 499 592 531 601 552 601 c 256xfb
233 485 m 0xf7
 233 507 212 526 185 526 c 0
 156 526 122 507 122 474 c 0
 122 448 144 431 169 431 c 0
 200 431 233 455 233 485 c 0xf7
EndSplineSet
EndChar

StartChar: uni0E03
Encoding: 3587 3587 214
Width: 739
VWidth: 1473
Flags: W
HStem: -7 100<369.799 527.208> 302 56<137.288 226.652> 430 53<155.215 225.973> 516 84<174.377 267.488 364.806 423.194>
VStem: 47 86<363.781 477.652> 230 54<363.742 423.609> 233 110<118.745 238.764> 431 88<418.73 504.429> 560 107<122.938 590.875>
LayerCount: 2
Fore
SplineSet
317 451 m 0xfb80
 254 451 299 516 214 516 c 0
 194 516 158 508 150 476 c 1
 160 480 171 483 183 483 c 0
 226 483 284 453 284 392 c 0xfd80
 284 340 237 302 178 302 c 0
 118 302 47 328 47 431 c 0
 47 530 131 600 220 600 c 0
 260 600 293 586 309 563 c 1
 310 564 332 600 387 600 c 0
 429 600 519 574 519 467 c 0
 519 305 343 295 343 173 c 0
 343 143 357 93 441 93 c 0
 501 93 560 106 560 190 c 2
 560 554 l 2
 560 589 592 598 613 598 c 0
 635 598 667 589 667 554 c 2
 667 190 l 2
 667 104 623 -7 445 -7 c 0
 327 -7 233 54 233 179 c 0
 233 254 293 327 357 368 c 0
 395 398 431 434 431 471 c 0
 431 497 411 509 393 509 c 0
 376 509 359 498 359 477 c 0
 357 459 331 451 317 451 c 0xfb80
181 358 m 0
 210 358 230 372 230 393 c 256
 230 417 207 430 181 430 c 256
 154 430 133 418 133 393 c 0
 133 379 146 358 181 358 c 0
EndSplineSet
EndChar

StartChar: uni0E04
Encoding: 3588 3588 215
Width: 727
VWidth: 1473
Flags: W
HStem: -1 21G<113.5 136 588 614.5> 186 72<329.384 418.995> 343 72<329.692 418.694> 498 97<262.486 476.184>
VStem: 72 108<6.12738 170.026 301 417.442> 426 75<266.398 334.904> 550 106<5.34369 421.91>
LayerCount: 2
Fore
SplineSet
374 595 m 0
 540 595 656 506 656 321 c 2
 656 41 l 2
 656 7 626 -1 603 -1 c 256
 573 -1 550 11 550 41 c 2
 550 323 l 2
 550 422 515 498 374 498 c 256
 253 498 180 446 180 321 c 2
 180 301 l 1
 212 335 l 2
 236 360 300 415 374 415 c 0
 445 415 501 364 501 301 c 256
 501 237 446 186 374 186 c 0
 307 186 273 232 262 252 c 1
 217 213 180 149 180 69 c 2
 180 41 l 2
 180 7 147 -1 125 -1 c 256
 102 -1 72 7 72 41 c 2
 72 321 l 2
 72 498 186 595 374 595 c 0
374 258 m 0
 402 258 426 276 426 301 c 256
 426 325 401 343 374 343 c 0
 345 343 323 325 323 301 c 256
 323 276 345 258 374 258 c 0
EndSplineSet
EndChar

StartChar: uni0E05
Encoding: 3589 3589 216
Width: 729
VWidth: 1473
Flags: W
HStem: -1 21G<114 136.5 593 615.5> 175 71<328.642 419.166> 334 71<329.45 419.327> 429 90<336.314 421.48> 574 20G<239.5 280 500.5 508>
VStem: 72 108<6.12738 155.564 290 468.814> 427 74<255.117 324.353> 551 106<5.60239 494.932>
LayerCount: 2
Fore
SplineSet
506 594 m 0
 510 594 657 584 657 464 c 2
 657 41 l 2
 657 7 627 -1 604 -1 c 0
 582 -1 551 7 551 41 c 2
 551 477 l 2
 551 488 541 492 524 498 c 1
 524 497 470 429 387 429 c 0
 325 429 270 468 250 496 c 1
 217 492 180 477 180 389 c 2
 180 290 l 1
 255 391 349 404 376 405 c 0
 431 405 501 367 501 290 c 0
 501 227 446 175 374 175 c 0
 306 175 272 218 261 237 c 1
 228 220 180 135 180 66 c 2
 180 41 l 2
 180 7 148 -1 125 -1 c 0
 103 -1 72 7 72 41 c 2
 72 389 l 2
 72 569 211 595 268 595 c 0
 292 595 299 586 318 558 c 1
 342 532 364 519 386 519 c 0
 400 519 424 524 457 557 c 1
 482 594 495 594 506 594 c 0
374 246 m 256
 403 246 427 264 427 290 c 0
 427 315 403 334 374 334 c 256
 345 334 321 315 321 290 c 0
 321 264 345 246 374 246 c 256
EndSplineSet
EndChar

StartChar: uni0E06
Encoding: 3590 3590 217
Width: 824
VWidth: 1473
Flags: W
HStem: -7 92<224.274 299.079 560.917 637.298> 200 91<225.705 294.433> 303 55<141.557 233.14> 433 53<166.613 232.198> 521 82<172.239 266.76 361.261 417.423>
VStem: 55 82<363.618 480.104> 123 94<104.843 192.177> 237 56<364.469 427.075> 420 98<437.723 512.901> 647 106<101.087 588.492>
LayerCount: 2
Fore
SplineSet
605 92 m 0xfdc0
 622 92 647 103 647 161 c 2
 647 552 l 2
 647 586 676 595 700 595 c 256
 724 595 753 586 753 552 c 2
 753 161 l 2
 753 74 709 -12 610 -12 c 0
 567 -12 505 -1 393 105 c 1
 383 48 339 -7 263 -7 c 0
 172 -7 123 72 123 142 c 0xfbc0
 123 228 191 291 262 291 c 0
 274 291 286 289 298 286 c 1
 302 340 316 370 351 396 c 0
 389 425 420 454 420 481 c 0
 420 502 403 515 387 515 c 0
 372 515 359 505 359 480 c 0
 359 474 l 0
 359 460 335 448 317 448 c 0
 294 448 280 458 275 479 c 0
 273 498 246 521 219 521 c 0
 190 521 170 503 166 485 c 1
 172 486 178 486 184 486 c 0
 239 486 293 457 293 395 c 0
 293 343 246 303 187 303 c 0
 137 303 55 339 55 441 c 0
 55 533 129 603 215 603 c 0
 249 603 290 590 309 561 c 1
 312 564 333 602 387 602 c 0
 461 602 518 543 518 471 c 0
 518 432 500 397 474 374 c 2
 440 342 l 2
 399 305 398 283 398 268 c 2
 398 231 l 1
 406 225 414 218 423 211 c 2
 484 160 l 2
 561 93 583 92 605 92 c 0xfdc0
187 358 m 0
 215 358 237 373 237 395 c 256
 237 410 227 433 187 433 c 256
 149 433 137 410 137 395 c 256xfdc0
 137 373 157 358 187 358 c 0
262 85 m 256
 288 85 301 95 306 138 c 0
 306 186 289 200 264 200 c 0
 245 200 217 191 217 137 c 0xfbc0
 217 127 222 85 262 85 c 256
EndSplineSet
EndChar

StartChar: uni0E07
Encoding: 3591 3591 218
Width: 596
VWidth: 1473
Flags: W
HStem: -5 102<270.387 393.32> 360 73<338.361 414.915> 523 72<337.615 430.056>
VStem: 46 107<228.083 340.637> 253 76<443.386 512.885> 417 107<123.772 206 206 364> 438 86<441.744 511.49>
LayerCount: 2
Fore
SplineSet
383 595 m 0xfc
 457 595 524 568 524 458 c 2xfa
 524 206 l 2
 524 37 420 -5 350 -5 c 0
 216 -5 46 137 46 317 c 0
 46 330 45 367 98 367 c 0
 124 367 153 357 153 317 c 0
 153 207 257 97 332 97 c 0
 378 97 417 111 417 206 c 2
 417 364 l 1
 404 362 392 360 381 360 c 0
 301 360 253 418 253 477 c 0
 253 543 311 595 383 595 c 0xfc
383 433 m 0
 422 433 438 460 438 477 c 0
 438 504 414 523 383 523 c 0
 354 523 329 503 329 477 c 0
 329 453 355 433 383 433 c 0
EndSplineSet
EndChar

StartChar: uni0E08
Encoding: 3592 3592 219
Width: 699
VWidth: 1473
Flags: W
HStem: -3 91<456.359 516.974> 175 71<242.296 324.737> 334 71<241.061 334.466> 499 96<239.485 468.542>
VStem: 161 73<255.117 324.736> 520 106<107.189 445.823>
LayerCount: 2
Fore
SplineSet
355 595 m 0
 593 595 628 458 628 367 c 2
 626 127 l 2
 626 23 557 -3 492 -3 c 0
 403 -3 365 40 358 94 c 2
 343 193 l 1
 331 178 298 175 287 175 c 0
 217 175 161 227 161 290 c 256
 161 353 218 405 287 405 c 0
 430 405 427 296 433 258 c 0
 452 137 439 88 493 88 c 0
 513 88 520 110 520 127 c 2
 520 348 l 2
 520 454 488 499 354 499 c 0
 219 499 159 431 149 380 c 0
 143 354 122 345 100 345 c 0
 78 345 48 361 48 388 c 0
 48 412 94 595 355 595 c 0
287 246 m 0
 318 246 342 264 342 290 c 0
 342 316 318 334 287 334 c 0
 258 334 234 315 234 290 c 0
 234 264 258 246 287 246 c 0
EndSplineSet
EndChar

StartChar: uni0E09
Encoding: 3593 3593 220
Width: 755
VWidth: 1473
Flags: W
HStem: -9 102<311.804 386.733> -9 84<579.947 646.985> 149 73<132.576 201.916> 312 73<133.085 225.287> 496 98<228.158 490.936>
VStem: 50 75<230.004 302.673> 234 75<230.309 301> 558 108<252 336 336 429.089> 656 78<82.8992 170.486>
LayerCount: 2
Fore
SplineSet
47 443 m 0xbf
 47 487 151 594 373 594 c 0
 544 594 666 542 666 336 c 2
 666 247 l 1xbf
 702 227 734 183 734 125 c 0
 734 48 679 -9 613 -9 c 256x7e80
 538 -9 503 31 491 69 c 1
 414 -3 373 -9 343 -9 c 0
 258 -9 204 27 202 152 c 1
 192 150 185 149 180 149 c 0
 103 149 50 204 50 267 c 256
 50 331 105 385 180 385 c 0
 268 385 309 317 309 271 c 2
 309 144 l 2
 309 125 308 93 334 93 c 0
 358 93 391 112 454 172 c 2
 503 217 l 2
 520 232 539 244 558 252 c 1
 558 336 l 2
 558 464 484 496 373 496 c 0
 261 496 193 466 164 440 c 0
 141 421 139 401 101 401 c 0
 78 401 47 418 47 443 c 0xbf
613 75 m 256x7e80
 637 75 656 98 656 125 c 256
 656 153 638 177 613 177 c 256
 588 177 572 153 572 125 c 256
 572 98 589 75 613 75 c 256x7e80
180 222 m 0
 210 222 234 240 234 267 c 256
 234 293 209 312 180 312 c 0
 149 312 125 294 125 267 c 256
 125 239 148 222 180 222 c 0
EndSplineSet
EndChar

StartChar: uni0E0A
Encoding: 3594 3594 221
Width: 679
VWidth: 1473
Flags: W
HStem: -7 98<315.69 472.537> 357 73<127.613 216.624> 525 78<134.681 224.363>
VStem: 45 76<437.245 511.082> 172 111<125.16 249.723> 231 73<445.173 498.188> 499 108<116.266 342.392>
LayerCount: 2
Fore
SplineSet
216 603 m 0xf6
 270 603 330 594 378 542 c 0
 392 527 403 512 410 495 c 1
 499 570 l 2
 586 644 552 674 601 674 c 0
 613 674 664 670 664 624 c 0
 664 595 639 569 601 536 c 2
 556 496 l 2
 540 484 526 471 514 460 c 1
 549 447 607 409 607 333 c 2
 607 171 l 2
 607 7 501 -7 383 -7 c 0
 291 -7 172 28 172 169 c 0xfa
 172 272 260 330 272 340 c 0
 290 354 332 392 332 442 c 0
 332 461 321 481 299 502 c 1
 302 489 304 477 304 466 c 0
 304 403 239 357 168 357 c 0
 91 357 45 415 45 473 c 0
 45 521 79 603 216 603 c 0xf6
231 483 m 0xf6
 231 499 218 525 184 525 c 0
 160 525 121 508 121 473 c 0
 121 455 135 430 168 430 c 0
 198 430 231 453 231 483 c 0xf6
383 91 m 0
 457 91 499 109 499 181 c 2
 499 323 l 2
 499 336 488.991 391.21 421 417 c 1
 402 311 283 284 283 183 c 0xfa
 283 148 306 91 383 91 c 0
EndSplineSet
EndChar

StartChar: uni0E0B
Encoding: 3595 3595 222
Width: 743
VWidth: 1473
Flags: W
HStem: -7 97<371.88 535.938> 302 53<135.184 223.229> 427 56<158.654 223.335> 507 93<359.865 422.039> 516 84<177.07 261.055>
VStem: 47 84<360.455 475.004> 227 57<360.318 421.116> 233 110<118.481 238.046> 564 108<117.807 342.181>
LayerCount: 2
Fore
SplineSet
387 600 m 0xf680
 433 600 497 571 520 504 c 1
 552 539 l 2
 651 645 619 639 638 662 c 0
 644 668 656 673 668 673 c 0
 671 673 732 671 732 623 c 0
 732 596 706 558 638 488 c 2
 600 449 l 1
 644 431 672 391 672 327 c 2
 672 178 l 2
 672 34 600 -7 445 -7 c 0
 330 -7 233 54 233 179 c 0
 233 254 293 327 357 368 c 0
 386 390 427 427 427 466 c 0
 427 492 406 507 387 507 c 0xf580
 372 507 359 497 359 477 c 0
 359 462 335 451 317 451 c 0
 257 451 300 516 216 516 c 0
 193 516 158 505 153 476 c 1
 164 480 174 483 186 483 c 0
 228 483 284 454 284 392 c 0
 284 341 237 302 180 302 c 0
 119 302 47 328 47 431 c 0
 47 528 128 600 220 600 c 0xee80
 252 600 292 590 311 563 c 1
 311 563 327 600 387 600 c 0xf680
564 187 m 2
 564 323 l 2
 564 334 558 376 508 402 c 1
 478 306 343 275 343 173 c 0
 343 142 360 90 441 90 c 0
 528 90 564 112 564 187 c 2
178 355 m 256
 207 355 227 369 227 390 c 256xe680
 227 414 204 427 178 427 c 0
 150 427 131 412 131 390 c 256
 131 369 150 355 178 355 c 256
EndSplineSet
EndChar

StartChar: uni0E0C
Encoding: 3596 3596 223
Width: 1075
VWidth: 1473
Flags: W
HStem: -7 84<533.637 601.888> -6 69<245.734 329.229> -4 97<795.965 884.771> 149 68<275 328.183> 180 82<534.089 581.276> 510 87<277.923 502.51>
VStem: 168 71<70.7165 129.565> 336 68<70.0181 141.735> 445 81<82.7036 173.064> 582 107<262 440.966> 896 107<103.977 586.413>
LayerCount: 2
Fore
SplineSet
287 409 m 0x8fe0
 306 409 338 374 338 352 c 0
 338 328 300 327 278 262 c 0x8fe0
 271.718 243.154 272.317 233.099 275 217 c 1
 287 217 l 2
 354 217 404 167 404 106 c 0
 404 44 354 -6 287 -6 c 0x57e0
 214 -6 170 56 168 108 c 256
 167 121 166 135 166 150 c 2
 166 193 l 2
 166 209 167 224 168 239 c 0
 168 245 174 281 190 298 c 1
 127 321 97 336 87 340 c 0
 77 344 72 349 72 356 c 0
 72 418 155 597 395 597 c 0
 608 597 689 495 689 343 c 2
 689 202 l 1
 722 166 l 2
 728 160 793 93 840 93 c 0
 884 93 896 122 896 171 c 2
 896 551 l 2
 893 578 921 594 950 594 c 0
 971 594 1003 585 1003 551 c 2
 1003 171 l 2
 1003 34 929 -4 840 -4 c 0x27e0
 810 -4 762 3 689 71 c 1
 675 37 640 -7 567 -7 c 0
 501 -7 445 49 445 128 c 0
 445 205 501 262 567 262 c 2
 582 262 l 1
 582 357 l 2
 582 449 530 510 387 510 c 0
 259 510 190 436 172 390 c 1
 198 378 l 2
 209 373 218 369 225 364 c 1
 257 392 272 409 287 409 c 0x8fe0
567 77 m 256
 592 77 610 99 610 128 c 0
 610 156 592 180 567 180 c 256
 543 180 526 155 526 128 c 0
 526 99 543 77 567 77 c 256
287 63 m 256x57e0
 315 63 336 81 336 106 c 256
 336 131 315 149 287 149 c 256
 260 149 239 130 239 106 c 256
 239 82 260 63 287 63 c 256x57e0
EndSplineSet
EndChar

StartChar: uni0E0D
Encoding: 3597 3597 224
Width: 1118
VWidth: 1473
Flags: W
HStem: -282 76<793 833.629> -105 67<654.143 741.196> -10 92<719.708 906.173> -6 68<246.108 331.669> 147 70<277.642 332.025> 510 87<280.423 510.445>
VStem: 169 71<70.1739 118.43 118.43 140.039> 339 66<69.8699 138.778> 582 66<-176.547 -112.188> 583 106<112.457 445.247> 747 68<-173.162 -111.792> 938 108<111.922 586.875> 963 89<-149.474 -64.8686>
LayerCount: 2
Fore
SplineSet
339 354 m 0xef70
 339 322 277 321 277 217 c 1
 289 217 l 2
 355 217 405 167 405 105 c 256
 405 38 352 -6 289 -6 c 0xdf70
 195 -6 171 77 169 108 c 0
 168 121 168 135 168 150 c 2
 168 196 l 2
 168 211 168 225 169 240 c 0
 169 249 176 282 192 298 c 1
 88 340 l 2
 78.8672 343.689 74 349 74 356 c 0
 74 429 167 597 396 597 c 0
 610 597 693 493 691 343 c 2
 689 203 l 2
 687.586 104.011 720 82 815 82 c 0
 910 82 938 106 938 205 c 2
 938 550 l 2
 938 585 970 594 991 594 c 0
 1015 594 1046 585 1046 550 c 2
 1046 205 l 2
 1046 64 997 -10 815 -10 c 0
 638 -10 583 53 583 205 c 2
 583 363 l 2
 583 451 534 510 389 510 c 0
 257 510 190 434 175 391 c 1
 227 365 l 1
 241 377 270 409 292 409 c 0
 305 409 339 379 339 354 c 0xef70
1015 -46 m 0
 1048 -46 1052 -67 1052 -89 c 0
 1052 -123 1040 -238 878 -271 c 0
 844 -278 813 -282 785 -282 c 0
 695 -282 582 -244 582 -144 c 0
 582 -85 633 -38 698 -38 c 0
 761 -38 815 -85 815 -144 c 0
 815 -166 808 -187 793 -206 c 1
 883 -203 963 -177 963 -78 c 0xcfa8
 963 -59 976 -46 1015 -46 c 0
698 -186 m 0
 726 -186 747 -168 747 -144 c 256
 747 -121 725 -105 698 -105 c 256
 672 -105 648 -122 648 -144 c 0
 648 -168 672 -186 698 -186 c 0
289 62 m 256xdf20
 316 62 339 81 339 105 c 256
 339 128 315 147 289 147 c 256
 261 147 240 129 240 105 c 256
 240 80 261 62 289 62 c 256xdf20
EndSplineSet
Substitution2: "Single Substitution lookup 22 subtable" uni0E0D.alt1
Substitution2: "Single Substitution lookup 22 subtable" uni0E0D.alt1
EndChar

StartChar: uni0E0E
Encoding: 3598 3598 225
Width: 780
VWidth: 1473
Flags: W
HStem: -315 68<229.453 329.205> -164 68<229.353 328.942> -7 69<118.679 210.348> 147 68<118.78 186.78> 510 87<295.271 523.68>
VStem: 41 71<70.5365 138.162> 146 76<-237.468 -173.857> 217 78<71.1548 138.892> 346 93<-110 -87.8846 -87.8846 -41.6379> 601 108<-162 441.744>
LayerCount: 2
Fore
SplineSet
709 -164 m 2xfdc0
 709 -205 610 -311 575 -311 c 0
 556.514 -311 468.796 -241.575 417 -225 c 1
 383 -301 325 -315 278 -315 c 0
 205 -315 146 -270 146 -206 c 0xfec0
 146 -141 205 -96 278 -96 c 0
 319 -96 340 -107 346 -110 c 1
 346 -71 l 2
 346 -51 358 -37 389 -37 c 256
 412 -37 436 -43 436 -68 c 1
 438 -79 439 -92 439 -108 c 2
 439 -144 l 1
 465 -154 504 -172 563 -209 c 1
 577 -198 596 -173 601 -162 c 1
 601 363 l 2
 601 451.2 548.648 510 407 510 c 0
 264 510 202 424 193 391 c 1
 208 381 226 377 245 364 c 1
 263 384 290 410 308 410 c 0
 324 410 358 375 358 351 c 0
 358 342 354 335 343 331 c 0
 304 312 295 256 295 239 c 2
 295 112 l 2
 295 13 211 -7 165 -7 c 0
 95 -7 41 41 41 105 c 0
 41 165 95 215 165 215 c 0
 175 215 182 215 187 214 c 1
 187 239 l 1
 193 267 191 282 200 295 c 1
 147 320 l 2
 91 346 92 345 92 357 c 0
 92 411.044 172.832 597 414 597 c 0
 627.566 597 709 495.8 709 344 c 2
 709 -164 l 2xfdc0
165 62 m 0
 193 62 217 80 217 105 c 256xfdc0
 217 129 192 147 165 147 c 0
 137 147 112 129 112 105 c 256
 112 80 136 62 165 62 c 0
278 -247 m 0
 309 -247 336 -230 336 -206 c 0
 336 -181 309 -164 278 -164 c 0
 249 -164 222 -182 222 -206 c 0xfec0
 222 -229 250 -247 278 -247 c 0
EndSplineSet
Substitution2: "Single Substitution lookup 22 subtable" uni0E0E.alt1
Substitution2: "Single Substitution lookup 22 subtable" uni0E0E.alt1
EndChar

StartChar: uni0E0F
Encoding: 3599 3599 226
Width: 780
VWidth: 1473
Flags: W
HStem: -315 68<151.108 249.016> -164 68<151.214 241.102> -7 69<119.65 210.072> 147 68<119.751 186.094> 510 87<294.713 525.592>
VStem: 41 71<70.5365 138.348> 66 78<-237.292 -173.857> 217 78<72.1559 138.892> 268 93<-110 -88.9987 -88.9987 -41.0508> 601 108<-197.916 441.827>
LayerCount: 2
Fore
SplineSet
414 597 m 0xfd40
 625 597 709 496 709 344 c 2
 709 -164 l 2
 709 -203.674 633.893 -311 594 -311 c 0
 576.146 -311 514.935 -256.306 492 -227 c 1
 486 -235 438 -301 412 -301 c 0
 377 -301 373 -272 330 -242 c 1
 315 -267 278 -315 200 -315 c 0
 126 -315 66 -269 66 -206 c 0
 66 -141 127 -96 200 -96 c 0
 228 -96 249 -101 268 -110 c 1
 268 -69 l 2
 268 -43 291 -37 311 -37 c 256
 346 -37 358 -49 358 -68 c 0
 359 -77 361 -95 361 -114 c 0xfac0
 361 -131 359 -149 359 -158 c 1
 384.351 -169.523 396.79 -186.703 414 -202 c 1
 442 -183 461 -127 488 -127 c 0
 512.59 -127 530.074 -175.444 576 -203 c 1
 590 -192 598 -182 601 -171 c 1
 601 357 l 2
 601 449 551 510 407 510 c 0
 262 510 203 425 192 391 c 1
 212 379 225 377 245 364 c 1
 263 384 290 410 308 410 c 0
 322 410 359 370 359 350 c 0
 359 326 326 339 306 289 c 0
 299 270 295 253 295 239 c 2
 295 112 l 2
 295 16 217 -7 164 -7 c 0
 94 -7 41 41 41 105 c 0
 41 166 94 215 164 215 c 0
 173 215 181 215 186 214 c 1
 187 218 187 230 187 239 c 0
 187 250 191 283 200 295 c 1
 147 320 l 2
 96 344 91 350 91 357 c 0
 91 417 172 597 414 597 c 0xfd40
164 62 m 0
 193 62 217 80 217 105 c 256
 217 129 192 147 164 147 c 0
 137 147 112 129 112 105 c 256xfd40
 112 80 136 62 164 62 c 0
200 -247 m 256
 230 -247 256 -230 256 -206 c 0
 256 -181 230 -164 200 -164 c 256
 171 -164 144 -182 144 -206 c 0xfa40
 144 -229 172 -247 200 -247 c 256
EndSplineSet
Substitution2: "Single Substitution lookup 22 subtable" uni0E0F.alt1
Substitution2: "Single Substitution lookup 22 subtable" uni0E0F.alt1
EndChar

StartChar: uni0E10
Encoding: 3600 3600 227
Width: 699
VWidth: 1473
Flags: W
HStem: -325 60<470.164 515.192> -315 124<348 400> -315 62<126.838 218.923> -196 56<466.708 545.189> -178 62<126.161 219.749> -71 55<466.925 552.434> -8 71<411.787 513.903> 78 74<185.338 270.058> 242 72<185.676 276.59> 334 87<156.773 217.491> 350 93<250.801 487.804> 522 88<244.401 487.52>
VStem: 50 71<-244.906 -184.98> 102 75<161.102 231.7> 233 88<-129.438 -110.069 -110.069 -70.4465> 399 64<-134.383 -77.2753> 519 104<69.6012 320.808> 557 72<-181.002 -76.6848>
LayerCount: 2
Back
SplineSet
55.5264 436.957 m 0x07d780
 55.5264 518.592 171.471 623 358 623 c 0
 494.243 623 656 568.8 656 487.5 c 0
 656 467.454 615.912 446.105 599.874 446.105 c 0
 586.038 446.105 569.181 461.819 561 470 c 0
 546.994 485.48 480.659 535.043 360.683 535.043 c 0
 258.143 535.043 155.571 480.477 155.571 450.01 c 0
 155.571 440.686 161.183 434.471 175.861 434.471 c 0x07d780
 203.534 434.471 279.839 456.1 357.38 456.1 c 0
 476.86 456.1 559.253 419.526 588 380 c 0
 604.921 357.871 623 328.654 623 280 c 2
 623 138 l 2
 621.686 63.1403 568.746 -8.38461 457.414 -8.38461 c 0
 367.461 -8.38461 311.913 34.7967 305 78 c 1
 300.665 86.6693 300.766 95.2903 296 108 c 1
 276.667 96.6667 255 91 231 91 c 0
 158.978 91 102 144.792 102 209.014 c 0
 102 274.264 158.807 327 231 327 c 0
 347.8 327 370.882 240.939 377 218 c 2
 408 105 l 1
 414.249 90.6279 422.992 76.2728 462.893 76.2728 c 0
 504.826 76.2728 519 94.1637 519 121 c 2
 519 274 l 2
 519 327.435 490.05 363.059 389.729 363.059 c 0x07b780
 324.679 363.059 220.097 347 179.333 347 c 0
 125.971 347 87.7796 357.219 69 389 c 0
 60.0325 403.572 55.5264 419.558 55.5264 436.957 c 0x07d780
509.733 -16.0002 m 0
 564.324 -16.0002 629.059 -45.7716 629.059 -153.204 c 0
 629.059 -256.277 567.768 -325.157 506.602 -325.157 c 0x979b40
 491.199 -325.157 448.207 -320.424 402 -273 c 1
 398.437 -278.09 359.574 -315 348.5 -315 c 0x479b40
 335 -315 310.088 -288.164 281 -258 c 1
 263.095 -289.974 224.22 -315 172 -315 c 0x279b40
 105.793 -315 50.0006 -274.57 50.0006 -215.355 c 0
 50.0006 -158.741 104.317 -116 172 -116 c 0
 209.799 -116 212.933 -124.527 233 -130 c 1
 234.337 -119.308 234 -103.531 234 -90 c 0
 234 -73.2 245.9 -69 283 -69 c 256
 313.81 -69 321 -79 321 -94 c 0
 321 -127.333 318.667 -156.333 314 -181 c 1
 357 -227 l 1
 384.455 -199.545 385.474 -190.902 399.807 -190.902 c 0x4f9b40
 420.325 -190.902 461.862 -265.194 498.817 -265.194 c 0
 505.628 -265.194 540.545 -240.429 550 -190 c 1
 538.667 -194 525.333 -196 510 -196 c 0x979b40
 449.515 -196 399 -158.753 399 -106 c 256
 399 -53.4051 449.583 -16.0002 509.733 -16.0002 c 0
231 165 m 0
 261.8 165 286 182.6 286 209 c 256
 286 235.69 262.298 255 231 255 c 0
 201.599 255 177 234.888 177 209 c 256x0797
 177 182.981 201.806 165 231 165 c 0
510 -140 m 256x179340
 534.342 -140 557 -127.233 557 -106 c 256
 557 -84.8819 534.31 -71 510 -71 c 256
 485.586 -71 463 -84.8399 463 -106 c 256
 463 -127.193 485.763 -140 510 -140 c 256x179340
172 -253 m 256x2f9b
 198.712 -253 224 -237.832 224 -215 c 256
 224 -192.8 199.5 -178 172 -178 c 256
 146.339 -178 121 -192.532 121 -215 c 256
 121 -237.352 146.38 -253 172 -253 c 256x2f9b
EndSplineSet
Fore
SplineSet
56 424 m 0x07d780
 56 506 171 610 358 610 c 0
 494 610 656 556 656 475 c 0
 656 454 616 433 600 433 c 0
 586 433 569 449 561 457 c 0
 547 472 481 522 361 522 c 0
 258 522 156 467 156 437 c 0
 156 428 161 421 176 421 c 0x07d780
 204 421 280 443 357 443 c 0
 477 443 559 407 588 367 c 0
 605 345 623 316 623 267 c 2
 623 125 l 2
 622 50 569 -8 457 -8 c 0
 304.398 -8 300.635 82.9512 296 95 c 1
 277 84 255 78 231 78 c 0
 159 78 102 132 102 196 c 0
 102 261 159 314 231 314 c 0
 348 314 371 228 377 205 c 2
 408 92 l 1
 414 78 423 63 463 63 c 0
 505 63 519 81 519 108 c 2
 519 261 l 2
 519 314 490 350 390 350 c 0x07b780
 325 350 220 334 179 334 c 0
 126 334 88 344 69 376 c 0
 60 391 56 407 56 424 c 0x07d780
510 -16 m 0
 564 -16 629 -46 629 -153 c 0
 629 -256 568 -325 507 -325 c 0x979b40
 491 -325 448 -320 402 -273 c 1
 398 -278 360 -315 348 -315 c 0x479b40
 335 -315 310 -288 281 -258 c 1
 263 -290 224 -315 172 -315 c 0x279b40
 106 -315 50 -275 50 -215 c 0
 50 -159 104 -116 172 -116 c 0
 210 -116 213 -125 233 -130 c 1
 234 -119 234 -104 234 -90 c 0
 234 -73 246 -69 283 -69 c 256
 314 -69 321 -79 321 -94 c 0
 321 -127 319 -156 314 -181 c 1
 357 -227 l 1
 384 -200 385 -191 400 -191 c 0x4f9b40
 420 -191 462 -265 499 -265 c 0
 506 -265 541 -240 550 -190 c 1
 539 -194 525 -196 510 -196 c 0x979b40
 450 -196 399 -159 399 -106 c 256
 399 -53 450 -16 510 -16 c 0
231 152 m 0
 262 152 286 170 286 196 c 256
 286 223 262 242 231 242 c 0
 202 242 177 222 177 196 c 256x0797
 177 170 202 152 231 152 c 0
510 -140 m 256x179340
 534 -140 557 -127 557 -106 c 256
 557 -85 534 -71 510 -71 c 256
 486 -71 463 -85 463 -106 c 256
 463 -127 486 -140 510 -140 c 256x179340
172 -253 m 256x2f9b
 199 -253 224 -238 224 -215 c 256
 224 -193 200 -178 172 -178 c 256
 146 -178 121 -193 121 -215 c 256
 121 -237 146 -253 172 -253 c 256x2f9b
EndSplineSet
Substitution2: "Single Substitution lookup 22 subtable" uni0E10.alt1
Substitution2: "Single Substitution lookup 22 subtable" uni0E10.alt1
EndChar

StartChar: uni0E11
Encoding: 3601 3601 228
Width: 891
VWidth: 1473
Flags: W
HStem: -7 107<355.369 406.586> 302 56<118.484 208.655> 430 50<129.067 208.045> 491 106<656.276 704.297> 521 79<132.994 245.835 318.918 383.572>
VStem: 43 72<363.89 463.505> 212 55<363.474 424.073> 246 106<103.907 266.005> 252 56<454.717 483 483 512.183> 391 86<423.174 512.717> 713 106<7.03229 489.256>
LayerCount: 2
Fore
SplineSet
687 597 m 0xf560
 775 597 819 530 819 449 c 2
 819 43 l 2
 819 9 787 0 766 0 c 256
 745 0 713 9 713 43 c 2
 713 449 l 2
 713 483 697 491 687 491 c 0
 665 491 638 468 579 290 c 0
 534 164 521 -7 367 -7 c 0
 323 -7 246 26 246 121 c 2
 246 231 l 2xf560
 246 236 243 290 289 351 c 0
 329 404 391 414 391 472 c 0
 391 497 374 519 348 519 c 0
 332 519 308 514 308 484 c 0
 308 464 299 454 280 454 c 0
 253 454 252 483 252 483 c 1xf4e0
 249 507 222 521 193 521 c 0
 166 521 124 509 118 468 c 1
 125 474 148 480 168 480 c 0
 205 480 267 462 267 391 c 0
 267 340 218 302 161 302 c 0
 112 302 43 337 43 439 c 0
 43 529 106 600 200 600 c 0xee60
 234 600 260 588 277 564 c 1
 279 568 310 601 352 601 c 0
 420 601 477 553 477 480 c 0
 477 410 435 377 401 346 c 0
 352 302 352 264 352 237 c 2
 352 121 l 2
 352 104 358 100 367 100 c 0
 438 100 432 233 520 444 c 0
 568 558 620 597 687 597 c 0xf560
164 358 m 0
 191 358 212 372 212 393 c 256xe660
 212 417 191 430 164 430 c 256
 136 430 115 418 115 393 c 256
 115 369 137 358 164 358 c 0
EndSplineSet
EndChar

StartChar: uni0E12
Encoding: 3602 3602 229
Width: 1104
VWidth: 1473
Flags: W
HStem: -7 80<567.943 631.508> -7 93<210.082 323.901 814.199 912.563> 176 87<568.559 610.234> 199 65<311.274 370.775> 345 66<310.987 398.565> 443 92<350.519 475.195> 581 20G<227 303.5 968.5 988.5>
VStem: 72 108<117.96 460.554> 237 68<272.387 337.282> 404 71<209.954 337.759> 485 75<79.4555 169.997> 611 108<263 470> 925 106<102.688 590.316>
LayerCount: 2
Fore
SplineSet
290 601 m 0x5ff8
 317 601 346 535 411 535 c 0
 476 535 509 594 523 599 c 0
 533 602 618 587 674 548 c 0
 704 528 719 500 719 467 c 2
 719 204 l 1
 723 199 808 89 868 89 c 0
 902 89 925 107 925 169 c 2
 925 554 l 2
 925 589 959 598 978 598 c 256
 999 598 1031 589 1031 554 c 2
 1031 169 l 2
 1031 77 998 -7 868 -7 c 0x5ff8
 824 -7 786 17 713 84 c 1
 685 -1 637 -7 601 -7 c 0
 534 -7 485 58 485 127 c 256
 485 199 535 263 601 263 c 2
 611 263 l 1xaff8
 611 470 l 1
 595 486 585 492 554 501 c 1
 519 468 475 443 411 443 c 0
 353 443 295 469 265 499 c 1
 244 497 183 478 180 390 c 2
 180 234 l 2
 180 140 195 86 269 86 c 0
 330 86 361 155 371 200 c 1
 368 199 363 199 355 199 c 0
 289 199 237 246 237 305 c 256
 237 364 289 411 355 411 c 0
 396 411 475 392 475 272 c 0
 475 149 398 -7 270 -7 c 0
 112 -7 72 106 72 234 c 2
 72 383 l 2
 72 524 164 601 290 601 c 0x5ff8
600 73 m 256xaff8
 622 73 639 98 639 124 c 256
 639 151 623 176 600 176 c 256
 576 176 560 151 560 124 c 256
 560 98 577 73 600 73 c 256xaff8
355 264 m 256x1ff8
 382 264 404 282 404 305 c 256
 404 328 382 345 355 345 c 256
 328 345 305 328 305 305 c 256
 305 282 328 264 355 264 c 256x1ff8
EndSplineSet
EndChar

StartChar: uni0E13
Encoding: 3603 3603 230
Width: 1181
VWidth: 1473
Flags: W
HStem: -10 107<701.944 826.319> -9 84<997.609 1064.93> -6 68<245.37 329.603> 147 70<277 329.66> 510 87<279.479 508.522>
VStem: 169 70<71.0545 118.43 118.43 140.039> 337 68<69.2943 139.347> 583 108<108.969 442.784> 974 107<247 264 264 586.968> 1072 82<80.9175 158.802>
LayerCount: 2
Fore
SplineSet
583 357 m 2x9f40
 583 449 536 510 389 510 c 0
 267 510 198 446 174 391 c 1
 227 365 l 1
 245 380 272 410 295 410 c 0
 313 410 339 380 339 356 c 0
 339 347 336 338 326 332 c 0
 281 297 275 258 275 241 c 0
 275 235 276 223 277 217 c 1
 289 217 l 2
 355 217 405 167 405 105 c 256
 405 38 352 -6 289 -6 c 0x3f40
 193 -6 171 79 169 108 c 0
 168 121 168 135 168 150 c 2
 168 196 l 2
 168 211 168 225 169 239 c 0
 169 251 175 283 192 298 c 1
 88 340 l 2
 78.8672 343.689 74 349 74 356 c 0
 74 429.356 167.207 597 396 597 c 0
 629 597 691 474 691 343 c 2
 691 175 l 2
 691 120 702 97 756 97 c 0
 858 97 967 236 974 264 c 1
 974 551 l 2
 974 585 1006 594 1028 594 c 256
 1049 594 1081 585 1081 551 c 2
 1081 247 l 1x9f80
 1110 247 1154 190 1154 125 c 0
 1154 49 1100 -9 1031 -9 c 0x5f40
 970 -9 924 23 915 71 c 1
 884 38 802 -10 747 -10 c 0
 616 -10 583 87 583 175 c 2
 583 357 l 2x9f40
1031 75 m 256x5f40
 1055 75 1072 98 1072 125 c 0
 1072 143 1064 177 1031 177 c 0
 1007 177 989 153 989 125 c 0
 989 98 1008 75 1031 75 c 256x5f40
289 62 m 256x3f
 316 62 337 81 337 105 c 256
 337 128 316 147 289 147 c 256
 261 147 239 129 239 105 c 256
 239 80 261 62 289 62 c 256x3f
EndSplineSet
EndChar

StartChar: uni0E14
Encoding: 3604 3604 231
Width: 777
VWidth: 1473
Flags: W
HStem: -7 98<232.084 390.288> 186 72<338.484 424.287> 348 73<338.977 431.456> 517 100<283.413 498.435>
VStem: 60 106<170.417 393.903> 256 75<266.592 339.006> 433 104<133.306 194 200.275 333.469> 598 108<7.12534 426.157>
LayerCount: 2
Fore
SplineSet
387 617 m 0
 561 617 706 527 706 337 c 2
 706 44 l 2
 706 9 676 0 651 0 c 0
 628 0 598 9 598 44 c 2
 598 337 l 2
 598 454 514 517 387 517 c 0
 237 517 166 412 166 279 c 0
 166 208 193 91 303 91 c 0
 358 91 431 110 433 194 c 1
 415 188 405 186 386 186 c 0
 308 186 256 242 256 303 c 256
 256 368 311 421 386 421 c 0
 477 421 537 337 537 230 c 0
 537 113 464 -7 303 -7 c 0
 157 -7 60 106 60 287 c 0
 60 420 139 617 387 617 c 0
386 258 m 0
 415 258 440 277 440 303 c 256
 440 330 416 348 386 348 c 0
 354 348 331 331 331 303 c 256
 331 276 355 258 386 258 c 0
EndSplineSet
EndChar

StartChar: uni0E15
Encoding: 3605 3605 232
Width: 760
VWidth: 1473
Flags: W
HStem: -7 93<221.365 365.774> 174 72<319.685 405.754> 336 72<320.418 413.007> 451 97<340.594 468.922> 587 20G<221.71 301.5 513.5 566>
VStem: 72 108<133.526 468.049> 237 75<255.257 326.178> 414 105<130.304 181 192.582 327.313> 580 108<7.68356 500.875>
LayerCount: 2
Fore
SplineSet
367 408 m 0
 419.794 408 519 387.4 519 229 c 0
 519 95 436 -7 290 -7 c 0
 186 -7 72 41 72 234 c 2
 72 390 l 2
 72 519.553 164.421 607 279 607 c 0
 324 607 328 548 406 548 c 0
 479 548 488 609 539 609 c 0
 593 609 688 560 688 474 c 2
 688 44 l 2
 688 9 655 0 633 0 c 0
 612 0 580 9 580 44 c 2
 580 467 l 1
 580 467 579 497 544 508 c 1
 509 476 467 451 405 451 c 0
 349 451 294 478 265 507 c 1
 229 501 180 470 180 396 c 2
 180 234 l 2
 180 171.364 190.658 86 292 86 c 0
 337 86 417 117 414 181 c 1
 397 176 382 174 367 174 c 0
 290 174 237 228 237 290 c 256
 237 355 292 408 367 408 c 0
367 246 m 0
 396 246 421 264 421 290 c 256
 421 316 396 336 367 336 c 0
 336 336 312 317 312 290 c 256
 312 264 336 246 367 246 c 0
EndSplineSet
EndChar

StartChar: uni0E16
Encoding: 3606 3606 233
Width: 761
VWidth: 1473
Flags: W
HStem: -7 69<258.781 344.568> 147 70<275.82 344.168> 510 87<277.524 507.228>
VStem: 351 67<69.9855 139.347> 582 107<7.03229 440.966>
LayerCount: 2
Fore
SplineSet
290 409 m 0
 307 409 338 373 338 350 c 0
 338 341 333 335 324 330 c 0
 285 311 275 256 275 239 c 2
 275 214 l 1
 291 216 291 217 302 217 c 0
 369 217 418 161 418 105 c 256
 418 48 371 -7 302 -7 c 0
 211 -7 172.066 65.1562 168 118 c 0
 167.142 129.147 165 140 165 153 c 2
 165 196 l 2
 165 210 165 224 166 239 c 0
 166 249 175 281 190 298 c 1
 81 339 72 344 72 356 c 0
 72 418 155 597 395 597 c 0
 608 597 689 495 689 343 c 2
 689 43 l 2
 689 9 659 0 636 0 c 256
 614 0 582 9 582 43 c 2
 582 357 l 2
 582 449 534 510 387 510 c 0
 259 510 186 434 174 391 c 1
 188 381 206 376 225 364 c 1
 248 384 269 409 290 409 c 0
302 62 m 256
 330 62 351 80 351 105 c 256
 351 129 330 147 302 147 c 256
 274 147 252 129 252 105 c 256
 252 80 274 62 302 62 c 256
EndSplineSet
EndChar

StartChar: uni0E17
Encoding: 3607 3607 234
Width: 805
VWidth: 1473
Flags: W
HStem: 0 21G<248 272.5 670.5 692.5> 362 73<126.847 199.18> 498 99<518.731 612.494> 524 73<128.251 221.119>
VStem: 44 75<444.744 514.206> 206 108<7.12532 133.373 368.328 370> 230 84<443.86 512.568> 628 106<7.68356 484.196>
LayerCount: 2
Fore
SplineSet
579 597 m 0xeb
 649 597 734 546 734 422 c 2
 734 44 l 2
 734 10.9395 704 0 681 0 c 256
 660 0 628 9 628 44 c 2
 628 419 l 2
 628 485 592 498 569 498 c 0xeb
 467 498 335 196 314 44 c 0
 314 9 285 0 260 0 c 0
 236 0 206 9 206 44 c 2
 206 370 l 1
 195 365 182 362 169 362 c 0
 116 362 44 402 44 479 c 0
 44 543 102 597 174 597 c 0xdd
 286 597 314 520 314 460 c 2
 314 318 l 1
 329 372 393 489 446 542 c 0
 474 568 519 597 579 597 c 0xeb
174 435 m 0
 204 435 230 453 230 479 c 256
 230 505 204 524 174 524 c 0xdb
 145 524 119 505 119 479 c 256
 119 453 145 435 174 435 c 0
EndSplineSet
EndChar

StartChar: uni0E18
Encoding: 3608 3608 235
Width: 707
VWidth: 1473
Flags: W
HStem: -7 97<249.31 483.704> 307 93<167.295 377.878> 325 94<197.176 497.067> 505 100<243.25 518.249>
VStem: 64 102<405.02 453.243> 108 106<126.446 169 169 268.398> 524 108<126.862 297.857>
LayerCount: 2
Fore
SplineSet
64 414 m 0xda
 64 519 204 605 367 605 c 0
 555 605 661 533 661 469 c 0
 661 443 631 426 613 426 c 0
 595 426 571 448 561 458 c 0
 539 483 474 505 364 505 c 0
 256 505 166 455 166 422 c 0
 166 413 171 400 192 400 c 0xda
 228 400 292 419 363 419 c 0
 446 419 551 398 594 352 c 0
 612 331 632 306 632 250 c 2
 632 165 l 2
 631 95 589 -7 370 -7 c 0
 221 -7 108 28 108 169 c 2
 108 231 l 2
 108 266 138 275 161 275 c 256
 184 275 214 267 214 233 c 2
 214 178 l 2
 214 99 292 90 370 90 c 0
 464 90 524 110 524 189 c 2
 524 245 l 2
 524 311 466 325 399 325 c 0xb6
 337 325 254 307 198 307 c 0
 85 307 64 375 64 414 c 0xda
EndSplineSet
EndChar

StartChar: uni0E19
Encoding: 3609 3609 236
Width: 878
VWidth: 1473
Flags: W
HStem: -7 107<352.902 516.979> -7 89<682.047 755.49> 364 72<126.072 200.796> 526 72<127.418 219.877>
VStem: 44 75<445.37 516.178> 206 106<142.569 371> 228 84<444.86 515.311> 645 108<298 586.213> 766 80<91.9848 203.247>
LayerCount: 2
Fore
SplineSet
753 298 m 1xbd80
 827 298 846 221 846 141 c 0
 846 104 821 -7 722 -7 c 0x7d80
 682 -7 638 4 608 66 c 1
 591 49 556 -7 446 -7 c 0
 327 -7 206 38 206 217 c 2
 206 371 l 1xbd80
 194 366 181 364 167 364 c 0
 109 364 44 411 44 480 c 0
 44 545 99 598 174 598 c 0
 284 598 312 525 312 461 c 2xbb80
 312 217 l 2
 312 116 376 100 446 100 c 0
 491 100 523 107 543 122 c 0
 618 175 596 241 645 281 c 1
 645 549 l 2
 645 585 674 594 698 594 c 256
 721 594 753 585 753 549 c 2
 753 298 l 1xbd80
719 82 m 0
 747 82 766 108 766 146 c 0
 766 177 756 212 716 212 c 0
 685 212 670 182 670 147 c 0
 670 113 686 86 719 82 c 0
174 436 m 0
 203 436 228 454 228 480 c 256x3b80
 228 506 203 526 174 526 c 0
 143 526 119 507 119 480 c 256
 119 454 143 436 174 436 c 0
EndSplineSet
EndChar

StartChar: uni0E1A
Encoding: 3610 3610 237
Width: 802
VWidth: 1473
Flags: W
HStem: -7 103<356.86 582.814> 362 73<126.209 199.338> 524 73<127.085 219.942>
VStem: 44 75<443.27 514.673> 206 108<134.755 370> 228 86<443.86 513.517> 623 108<135.253 551 551 586.419>
LayerCount: 2
Fore
SplineSet
676 594 m 256xfa
 698 594 731 585 731 551 c 2
 731 224 l 2
 731 85 678 -7 464 -7 c 0
 264.819 -7 206 85.4 206 224 c 2
 206 370 l 1xfa
 194 365 181 362 168 362 c 0
 115 362 44 404 44 479 c 0
 44 543 99 597 174 597 c 0
 284 597 314 529 314 460 c 2xf6
 314 221 l 2
 314 135 341 96 464 96 c 256
 589 96 623 125 623 224 c 2
 623 551 l 2
 623 585 655 594 676 594 c 256xfa
174 435 m 0
 203 435 228 453 228 479 c 256xf6
 228 505 203 524 174 524 c 0
 143 524 119 506 119 479 c 256
 119 453 143 435 174 435 c 0
EndSplineSet
EndChar

StartChar: uni0E1B
Encoding: 3611 3611 238
Width: 802
VWidth: 1473
Flags: W
HStem: -7 100<357.798 577.908> 362 73<126.209 199.338> 524 73<127.085 219.942>
VStem: 44 75<443.27 514.673> 206 108<134.669 370> 228 86<443.86 513.517> 623 108<134.59 777.419>
LayerCount: 2
Fore
SplineSet
676 785 m 256xfa
 699 785 731 776 731 742 c 2
 731 224 l 2
 731 85 678 -7 464 -7 c 0
 265 -7 206 85 206 224 c 2
 206 370 l 1xfa
 194 365 181 362 168 362 c 0
 115 362 44 404 44 479 c 0
 44 543 99 597 174 597 c 0
 284 597 314 529 314 460 c 2xf6
 314 221 l 2
 314 144 333 93 464 93 c 256
 595 93 623 131 623 224 c 2
 623 742 l 2
 623 776 652 785 676 785 c 256xfa
174 435 m 0
 203 435 228 453 228 479 c 256xf6
 228 505 203 524 174 524 c 0
 143 524 119 506 119 479 c 256
 119 453 143 435 174 435 c 0
EndSplineSet
EndChar

StartChar: uni0E1C
Encoding: 3612 3612 239
Width: 776
VWidth: 1473
Flags: W
HStem: -7 98<197.487 291.945 473.694 579.361> 362 73<184.433 266.523> 524 73<174.532 266.385>
VStem: 72 94<443.242 514.441> 72 108<107.042 368> 275 76<443.777 514.206> 334 108<171 350.391> 597 107<108.319 552 552 588.492>
LayerCount: 2
Fore
SplineSet
651 595 m 0xeb
 675 595 704 586 704 552 c 2
 704 180 l 2
 704 89 669 -7 530 -7 c 0
 464 -7 415 28 389 74 c 1
 343 0 275 -7 246 -7 c 0
 160 -7 72 30 72 180 c 2xeb
 72 458 l 2
 72 526 102 597 221 597 c 0
 293 597 351 543 351 479 c 256xf5
 351 413 292 362 221 362 c 0
 205 362 191 364 180 368 c 1
 180 175 l 2
 180 133 193 91 245 91 c 0
 331 91 332 173 334 194 c 2
 334 308 l 2
 334 337 358 361 389 361 c 256
 420 361 442 337 442 308 c 2
 442 194 l 2
 444 178 449 90 530 90 c 0
 588 90 597 134 597 180 c 2
 597 552 l 2
 597 586 626 595 651 595 c 0xeb
221 435 m 0
 250 435 275 453 275 479 c 256
 275 505 250 524 221 524 c 0
 190 524 166 506 166 479 c 256xf5
 166 453 190 435 221 435 c 0
EndSplineSet
EndChar

StartChar: uni0E1D
Encoding: 3613 3613 240
Width: 776
VWidth: 1473
Flags: W
HStem: -7 98<197.487 291.945 473.694 581.331> 362 73<184.433 266.523> 524 73<174.532 266.385>
VStem: 72 94<443.242 514.441> 72 108<107.042 368> 275 76<443.777 514.206> 334 108<171 350.391> 597 107<105.875 779.968>
LayerCount: 2
Fore
SplineSet
651 787 m 0xeb
 672 787 704 778 704 744 c 2
 704 180 l 2
 704 126 691 81 664 46 c 0
 638 11 593 -7 530 -7 c 0
 464 -7 415 28 389 74 c 1
 343 0 275 -7 246 -7 c 0
 160 -7 72 30 72 180 c 2xeb
 72 458 l 2
 72 526 102 597 221 597 c 0
 293 597 351 543 351 479 c 256xf5
 351 413 292 362 221 362 c 0
 205 362 191 364 180 368 c 1
 180 175 l 2
 180 133 193 91 245 91 c 0
 331 91 332 173 334 194 c 2
 334 308 l 2
 334 337 358 361 389 361 c 256
 420 361 442 337 442 308 c 2
 442 194 l 2
 444 178 449 90 530 90 c 0
 588 90 597 134 597 180 c 2
 597 744 l 2
 597 778 627 787 651 787 c 0xeb
221 435 m 0
 250 435 275 453 275 479 c 256
 275 505 250 524 221 524 c 0
 190 524 166 506 166 479 c 256xf5
 166 453 190 435 221 435 c 0
EndSplineSet
EndChar

StartChar: uni0E1E
Encoding: 3614 3614 241
Width: 910
VWidth: 1473
Flags: W
HStem: -7 98<331.412 426.526 606.973 711.927> 362 73<126.426 199.338> 524 73<127.651 219.877>
VStem: 44 75<445.078 514.206> 206 106<112.285 370> 228 84<443.86 513.876> 470 106<122.774 549.19> 731 107<108.319 555 555 590.968>
LayerCount: 2
Fore
SplineSet
784 598 m 256xfb
 806 598 838 589 838 555 c 2
 838 180 l 2
 838 89 803 -7 664 -7 c 0
 598 -7 549 28 523 74 c 1
 477 0 409 -7 380 -7 c 0
 295 -7 206 30 206 180 c 2
 206 370 l 1xfb
 194 365 181 362 168 362 c 0
 115 362 44 404 44 479 c 0
 44 543 99 597 174 597 c 0
 284 597 312 523 312 460 c 2xf7
 312 175 l 2
 312 137 325 91 379 91 c 0
 457 91 470 161 470 194 c 2
 470 505 l 2
 470 533 488 560 523 560 c 0
 552 560 576 536 576 505 c 2
 576 194 l 2
 576 153 593 90 664 90 c 256
 691 90 731 102 731 180 c 2
 731 555 l 2
 731 589 763 598 784 598 c 256xfb
174 435 m 256
 203 435 228 453 228 479 c 256xf7
 228 505 203 524 174 524 c 256
 145 524 119 505 119 479 c 256
 119 453 145 435 174 435 c 256
EndSplineSet
EndChar

StartChar: uni0E1F
Encoding: 3615 3615 242
Width: 910
VWidth: 1473
Flags: W
HStem: -7 98<331.412 426.526 606.973 711.927> 362 73<126.426 199.338> 524 73<127.651 219.877>
VStem: 44 75<445.078 514.206> 206 106<112.285 370> 228 84<443.86 513.876> 470 106<122.774 549.19> 731 107<108.319 777.968>
LayerCount: 2
Fore
SplineSet
784 785 m 256xfb
 806 785 838 777 838 742 c 2
 838 180 l 2
 838 89 803 -7 664 -7 c 0
 598 -7 549 28 523 74 c 1
 477 0 409 -7 380 -7 c 0
 295 -7 206 30 206 180 c 2
 206 370 l 1xfb
 194 365 181 362 168 362 c 0
 115 362 44 404 44 479 c 0
 44 543 99 597 174 597 c 0
 284 597 312 523 312 460 c 2xf7
 312 175 l 2
 312 137 325 91 379 91 c 0
 457 91 470 161 470 194 c 2
 470 505 l 2
 470 533 488 560 523 560 c 0
 552 560 576 536 576 505 c 2
 576 194 l 2
 576 153 593 90 664 90 c 256
 691 90 731 102 731 180 c 2
 731 742 l 2
 731 776 760 785 784 785 c 256xfb
174 435 m 256
 203 435 228 453 228 479 c 256xf7
 228 505 203 524 174 524 c 256
 145 524 119 505 119 479 c 256
 119 453 145 435 174 435 c 256
EndSplineSet
EndChar

StartChar: uni0E20
Encoding: 3616 3616 243
Width: 782
VWidth: 1473
Flags: W
HStem: -7 69<120.589 210.587> 147 70<120.69 187.779> 505 87<295.266 527.588>
VStem: 41 72<70.5365 138.811> 217 79<72.1559 138.892> 603 107<6.60239 436.827>
LayerCount: 2
Fore
SplineSet
93 352 m 0
 93 414 175 592 415 592 c 0
 627 592 710 491 710 339 c 2
 710 42 l 2
 710 8 679 0 656 0 c 256
 626 0 603 12 603 42 c 2
 603 352 l 2
 603 444 555 505 408 505 c 0
 275 505 211 432 193 386 c 1
 200 383 208 380 218 374 c 2
 246 361 l 1
 257 371 287 405 311 405 c 0
 325 405 358 369 358 345 c 0
 358 337 355 330 345 326 c 0
 303 308 296 249 296 236 c 2
 296 112 l 2
 296 16 218 -7 165 -7 c 0
 95 -7 41 41 41 105 c 256
 41 168 95 217 165 217 c 0
 170 217 177 216 187 214 c 1
 187 220 189 225 189 234 c 0
 189 245 191 277 200 290 c 1
 147 315 l 2
 94 340 93 345 93 352 c 0
165 62 m 256
 193 62 217 80 217 105 c 256
 217 129 192 147 165 147 c 256
 138 147 113 129 113 105 c 256
 113 80 137 62 165 62 c 256
EndSplineSet
EndChar

StartChar: uni0E21
Encoding: 3617 3617 244
Width: 777
VWidth: 1473
Flags: W
HStem: -6 108<495.851 586.612> -4 88<167.562 240.818> 199 87<166.959 230.486> 363 72<142.285 225.406> 525 72<142.418 233.891>
VStem: 59 75<443.514 515.178> 74 84<105.157 190.554> 231 106<283 368> 249 81<91.7227 141.225 447.986 509.875> 598 107<110.716 589.968>
LayerCount: 2
Fore
SplineSet
552 102 m 0xbd40
 570 102 598 115 598 175 c 2
 598 554 l 2
 598 588 630 597 651 597 c 256
 673 597 705 588 705 554 c 2
 705 165 l 2
 705 72 657 -6 555 -6 c 0xbd40
 508 -6 482 1 414 61 c 0
 377 94 354 121 330 143 c 1
 330 135 l 2
 330 53 286 -4 210 -4 c 0
 162 -4 74 19 74 136 c 0x7ac0
 74 242 143 286 206 286 c 0
 215 286 223 285 231 283 c 1
 231 368 l 1
 220 365 206 363 189 363 c 0
 115 363 59 413 59 479 c 256
 59 544 114 597 189 597 c 0
 280 597 337 551 337 460 c 2
 337 252 l 1
 356 241 373 229 390 215 c 0
 517 109 505 102 552 102 c 0xbd40
189 435 m 0
 218 435 243 453 243 479 c 256
 243 505 218 525 189 525 c 0
 158 525 134 506 134 479 c 256
 134 453 158 435 189 435 c 0
203 84 m 0x7ac0
 227 84 244 92 249 137 c 0
 249 183 231 199 205 199 c 0
 186 199 158 189 158 137 c 0
 158 125 166 84 203 84 c 0x7ac0
EndSplineSet
EndChar

StartChar: uni0E22
Encoding: 3618 3618 245
Width: 769
VWidth: 1473
Flags: W
HStem: -12 96<310.789 543.134> 228 86<281 293 281.443 397.28> 368 72<209.755 294.385> 530 73<202.118 294.302>
VStem: 69 125<390.665 502.462> 157 106<125.196 202.527> 303 76<450.486 520.913> 589 108<128.201 589.213>
LayerCount: 2
Fore
SplineSet
644 597 m 256xf7
 665 597 697 588 697 554 c 2
 697 212 l 2
 697 42 605 -12 423 -12 c 0
 208 -12 157 100 157 175 c 0xf7
 157 202 164 228 178 252 c 1
 86 293 69 378 69 420 c 0xfb
 69 516 154 603 245 603 c 0
 309 603 379 559 379 486 c 256
 379 422 321 368 249 368 c 0
 220 368 194 376 172 392 c 1
 176 337 237 314 294 314 c 0
 383 314 419 354 450 354 c 0
 487 354 496 322 496 308 c 0
 496 290 483 274 463 264 c 0
 420 244 368 227 305 227 c 0
 297 227 289 228 281 228 c 1
 269 211 263 191 263 175 c 0
 263 138 295 84 423 84 c 0
 551 84 589 117 589 211 c 2
 589 552 l 2
 589 588 621 597 644 597 c 256xf7
249 440 m 0
 278 440 303 460 303 486 c 0
 303 511 278 530 249 530 c 0
 218 530 194 512 194 486 c 0xfb
 194 459 218 440 249 440 c 0
EndSplineSet
EndChar

StartChar: uni0E23
Encoding: 3619 3619 246
Width: 671
VWidth: 1473
Flags: W
HStem: -7 72<362.934 455.511> 155 70<363.194 439.411> 284 95<141.473 223.692> 320 91<260.341 436.091> 510 97<238.886 483.482>
VStem: 43 97<381.101 445.092> 280 75<74.0591 146.278> 446 109<217 283.548> 464 91<74.8678 146.691>
LayerCount: 2
Fore
SplineSet
43 401 m 0xef
 43 525 198 607 373 607 c 0
 542 607 612 532 645 485 c 0
 652 475 656 465 656 456 c 0
 656 431 622 409 596 409 c 0
 546 409 543 510 370 510 c 0
 234 510 140 448 140 407 c 0
 140 392 156 379 169 379 c 0xef
 186 379 266 411 364 411 c 0
 439 411 523 399 550 291 c 0
 554 273 555 258 555 233 c 2xdf
 555 130 l 2xde80
 555 93 544 60 522 34 c 0
 500 6 463 -7 410 -7 c 0
 332 -7 280 49 280 110 c 0
 280 178 345 225 408 225 c 0
 422 225 435 222 446 217 c 1
 446 255 l 2
 446 276 447 320 390 320 c 0xdf
 347 320 213 284 154 284 c 0
 66 284 43 352 43 401 c 0xef
410 65 m 256
 439 65 464 84 464 110 c 256xce80
 464 137 440 155 410 155 c 256
 379 155 355 137 355 110 c 256
 355 84 380 65 410 65 c 256
EndSplineSet
EndChar

StartChar: uni0E24
Encoding: 3620 3620 247
Width: 761
VWidth: 1473
Flags: W
HStem: -261 21G<625.5 647.5> -7 69<259.981 344.685> 147 70<275.456 344.168> 510 87<279.881 503.804>
VStem: 169 84<69.0681 140.001> 351 67<69.399 139.199> 583 106<-253.875 440.966>
LayerCount: 2
Fore
SplineSet
288 408 m 0
 311 408 340 369 340 348 c 0
 340 326 305 332 287 288 c 0
 279 269 275 252 275 239 c 2
 275 214 l 1
 291 216 291 217 302 217 c 0
 369 217 418 167 418 105 c 256
 418 38 365 -7 302 -7 c 0
 206 -7 169 73 169 118 c 1
 166 132 165 149 165 165 c 0
 165 174 166 188 166 196 c 0
 166 210 167 224 169 239 c 0
 169 251 175 283 192 298 c 1
 73 342 73 343 73 361 c 0
 73 426 166 597 396 597 c 0
 608 597 689 495 689 343 c 2
 689 -217 l 2
 689 -252 659 -261 636 -261 c 256
 615 -261 583 -252 583 -217 c 2
 583 357 l 2
 583 449 534 510 387 510 c 0
 259 510 186 434 174 391 c 1
 189 382 206 376 227 364 c 1
 246 384 l 2
 264 401 277 408 288 408 c 0
302 62 m 256
 330 62 351 80 351 105 c 256
 351 129 330 147 302 147 c 256
 274 147 253 129 253 105 c 256
 253 80 274 62 302 62 c 256
EndSplineSet
EndChar

StartChar: uni0E25
Encoding: 3621 3621 248
Width: 770
VWidth: 1473
Flags: W
HStem: -7 69<240.449 335.64> 147 71<249.99 335.952> 295 98<281.453 484.856> 505 98<274.249 509.999>
VStem: 131 103<70.489 195.291> 343 75<71.6523 138.371> 591 107<-1.91956 122.575 320 440.156>
LayerCount: 2
Fore
SplineSet
380 603 m 0
 643 603 698 458 698 362 c 2
 698 34 l 2
 698 -1 666 -10 644 -10 c 0
 624 -9 591 -1 591 34 c 2
 591 94 l 2
 591 121 572 295 386 295 c 0
 307 295 244 275 233 206 c 1
 252 214 270 218 289 218 c 0
 359 218 418 167 418 105 c 0
 418 38 357 -7 289 -7 c 0
 216 -7 131 33 131 167 c 0
 131 262 183 393 380 393 c 0
 456 393 529 375 591 320 c 1
 591 373 l 2
 591 479 484 505 380 505 c 0
 270 505 188 447 165 374 c 0
 159 353 142 342 117 342 c 0
 98 342 69 350 69 383 c 0
 69 459 174 603 380 603 c 0
289 62 m 0
 318 62 343 80 343 105 c 256
 343 129 317 147 289 147 c 0
 259 147 234 130 234 105 c 256
 234 79 258 62 289 62 c 0
EndSplineSet
EndChar

StartChar: uni0E26
Encoding: 3622 3622 249
Width: 779
VWidth: 1473
Flags: W
HStem: -9 69<117.712 207.971> 146 69<117.712 178.976 173.092 184> 511 86<293.79 525.448>
VStem: 40 70<68.7222 137.278> 215 78<69.4885 137.825> 600 107<-251.875 440.966>
LayerCount: 2
Fore
SplineSet
412 597 m 0
 625 597 707 495 707 343 c 2
 707 -215 l 2
 707 -250 678 -259 654 -259 c 0
 630 -259 600 -250 600 -215 c 2
 600 357 l 2
 600 449 555 511 405 511 c 0
 264 511 201 425 192 392 c 1
 197 388 205 384 216 378 c 2
 243 365 l 1
 256 379 288 409 308 409 c 0
 326 409 357 367 357 351 c 0
 357 327 313 338 296 264 c 0
 294 255 293 247 293 240 c 2
 293 110 l 2
 293 12 202 -9 162 -9 c 0
 92 -9 40 40 40 103 c 256
 40 166 92 215 162 215 c 0
 175 215 175 214 184 214 c 1
 185 218 186 231 186 240 c 0
 186 252 190 283 199 295 c 1
 105 340 l 2
 89 349 88 356 93 382 c 0
 116 484 223 597 412 597 c 0
162 60 m 0
 191 60 215 78 215 103 c 256
 215 128 191 146 162 146 c 0
 134 146 110 128 110 103 c 256
 110 78 134 60 162 60 c 0
EndSplineSet
EndChar

StartChar: uni0E27
Encoding: 3623 3623 250
Width: 671
VWidth: 1473
Flags: W
HStem: -7 73<406.701 499.485> 156 69<407.923 484.853> 501 102<230.895 430.877>
VStem: 44 108<340.89 430.932> 324 75<75.7055 145.936> 492 108<217 443.176> 508 92<76.9316 147.33>
LayerCount: 2
Fore
SplineSet
323 603 m 0xfc
 545 603 600 469 600 346 c 2xfc
 600 131 l 2xfa
 600 68 571 -7 454 -7 c 0
 376 -7 324 49 324 110 c 0
 324 184 397 225 452 225 c 0
 466 225 480 222 492 217 c 1
 492 357 l 2
 492 443 454 501 323 501 c 0
 217 501 152 430 152 374 c 0
 149 346 128 333 103 333 c 0
 75 333 44 342 44 379 c 0
 50 496 165 603 323 603 c 0xfc
454 66 m 256
 483 66 508 84 508 110 c 256xfa
 508 137 484 156 454 156 c 256
 424 156 399 137 399 110 c 256
 399 84 425 66 454 66 c 256
EndSplineSet
EndChar

StartChar: uni0E28
Encoding: 3624 3624 251
Width: 729
VWidth: 1473
Flags: W
HStem: 0 21G<116.5 138 593.5 614.5> 187 72<331.071 419.055> 345 72<331.862 418.861> 499 98<265.267 481.92>
VStem: 74 107<7.03229 171.573 302 418.394> 427 75<267.799 336.386> 551 106<7.03229 428.655>
LayerCount: 2
Fore
SplineSet
738 621 m 0
 738 586 657 509 616 482 c 1
 639 444 657 391 657 323 c 2
 657 43 l 2
 657 9 625 0 604 0 c 256
 583 0 551 9 551 43 c 2
 551 324 l 2
 551 444 500 499 376 499 c 256
 276 499 181 464 181 323 c 2
 181 302 l 1
 208 333 282 417 376 417 c 0
 449 417 502 364 502 302 c 256
 502 241 450 187 376 187 c 0
 309 187 276 232 264 253 c 1
 219 214 181 151 181 71 c 2
 181 43 l 2
 181 9 149 0 127 0 c 256
 106 0 74 9 74 43 c 2
 74 323 l 2
 74 499 189 597 376 597 c 0
 441 597 496 583 542 555 c 1
 575 572 618 615 642 657 c 0
 650 669 659 676 670 676 c 0
 678.503 676 738 658.763 738 621 c 0
376 259 m 0
 403 259 427 278 427 302 c 256
 427 326 403 345 376 345 c 0
 347 345 324 327 324 302 c 256
 324 277 347 259 376 259 c 0
EndSplineSet
EndChar

StartChar: uni0E29
Encoding: 3625 3625 252
Width: 864
VWidth: 1473
Flags: W
HStem: -7 95<360.587 574.841> 195 89<561 572.523 508.871 618.463> 363 72<127.639 198.934> 371 67<423.509 495.859> 525 72<126.69 221.757>
VStem: 46 73<445.603 515.685> 206 108<132.832 371> 230 84<444.244 513.49> 349 69<300.127 364.187> 511 71<314.844 366.296> 625 106<133.766 200 330 586.316>
LayerCount: 2
Fore
SplineSet
877 392 m 0xdee0
 877 379 843 277 732 225 c 1
 732 224 l 2
 732 83 675 -7 466 -7 c 0
 265 -7 206 84 206 221 c 2
 206 371 l 1xdee0
 194 366 181 363 168 363 c 0
 112 363 46 404 46 480 c 0
 46 546 102 597 175 597 c 0
 247 597 314 570 314 460 c 2xede0
 314 221 l 2
 314 141 336 88 466 88 c 0
 565 88 617 114 623 200 c 1
 618 199 595 195 576 195 c 0
 540 195 456 201 398 239 c 0
 367 258 349 301 349 331 c 0
 349 392 404 438 466 438 c 0
 529 438 578 393 582 339 c 0
 582 322 577 295 561 284 c 1
 569 284 577 283 584 283 c 0
 599 283 612 284 625 286 c 1
 625 550 l 2
 625 585 654 594 678 594 c 256
 702 594 731 585 731 550 c 2
 731 330 l 1
 791 377 787 437 819 437 c 0
 837 437 877 419 877 392 c 0xdee0
511 330 m 0
 511 363 485 371 469 371 c 0
 432 371 418 349 418 332 c 0
 418 317 433 295 461 295 c 0
 503 295 511 318 511 330 c 0
175 435 m 0xede0
 204 435 230 454 230 480 c 256
 230 507 205 525 175 525 c 0
 144 525 119 507 119 480 c 256
 119 454 145 435 175 435 c 0xede0
EndSplineSet
EndChar

StartChar: uni0E2A
Encoding: 3626 3626 253
Width: 771
VWidth: 1473
Flags: W
HStem: -7 69<240.449 335.64> 147 71<249.99 335.952> 295 98<281.453 484.856> 505 98<274.249 513.725>
VStem: 131 103<70.489 195.291> 343 75<71.6523 138.371> 591 107<-1.91956 122.575 320 441.547>
LayerCount: 2
Fore
SplineSet
786 621 m 0
 786 590 716 515 666 482 c 1
 687 447 698 407 698 362 c 2
 698 34 l 2
 698 -1 666 -10 644 -10 c 0
 624 -9 591 -1 591 34 c 2
 591 94 l 2
 591 121 572 295 386 295 c 0
 307 295 244 275 233 206 c 1
 252 214 270 218 289 218 c 0
 359 218 418 167 418 105 c 0
 418 38 357 -7 289 -7 c 0
 216 -7 131 33 131 167 c 0
 131 262 183 393 380 393 c 0
 456 393 529 375 591 320 c 1
 591 373 l 2
 591 479 484 505 380 505 c 0
 270 505 188 447 165 374 c 0
 159 353 142 342 117 342 c 0
 98 342 69 350 69 383 c 0
 69 459 174 603 380 603 c 0
 467 603 538 587 591 554 c 1
 615 568 663 609 691 657 c 0
 699 669 708 676 718 676 c 0
 727 676 786 659 786 621 c 0
289 62 m 0
 318 62 343 80 343 105 c 256
 343 129 317 147 289 147 c 0
 259 147 234 130 234 105 c 256
 234 79 258 62 289 62 c 0
EndSplineSet
EndChar

StartChar: uni0E2B
Encoding: 3627 3627 254
Width: 802
VWidth: 1473
Flags: W
HStem: 1 21G<248 268.5 667.5 688.5> 341 83<554.197 600.439> 361 74<127.052 202.021> 524 73<127.285 219.483 528.663 625.046>
VStem: 44 75<443.902 515.532> 203 108<8.26666 131.688 290 365> 228 84<444.244 514.907> 423 93<440.283 509.766> 625 106<8.03229 316.159> 639 92<433.556 508.303>
LayerCount: 2
Fore
SplineSet
684 376 m 1xbb40
 711 350 731 312 731 258 c 2
 731 44 l 2
 731 10 699 1 678 1 c 256
 657 1 625 10 625 44 c 2
 625 264 l 2
 625 296 601 341 543 341 c 0
 432 341 325 172 311 44 c 0
 311 9 279 0 258 0 c 256
 238 0 203 9 203 44 c 2
 203 365 l 1xdd80
 194 362 184 361 173 361 c 0
 114 361 44 406 44 480 c 0
 44 546 100 597 174 597 c 0
 259 597 312 547 312 460 c 2
 312 290 l 1
 372 378 423 400 451 410 c 1
 423 424 423 464 423 471 c 0
 423 536 476 600 577 600 c 0
 676 600 731 538 731 471 c 0
 731 433 715 401 684 376 c 1xbb40
579 424 m 0
 627 424 639 452 639 471 c 0xd940
 639 490 625 519 577 519 c 0
 528 519 516 490 516 471 c 0
 516 433 556 424 579 424 c 0
174 435 m 0xbb
 203 435 228 454 228 480 c 256
 228 506 203 524 174 524 c 0
 143 524 119 506 119 480 c 256
 119 453 143 435 174 435 c 0xbb
EndSplineSet
EndChar

StartChar: uni0E2C
Encoding: 3628 3628 255
Width: 911
VWidth: 1473
Flags: W
HStem: -7 98<331.302 426.892 607.694 713.361> 368 72<128.098 199.338> 504 83<653.188 723.055 723.055 731> 530 73<127.651 220.276> 670 91<647.388 708.398>
VStem: 44 75<449.271 520.206> 206 108<107.042 376> 228 86<449.244 520.592> 468 108<171 416.391> 557 86<597.749 664.75> 731 106<108.319 180 180 504>
LayerCount: 2
Fore
SplineSet
896 691 m 0xec60
 910 691 948 666 948 639 c 0
 948 602 892 555 837 529 c 1
 838 180 l 2
 838 89 803 -7 664 -7 c 0
 598 -7 549 28 523 74 c 1
 477 0 409 -7 380 -7 c 0
 293 -7 206 30 206 180 c 2
 206 376 l 1xee60
 194 371 181 368 168 368 c 0
 115 368 44 410 44 485 c 0
 44 549 99 603 174 603 c 0
 286 603 314 524 314 466 c 2xdd20
 314 175 l 2
 314 133 327 91 379 91 c 0
 465 91 466 171 468 194 c 2
 468 374 l 2
 468 403 490 427 523 427 c 0
 554 427 576 403 576 374 c 2
 576 194 l 2xdea0
 578 178 583 90 664 90 c 0
 722 90 731 134 731 180 c 2
 731 504 l 1
 716 504 l 0
 626 504 557 557 557 636 c 0
 557 715 616 761 675 761 c 0
 766 761 815 701 831 626 c 1
 872 658 877 691 896 691 c 0xec60
732 592 m 2
 732 660 697 670 683 670 c 0
 660 670 643 651 643 631 c 0
 643 609 663 587 715 587 c 0
 720 587 726 587 732 588 c 1
 732 592 l 2
174 440 m 256
 203 440 228 459 228 485 c 256
 228 511 203 530 174 530 c 256xdd20
 145 530 119 511 119 485 c 256
 119 459 145 440 174 440 c 256
EndSplineSet
Substitution2: "Single Substitution lookup 22 subtable" uni0E2C.alt1
Substitution2: "Single Substitution lookup 22 subtable" uni0E2C.alt1
EndChar

StartChar: uni0E2D
Encoding: 3629 3629 256
Width: 797
VWidth: 1473
Flags: W
HStem: -7 92<326.266 544.495> 208 65<295.291 381.1> 355 65<295.512 380.633> 514 96<278.694 512.657>
VStem: 169 95<143.937 234.814> 387 68<279.999 347.688> 617 106<159.173 419.785>
LayerCount: 2
Fore
SplineSet
398 610 m 0
 567 610 723 526 723 340 c 2
 723 265 l 2
 723 100 657 -7 416 -7 c 0
 234 -7 169 112 169 213 c 0
 169 320 236 420 336 420 c 0
 403 420 455 378 455 314 c 0
 455 255 402 208 339 208 c 0
 310 208 279 223 267 237 c 1
 265 230 264 222 264 213 c 0
 264 162 295 85 426 85 c 0
 512.475 85 617 93.7007 617 258 c 2
 617 334 l 2
 617 459 521 514 398 514 c 256
 320 514 212 492 178 382 c 256
 173 362 154 343 124 343 c 0
 97 343 81 368 81 391 c 0
 81 432 154 610 398 610 c 0
339 273 m 256
 365 273 387 292 387 314 c 256
 387 336 365 355 339 355 c 256
 312 355 289 337 289 314 c 256
 289 291 312 273 339 273 c 256
EndSplineSet
EndChar

StartChar: uni0E2E
Encoding: 3630 3630 257
Width: 749
VWidth: 1473
Flags: W
HStem: -10 91<249.79 493.64> 153 66<237.937 317.261> 300 65<231.482 318.106> 383 86<212.52 400.406> 537 73<199.202 399.439>
VStem: 66 109<432.629 513.24> 111 92<119.263 241.383> 324 68<226.443 293.397> 572 104<151.936 384.514>
LayerCount: 2
Fore
SplineSet
726 626 m 0xfd80
 726 613 704 542 635 493 c 1
 672 441 676 369 676 328 c 2
 676 242 l 2
 676 40 539 -10 362 -10 c 0
 231 -10 111 41 111 178 c 0
 111 306 203 365 274 365 c 0
 340 365 392 318 392 259 c 0
 392 205 343 153 274 153 c 0
 246 153 217 163 205 177 c 1
 204 172 203 167 203 162 c 0xfb80
 203 129 237 81 364 81 c 0
 493 81 572 115 572 242 c 2
 572 318 l 2
 572 373 563 403 547 440 c 1
 486 395 361 383 277 383 c 0
 221 383 66 390 66 471 c 0
 66 557 187 610 334 610 c 0
 391 610 514 597 569 560 c 1
 637 624 609 672 659 672 c 0
 685 672 726 655 726 626 c 0xfd80
175 488 m 0xfd80
 175 471 245 469 287 469 c 0
 351 469 448 477 483 512 c 1
 466 529 397 537 333 537 c 0
 215 537 175 510 175 488 c 0xfd80
274 219 m 256
 301 219 324 236 324 259 c 0
 324 284 302 300 274 300 c 256
 247 300 225 284 225 259 c 0
 225 236 247 219 274 219 c 256
EndSplineSet
EndChar

StartChar: uni0E2F
Encoding: 3631 3631 258
Width: 699
VWidth: 1473
Flags: W
HStem: 0 21G<561 584> 311 97<283.615 409.085> 533 72<140.251 231.841>
VStem: 56 75<453.459 523.16> 240 75<451.372 523.48> 524 102<6.86459 390>
LayerCount: 2
Fore
SplineSet
630 561 m 0
 630 555 628 547 626 544 c 1
 626 41 l 2
 626 8 593 0 575 0 c 256
 547 0 524 14 524 41 c 2
 524 390 l 1
 466 341 390 311 298 311 c 0
 199 311 56 364 56 488 c 0
 56 552 114 605 186 605 c 0
 260 605 315 552 315 488 c 0
 315 457 304 431 283 410 c 1
 292 409 301 408 310 408 c 0
 407 408 511 471 530 580 c 0
 532 589 538 607 571 607 c 0
 604 607 630 586 630 561 c 0
186 443 m 0
 216 443 240 461 240 488 c 256
 240 514 216 533 186 533 c 0
 157 533 131 514 131 488 c 256
 131 461 156 443 186 443 c 0
EndSplineSet
EndChar

StartChar: uni0E30
Encoding: 3632 3632 259
Width: 713
VWidth: 1473
Flags: W
HStem: 3 90<319.441 439.328> 202 72<157.676 249.983> 317 90<319.441 381.447> 516 72<157.676 249.983>
VStem: 74 75<122.351 191.7 433.597 505.7> 258 75<126.308 193.168 439.324 507.168>
LayerCount: 2
Fore
SplineSet
331 317 m 0
 208 317 74 366 74 470 c 0
 74 535 131 588 203 588 c 0
 280 588 333 533 333 470 c 0
 333 447 327 426 314 407 c 1
 381 407 509 409 538 548 c 0
 542 569 557 579 580 579 c 0
 599 579 639 571 639 537 c 0
 639 494 581 317 331 317 c 0
331 3 m 0
 208 3 74 52 74 156 c 0
 74 221 131 274 203 274 c 0
 280 274 333 219 333 156 c 0
 333 135 327 114 314 93 c 1
 381 93 509 97 538 234 c 0
 542 256 559 266 583 266 c 0
 606 266 639 252 639 224 c 0
 639 171 569 3 331 3 c 0
203 424 m 0
 234 424 258 443 258 470 c 256
 258 497 234 516 203 516 c 0
 174 516 149 496 149 470 c 256
 149 444 174 424 203 424 c 0
203 112 m 0
 234 112 258 130 258 156 c 256
 258 183 234 202 203 202 c 0
 174 202 149 182 149 156 c 256
 149 130 174 112 203 112 c 0
EndSplineSet
EndChar

StartChar: uni0E31
Encoding: 3633 3633 260
Width: 0
VWidth: 1473
Flags: W
HStem: 682 91<-243.517 -160.716> 881 72<-390.524 -298.017>
VStem: -474 75<800.628 870.885> -290 75<804.649 872.168>
LayerCount: 2
Fore
SplineSet
146 953 m 0
 160 953 205 942 205 912 c 0
 205 822 49 682 -206 682 c 0
 -371 682 -474 743 -474 835 c 0
 -474 901 -418 953 -345 953 c 256
 -268 953 -215 898 -215 835 c 0
 -215 823 -217 785 -247 773 c 1
 -233 773 l 2
 -179 773 41 774 113 931 c 0
 119 944 128 953 146 953 c 0
-345 790 m 0
 -314 790 -290 808 -290 835 c 256
 -290 862 -314 881 -345 881 c 0
 -374 881 -399 861 -399 835 c 256
 -399 809 -374 790 -345 790 c 0
EndSplineSet
Substitution2: "Single Substitution lookup 22 subtable" uni0E31.alt1
Substitution2: "Single Substitution lookup 22 subtable" uni0E31.alt1
EndChar

StartChar: uni0E32
Encoding: 3634 3634 261
Width: 634
VWidth: 1473
Flags: W
HStem: 0 21G<499 520.5> 502 102<225.196 401.999>
VStem: 455 108<7.68356 450.184>
LayerCount: 2
Fore
SplineSet
314 604 m 0
 459 604 563 509 563 383 c 2
 563 44 l 2
 563 9 531 -0 510 0 c 256
 488 0 455 9 455 43 c 2
 455 383 l 2
 455 425 434 502 309 502 c 0
 228 502 171 450 147 411 c 0
 139 397 128 391 111 391 c 0
 83 391 46 413 46 439 c 0
 46 478 148 604 314 604 c 0
EndSplineSet
EndChar

StartChar: uni0E33
Encoding: 3635 3635 262
Width: 612
VWidth: 1473
Flags: W
HStem: 0 21G<475 496.5> 502 102<202.258 377.628> 698 84<-228.898 -108.501> 888 84<-230.532 -107.473>
VStem: -326 84<795.374 874.895> -97 84<795.02 876.5> 432 107<7.12534 451.639>
LayerCount: 2
Fore
SplineSet
-169 972 m 0
 -65 972 -13 896 -13 835 c 0
 -13 752 -83 698 -169 698 c 0
 -259 698 -326 754 -326 835 c 0
 -326 908 -256 972 -169 972 c 0
290 604 m 0
 431 604 539 516 539 383 c 2
 539 44 l 2
 539 9 507 -0 486 0 c 256
 464 0 432 9 432 43 c 2
 432 383 l 2
 432 426 410 502 287 502 c 0
 189 502 134 430 124 411 c 0
 112 392 96 391 87 391 c 0
 59 391 22 413 22 439 c 0
 22 477 123 604 290 604 c 0
-169 782 m 0
 -139 782 -97 793 -97 835 c 0
 -97 856 -106 888 -169 888 c 0
 -229 888 -242 856 -242 835 c 0
 -242 793 -198 782 -169 782 c 0
EndSplineSet
Substitution2: "Single Substitution lookup 22 subtable" uni0E33.alt1
Substitution2: "Single Substitution lookup 22 subtable" uni0E33.alt1
EndChar

StartChar: uni0E34
Encoding: 3636 3636 263
Width: 0
VWidth: 1473
Flags: W
HStem: 654 239<-358 -97> 679 70<-503.106 -249.717> 818 75<-427.23 -269.343>
LayerCount: 2
Fore
SplineSet
-66 705 m 0x80
 -66 683 -85 654 -97 654 c 0x80
 -108 654 -202 679 -378 679 c 0x40
 -499 679 -620 662 -621 662 c 0
 -638 662 -670 672 -670 713 c 0
 -670 748 -632 746 -594 786 c 0
 -494 893 -397 893 -358 893 c 0
 -199 893 -121 758 -84 738 c 0
 -68 728 -66 712 -66 705 c 0x80
-194 729 m 1
 -215 745 -245 818 -358 818 c 0
 -445 818 -494 759 -539 738 c 1
 -489 745 -438 749 -386 749 c 0x60
 -317 749 -256 742 -194 729 c 1
EndSplineSet
Substitution2: "Single Substitution lookup 22 subtable" uni0E34.alt1
Substitution2: "Single Substitution lookup 22 subtable" uni0E34.alt1
EndChar

StartChar: uni0E35
Encoding: 3637 3637 264
Width: 0
VWidth: 1473
Flags: W
HStem: 657 324<-194.275 -104.188> 680 69<-502.201 -252.428> 818 76<-433.536 -270.768>
VStem: -202 100<840 976.85>
LayerCount: 2
Fore
SplineSet
-67 708 m 0x90
 -67 698 -76 657 -105 657 c 0x90
 -110 657 -207 680 -387 680 c 0
 -516 680 -606 663 -620 663 c 0
 -635 663 -668 671 -668 712 c 0
 -668 752 -628 747 -593 786 c 0
 -499 891 -417 894 -362 894 c 0x70
 -313 894 -284 888 -202 840 c 1
 -202 944 l 2
 -202 966 -190 981 -152 981 c 0
 -112 981 -102 966 -102 944 c 2
 -102 751 l 1
 -81 742 -67 727 -67 708 c 0x90
-196 729 m 1
 -216 747 -254 818 -364 818 c 0
 -452 818 -486 763 -538 738 c 1
 -488 745 -437 749 -386 749 c 0x70
 -317 749 -257 742 -196 729 c 1
EndSplineSet
Substitution2: "Single Substitution lookup 22 subtable" uni0E35.alt1
Substitution2: "Single Substitution lookup 22 subtable" uni0E35.alt1
EndChar

StartChar: uni0E36
Encoding: 3638 3638 265
Width: 0
VWidth: 1473
Flags: W
HStem: 656 162<-186.528 -98.7894> 680 69<-503.417 -254.201> 818 76<-435.221 -298.617> 897 65<-186.878 -114.703>
VStem: -110 67<822.769 892.337>
LayerCount: 2
Fore
SplineSet
-150 962 m 256x78
 -84 962 -43 913 -43 856 c 0
 -43 800 -81 771 -110 763 c 1
 -72 725 -70 724 -70 710 c 0
 -70 690 -83 656 -104 656 c 0xb8
 -116 656 -204 680 -389 680 c 0
 -516 680 -608 663 -621 663 c 0
 -632 663 -669 669 -669 710 c 0
 -669 750 -631 748 -594 788 c 0
 -500 892 -420 894 -365 894 c 0
 -326 894 -280 884 -255 869 c 1
 -256 923 -214 962 -150 962 c 256x78
-199 729 m 1
 -219 747 -257 818 -367 818 c 0
 -455 818 -491 761 -539 738 c 1
 -489 745 -439 749 -387 749 c 0x78
 -320 749 -260 742 -199 729 c 1
-150 818 m 256xb8
 -129 818 -110 834 -110 859 c 0
 -110 880 -127 897 -150 897 c 256
 -172 897 -192 880 -192 859 c 0
 -192 834 -171 818 -150 818 c 256xb8
EndSplineSet
Substitution2: "Single Substitution lookup 22 subtable" uni0E36.alt1
Substitution2: "Single Substitution lookup 22 subtable" uni0E36.alt1
EndChar

StartChar: uni0E37
Encoding: 3639 3639 266
Width: 0
VWidth: 1473
Flags: W
HStem: 657 323<-128.59 -101.919> 680 69<-503.835 -255.029> 818 76<-449.283 -329.327>
VStem: -329 89<891 975.447> -190 91<831 959.611>
LayerCount: 2
Fore
SplineSet
-144 980 m 0x98
 -105 980 -99 957 -99 944 c 2
 -99 751 l 1
 -79 738 -69 725 -69 712 c 0
 -69 697 -73 657 -110 657 c 0x98
 -117 657 -206 680 -389 680 c 0
 -517 680 -609 663 -622 663 c 0
 -641 663 -670 673 -670 713 c 0
 -670 751 -629 749 -594 786 c 0
 -512 876 -449 894 -365 894 c 2
 -344 894 l 2x78
 -342 894 -336 893 -329 891 c 1
 -329 944 l 2
 -329 958 -318 980 -284 980 c 256
 -251 980 -240 958 -240 944 c 2
 -240 863 l 1
 -230 854 -200 841 -190 831 c 1
 -190 944 l 2
 -190 958 -179 980 -144 980 c 0x98
-199 729 m 1
 -219 747 -257 818 -367 818 c 0
 -455 818 -491 761 -539 738 c 1
 -489 745 -439 749 -387 749 c 0x78
 -320 749 -260 742 -199 729 c 1
EndSplineSet
Substitution2: "Single Substitution lookup 22 subtable" uni0E37.alt1
Substitution2: "Single Substitution lookup 22 subtable" uni0E37.alt1
EndChar

StartChar: uni0E38
Encoding: 3640 3640 267
Width: 0
VWidth: 1473
Flags: W
HStem: -296 72<-241.818 -179.664 -185 -174.328> -133 73<-242.232 -148.685>
VStem: -326 76<-214.364 -142.327> -174 108<-427.213 -295> -141 75<-215.33 -141.767>
LayerCount: 2
Fore
SplineSet
-196 -60 m 0xf0
 -119 -60 -66 -117 -66 -178 c 2xe8
 -66 -390 l 2
 -66 -419 -89 -435 -119 -435 c 0
 -141 -435 -174 -426 -174 -390 c 2
 -174 -295 l 1
 -183 -295 -187 -296 -196 -296 c 0
 -269 -296 -326 -244 -326 -178 c 256
 -326 -114 -270 -60 -196 -60 c 0xf0
-196 -224 m 256
 -165 -224 -141 -205 -141 -178 c 256
 -141 -151 -165 -133 -196 -133 c 256
 -226 -133 -250 -151 -250 -178 c 256
 -250 -205 -227 -224 -196 -224 c 256
EndSplineSet
Substitution2: "Single Substitution lookup 21 subtable" a
Substitution2: "Single Substitution lookup 22 subtable" uni0E38.alt1
Substitution2: "Single Substitution lookup 21 subtable" a
Substitution2: "Single Substitution lookup 22 subtable" uni0E38.alt1
EndChar

StartChar: uni0E39
Encoding: 3641 3641 268
Width: 0
VWidth: 1473
Flags: W
HStem: -438 379<-393 -220 -393 -220 -393 -393> -438 81<-260.878 -176.946> -295 73<-440.115 -376.953 -382 -371.906> -131 72<-439.582 -347.787>
VStem: -523 457<-240 -112 -177 -113 -177 -177> -523 75<-212.488 -140.822> -371 107<-351.101 -340 -340 -293> -339 75<-213.397 -141.934> -174 108<-353.973 -113 -113 -77.2667>
LayerCount: 2
Fore
SplineSet
-119 -69 m 256x4280
 -98 -69 -66 -78 -66 -113 c 2x48
 -66 -331 l 2
 -66 -395 -98 -438 -220 -438 c 0
 -273 -438 -371 -422 -371 -340 c 2
 -371 -293 l 1x8280
 -380 -293 -384 -295 -393 -295 c 0
 -469 -295 -523 -240 -523 -177 c 256x28
 -523 -112 -468 -59 -393 -59 c 0
 -336 -59 -264 -95 -264 -172 c 2x81
 -264 -323 l 2
 -264 -346 -248 -357 -215 -357 c 0
 -182 -357 -174 -346 -174 -320 c 2
 -174 -113 l 2
 -174 -78 -139 -69 -119 -69 c 256x4280
-393 -222 m 256x35
 -363 -222 -339 -203 -339 -177 c 256
 -339 -151 -363 -131 -393 -131 c 256
 -424 -131 -448 -150 -448 -177 c 256
 -448 -204 -424 -222 -393 -222 c 256x35
EndSplineSet
Substitution2: "Single Substitution lookup 21 subtable" b
Substitution2: "Single Substitution lookup 22 subtable" uni0E39.alt1
Substitution2: "Single Substitution lookup 21 subtable" b
Substitution2: "Single Substitution lookup 22 subtable" uni0E39.alt1
EndChar

StartChar: uni0E3A
Encoding: 3642 3642 269
Width: 0
VWidth: 1473
Flags: W
HStem: -234 162<-208.763 -82.4258>
VStem: -239 186<-203.546 -99.6919>
LayerCount: 2
Fore
SplineSet
-146 -72 m 0
 -84 -72 -53 -115 -53 -150 c 0
 -53 -196 -92 -234 -146 -234 c 0
 -208 -234 -239 -189 -239 -150 c 0
 -239 -116 -210 -72 -146 -72 c 0
EndSplineSet
Substitution2: "Single Substitution lookup 21 subtable" c
Substitution2: "Single Substitution lookup 22 subtable" uni0E3A.alt1
Substitution2: "Single Substitution lookup 21 subtable" c
Substitution2: "Single Substitution lookup 22 subtable" uni0E3A.alt1
EndChar

StartChar: uni0E3F
Encoding: 3647 3647 270
Width: 748
VWidth: 1473
Flags: W
HStem: 0 105<231.899 311 405 518.577> 302 109<236.083 311 405 526.82> 608 112<234.43 311 405 499.946> 836 20G<345 377.5>
VStem: 60 109<164.971 231 231 550.274> 311 94<-111.678 0 105 302 411 608 722 849.593> 566 110<148.986 255.998 447.537 558.454>
LayerCount: 2
Fore
SplineSet
595 358 m 1
 671 316 676 235 676 206 c 0
 676 82 573 0 435 0 c 2
 405 0 l 1
 405 -62 l 2
 405 -90 398 -118 359 -118 c 0
 330 -118 311 -103 311 -62 c 2
 311 0 l 1
 176 3 60 78 60 231 c 2
 60 485 l 2
 60 641 181 707 311 720 c 1
 311 798 l 2
 311 845 331 856 359 856 c 0
 396 856 405 826 405 798 c 2
 405 722 l 1
 523 711 676 650 676 499 c 0
 676 436 649 389 595 358 c 1
227 358 m 0
 227 397 252 411 289 411 c 2
 311 411 l 1
 311 608 l 1
 239 600 169 568 169 482 c 2
 169 236 l 2
 169 146 230 114 311 105 c 1
 311 302 l 1
 289 302 l 2
 239 302 227 330 227 358 c 0
435 105 m 2
 496 105 566 135 566 206 c 0
 566 270 520 302 427 302 c 2
 405 302 l 1
 405 105 l 1
 435 105 l 2
427 411 m 2
 495 411 566 430 566 505 c 0
 566 547 535 598 405 611 c 1
 405 411 l 1
 427 411 l 2
EndSplineSet
EndChar

StartChar: uni0E40
Encoding: 3648 3648 271
Width: 402
VWidth: 1473
Flags: W
HStem: -7 72<208.561 300.702> 156 72<219.837 301.032> 577 20G<151.5 176>
VStem: 109 108<224 589.782> 109 91<73.6661 147.624> 309 76<74.5198 146.511>
LayerCount: 2
Fore
SplineSet
255 228 m 0xf4
 328 228 385 176 385 110 c 256
 385 46 328 -7 255 -7 c 0
 195 -7 109 21 109 131 c 2xec
 109 552 l 2
 109 588 139 597 164 597 c 256
 188 597 217 588 217 552 c 2
 217 224 l 1
 228 227 241 228 255 228 c 0xf4
255 65 m 256
 285 65 309 84 309 110 c 256
 309 138 285 156 255 156 c 256
 223 156 200 138 200 110 c 256
 200 83 224 65 255 65 c 256
EndSplineSet
EndChar

StartChar: uni0E41
Encoding: 3649 3649 272
Width: 749
VWidth: 1473
Flags: W
HStem: -7 72<206.428 300.385 554.934 647.915> 156 72<219.809 300.501 566.336 648.424> 577 20G<150 175 498.5 522>
VStem: 109 108<224 590.325> 109 90<73.9351 146.99> 309 76<74.8404 146.178> 455 108<224 589.213> 455 92<73.6661 148.237> 656 75<74.3728 147.315>
LayerCount: 2
Fore
SplineSet
601 228 m 0xe680
 678 228 731 173 731 110 c 256
 731 46 676 -7 601 -7 c 0
 541 -7 455 21 455 131 c 2xe580
 455 552 l 2
 455 588 487 597 510 597 c 256
 534 597 563 588 563 552 c 2
 563 224 l 1
 574 227 587 228 601 228 c 0xe680
255 228 m 0
 327 228 385 175 385 110 c 256
 385 46 327 -7 255 -7 c 0
 194 -7 109 21 109 131 c 2xec80
 109 552 l 2
 109 588 138 597 162 597 c 0
 188 597 217 588 217 552 c 2
 217 224 l 1xf480
 228 227 241 228 255 228 c 0
601 65 m 256
 632 65 656 83 656 110 c 256
 656 138 633 156 601 156 c 256
 569 156 547 138 547 110 c 256xe580
 547 83 570 65 601 65 c 256
255 65 m 0
 284 65 309 84 309 110 c 256
 309 137 285 156 255 156 c 0
 224 156 199 138 199 110 c 256xec80
 199 83 224 65 255 65 c 0
EndSplineSet
EndChar

StartChar: uni0E42
Encoding: 3650 3650 273
Width: 441
VWidth: 1473
Flags: W
HStem: -7 72<232.396 325.702> 156 72<247.141 326.032> 845 89<13.7464 71.0692 71.0692 126.592> 1050 90<72.3984 264.529>
VStem: -86 96<944.601 1004.62> 138 108<224 840.211> 138 87<74.1787 147.624> 334 76<74.5198 146.511>
LayerCount: 2
Fore
SplineSet
280 -7 m 0xfd
 166 -7 138 64 138 146 c 2xfb
 138 787 l 2
 138 831 119 848 89 848 c 0
 74 848 71 845 53 845 c 0
 18 845 -86 862 -86 964 c 0
 -86 1066 39 1140 196 1140 c 0
 364 1140 446 1056 470 1020 c 0
 493 987 500 980 500 964 c 0
 500 937 468 918 446 918 c 0
 390 918 406 987 298 1030 c 0
 257 1047 197 1050 186 1050 c 0
 107 1050 10 1016 10 966 c 0
 10 955 17 934 46 934 c 2
 102 934 l 2
 213 934 245 864 246 824 c 2
 246 224 l 1
 256 227 267 228 280 228 c 0
 353 228 410 176 410 110 c 256
 410 46 353 -7 280 -7 c 0xfd
280 65 m 256
 310 65 334 84 334 110 c 256
 334 138 310 156 280 156 c 256
 248 156 225 138 225 110 c 256
 225 83 249 65 280 65 c 256
EndSplineSet
EndChar

StartChar: uni0E43
Encoding: 3651 3651 274
Width: 441
VWidth: 1473
Flags: W
HStem: -7 72<232.363 325.702> 156 72<247.141 326.032> 806 74<35.3122 130.519> 969 56<75.1406 130.464> 1044 87<129.295 303.055>
VStem: -54 82<888.607 958.465> 137 88<74.6218 147.624> 137 109<224 704.892> 138 76<889.924 960.069> 334 76<74.5198 146.511> 366 91<877.691 989.166>
LayerCount: 2
Fore
SplineSet
216 1131 m 0xfca0
 333 1131 457 1053 457 922 c 0
 457 877 439 815 357 757 c 0
 317 733 246 708 246 672 c 2
 246 224 l 1xfd20
 256 227 267 228 280 228 c 0
 353 228 410 176 410 110 c 256
 410 46 353 -7 280 -7 c 0
 166 -7 137 65 137 146 c 2xfe40
 137 682 l 2xfd
 137 767 262 813 298 837 c 0
 338 865 366 893 366 931 c 0
 366 996 299 1044 203 1044 c 0
 160 1044 126 1036 97 1024 c 1
 103 1025 109 1025 114 1025 c 0
 174 1025 214 967 214 924 c 0
 214 856 155 810 82 806 c 0
 35 806 -54 840 -54 936 c 0
 -54 1092 113 1131 216 1131 c 0xfca0
82 880 m 0
 113 880 138 898 138 924 c 256xfc80
 138 951 113 969 82 969 c 0
 53 969 28 950 28 924 c 256
 28 898 53 880 82 880 c 0
280 65 m 256
 310 65 334 84 334 110 c 256
 334 138 310 156 280 156 c 256
 248 156 225 138 225 110 c 256xfe40
 225 83 249 65 280 65 c 256
EndSplineSet
EndChar

StartChar: uni0E44
Encoding: 3652 3652 275
Width: 441
VWidth: 1473
Flags: W
HStem: -9 72<233.611 324.868> 155 72<247.641 324.868> 841 21G<68.5 121> 1005 82<200.453 331.463> 1028 75<-127.597 -68.4844>
VStem: 137 87<72.6275 145.372> 137 108<222 665.645> 334 76<72.9604 145.04> 373 90<884 961.268>
LayerCount: 2
Fore
SplineSet
263 1087 m 0xf280
 381 1087 463 1010 463 888 c 0
 463 781 329 764 261 690 c 0
 250 678 245 660 245 635 c 2
 245 222 l 1xf280
 254 225 265 227 278 227 c 0
 352 227 410 175 410 109 c 256
 410 43 352 -9 278 -9 c 0
 165 -9 137 63 137 144 c 2xf5
 137 644 l 2
 137 752 219 786 241 800 c 2
 344 866 l 2
 359 876 369 882 373 884 c 1
 375 956 332 1005 272 1005 c 0xf280
 208 1005 144 957 144 884 c 0
 144 866 144 841 98 841 c 0
 39 841 72 883 36 944 c 0
 0 1003 -63 1028 -116 1028 c 0
 -139 1028 -151 1038 -151 1059 c 0
 -151 1095 -127 1103 -109 1103 c 0xea80
 -75 1103 54 1094 99 987 c 1
 124 1070 216 1087 263 1087 c 0xf280
278 63 m 0
 309 63 334 82 334 109 c 256
 334 136 309 155 278 155 c 0
 249 155 224 135 224 109 c 256xe5
 224 83 249 63 278 63 c 0
EndSplineSet
EndChar

StartChar: uni0E45
Encoding: 3653 3653 276
Width: 634
VWidth: 1473
Flags: W
HStem: 494 103<219.394 398.052>
VStem: 452 108<-244.316 440.372>
LayerCount: 2
Fore
SplineSet
312 597 m 0
 451 597 560 509 560 376 c 2
 560 -208 l 2
 560 -243 530 -252 507 -252 c 256
 485 -252 452 -243 452 -209 c 2
 452 376 l 2
 452 421 424 494 305 494 c 0
 241 494 178 459 144 404 c 0
 136 390 125 384 108 384 c 0
 72 384 44 413 44 434 c 0
 44 474 149 597 312 597 c 0
EndSplineSet
EndChar

StartChar: uni0E46
Encoding: 3654 3654 277
Width: 729
VWidth: 1473
Flags: W
HStem: 339 72<144.177 236.365> 502 97<143.009 288.928 437.439 533.018>
VStem: 57 79<420.438 492.856> 245 71<419.994 483.219> 547 107<-250.683 454.096>
LayerCount: 2
Fore
SplineSet
436 483 m 1
 441 467 457 443 457 423 c 0
 457 396 432 388 415 388 c 0
 369 388 381 428 337 486 c 0
 322 504 304 515 281 517 c 1
 313 504 316 457 316 447 c 0
 316 380 258 339 190 339 c 0
 110 339 57 399 57 461 c 0
 57 503 91 599 237 599 c 0
 307 599 360 579 389 541 c 1
 404 578 452 596 499 596 c 0
 548 596 654 572 654 414 c 2
 654 -214 l 2
 654 -249 623 -258 600 -258 c 256
 570 -258 547 -245 547 -214 c 2
 547 414 l 2
 547 439 547 506 488 506 c 0
 467 506 444 490 436 483 c 1
190 411 m 256
 221 411 245 430 245 457 c 256
 245 484 221 502 190 502 c 256
 160 502 136 484 136 457 c 256
 136 430 159 411 190 411 c 256
EndSplineSet
EndChar

StartChar: uni0E47
Encoding: 3655 3655 278
Width: 0
VWidth: 1473
Flags: W
HStem: 661 394<-185 -79 -185 -79 -79 -79> 661 58<-252.505 -129.009> 796 57<-213.124 -129.172>
VStem: -570 78<752.477 829.439> -277 59<737.175 789.194> -124 59<725.412 788.622>
LayerCount: 2
Fore
SplineSet
-353 845 m 0x3c
 -343 845 -319 832 -319 812 c 0
 -319 796 -339 770 -339 770 c 1
 -326 752 -288 739 -268 732 c 1
 -273 738 -277 749 -277 757 c 0
 -277 811 -231 853 -171 853 c 0x3c
 -112 853 -65 810 -65 757 c 0
 -65 708 -105 661 -185 661 c 0
 -246 661 -342 673 -379 715 c 1
 -415 663 l 1
 -438 663 l 2
 -517 663 -570 731 -570 801 c 0
 -570 834 -551 931 -396 958 c 0
 -233 984 -133 1019 -118 1034 c 1
 -86 1054 -89 1055 -79 1055 c 0x9c
 -61 1055 -41 1039 -41 1016 c 0
 -41 972 -104 945 -208 918 c 0
 -364 876 -421 890 -468 846 c 0
 -484 830 -492 813 -492 796 c 0
 -492 761 -463 744 -446 738 c 1
 -386 824 l 2
 -379 833 -367 845 -353 845 c 0x3c
-171 719 m 0x7c
 -146 719 -124 735 -124 757 c 256
 -124 779 -146 796 -171 796 c 0
 -197 796 -218 780 -218 757 c 256
 -218 734 -198 719 -171 719 c 0x7c
EndSplineSet
Substitution2: "Single Substitution lookup 22 subtable" uni0E47.alt1
Substitution2: "Single Substitution lookup 22 subtable" uni0E47.alt1
EndChar

StartChar: uni0E48
Encoding: 3656 3656 279
Width: 0
VWidth: 1473
Flags: W
HStem: 1074 243<-206.479 -112.495>
VStem: -211 103<1079.77 1311.23>
LayerCount: 2
Fore
SplineSet
-108 1118 m 2
 -108 1089 -125 1074 -159 1074 c 256
 -194 1074 -211 1089 -211 1118 c 2
 -211 1273 l 2
 -211 1302 -194 1317 -159 1317 c 256
 -125 1317 -108 1302 -108 1273 c 2
 -108 1118 l 2
EndSplineSet
Substitution2: "Single Substitution lookup 22 subtable" uni0E48.alt2
Substitution2: "Single Substitution lookup 22 subtable" uni0E48.alt2
EndChar

StartChar: uni0E49
Encoding: 3657 3657 280
Width: 0
VWidth: 1473
Flags: W
HStem: 1040 299 1171 45<-257.027 -225> 1282 51<-245.857 -180.8>
VStem: -344 444 -320 60<1219.34 1276.81> -177 59<1221.32 1276.76>
LayerCount: 2
Fore
SplineSet
63 1339 m 2x8c
 92 1339 100 1330 100 1316 c 0
 100 1313 99 1186 -12 1117 c 0
 -122 1049 -298 1040 -304 1040 c 0
 -327 1040 -344 1070 -344 1093 c 0x90
 -344 1111 -327 1121 -311 1123 c 2
 -280 1127 l 1
 -255 1136 -229 1165 -225 1171 c 1
 -235 1171 l 2
 -299 1171 -320 1217 -320 1249 c 0
 -320 1283 -297 1333 -212 1333 c 0x68
 -131 1333 -118 1269 -118 1239 c 0
 -118 1192 -161 1141 -183 1133 c 1
 -158 1142 -82 1144 -22 1219 c 0
 34 1287 -12 1339 52 1339 c 2
 63 1339 l 2x8c
-225 1216 m 0x6c
 -213 1216 -177 1221 -177 1251 c 0
 -177 1262 -193 1282 -218 1282 c 0
 -233 1282 -260 1271 -260 1252 c 0
 -260 1231 -244 1216 -225 1216 c 0x6c
EndSplineSet
Substitution2: "Single Substitution lookup 22 subtable" uni0E49.alt2
Substitution2: "Single Substitution lookup 22 subtable" uni0E49.alt2
EndChar

StartChar: uni0E4A
Encoding: 3658 3658 281
Width: 0
VWidth: 1473
Flags: W
HStem: 1033 42<-376.1 -304.295> 1036 306<-340 49 195.644 270.095> 1139 45<-371.716 -304.809> 1224 62<-363.505 -269.392 -158.356 -83.9053>
VStem: -454 74<1078.87 1170.05> -302 47<1078.41 1135.44> -239 74<1133.59 1164 1164 1208.43>
LayerCount: 2
Fore
SplineSet
-165 1171 m 0x4e
 -165 1151 -179 1130 -202 1130 c 0
 -219 1130 -235 1142 -239 1164 c 0
 -244 1217 -289 1224 -307 1224 c 0
 -342 1224 -375 1201 -383 1174 c 1
 -369 1181 -355 1184 -340 1184 c 0
 -294 1184 -255 1152 -255 1111 c 0
 -255 1049 -304 1033 -340 1033 c 0
 -431 1033 -454 1106 -454 1148 c 0
 -454 1247 -366 1286 -305 1286 c 0xbe
 -262 1286 -224 1276 -208 1246 c 1
 -195 1269 -173 1283 -126 1283 c 0
 -85 1283 -44 1264 -24 1229 c 1
 26 1316 9 1325 31 1338 c 0
 37 1341 43 1342 49 1342 c 0
 70 1342 86 1329 86 1305 c 0
 86 1271 -4 1097 -47 1049 c 0
 -54 1040 -64 1036 -74 1036 c 0
 -92 1036 -112 1053 -112 1071 c 0
 -112 1081 -109 1090 -102 1098 c 1
 -102 1099 -71 1136 -71 1167 c 0
 -71 1203 -98 1219 -123 1219 c 0
 -161 1219 -165 1192 -165 1171 c 0x4e
-340 1075 m 256
 -316 1075 -302 1094 -302 1106 c 0
 -302 1125 -318 1139 -340 1139 c 256
 -362 1139 -380 1125 -380 1106 c 0
 -380 1094 -366 1075 -340 1075 c 256
EndSplineSet
Substitution2: "Single Substitution lookup 22 subtable" uni0E4A.alt2
Substitution2: "Single Substitution lookup 22 subtable" uni0E4A.alt2
EndChar

StartChar: uni0E4B
Encoding: 3659 3659 282
Width: 0
VWidth: 1473
Flags: W
HStem: 1033 288<-182 -134> 1139 75<-288 -196 -110 -21>
VStem: -301 292<1151 1201 1176 1176 1176 1176> -196 86<1046 1139 1214 1309>
LayerCount: 2
Fore
SplineSet
-153 1321 m 0x90
 -132 1321 -110 1314 -110 1285 c 2
 -110 1214 l 1x50
 -46 1214 l 2
 -21 1214 -9 1201 -9 1176 c 0x60
 -9 1151 -21 1139 -46 1139 c 2
 -110 1139 l 1x50
 -110 1072 l 2
 -110 1041 -134 1033 -153 1033 c 0x90
 -182 1033 -196 1046 -196 1072 c 2
 -196 1139 l 1x50
 -262 1139 l 2
 -288 1139 -301 1151 -301 1176 c 0x60
 -301 1201 -288 1214 -262 1214 c 2
 -196 1214 l 1x50
 -196 1285 l 2
 -196 1309 -182 1321 -153 1321 c 0x90
 -132 1321 -110 1314 -110 1285 c 2
 -110 1214 l 1x50
 -46 1214 l 2
 -21 1214 -9 1201 -9 1176 c 0x60
 -9 1151 -21 1139 -46 1139 c 2
 -110 1139 l 1x50
 -110 1072 l 2
 -110 1041 -134 1033 -153 1033 c 0x90
 -182 1033 -196 1046 -196 1072 c 2
 -196 1139 l 1x50
 -262 1139 l 2
 -288 1139 -301 1151 -301 1176 c 0x60
 -301 1201 -288 1214 -262 1214 c 2
 -196 1214 l 1x50
 -196 1285 l 2
 -196 1309 -182 1321 -153 1321 c 0x90
EndSplineSet
Substitution2: "Single Substitution lookup 22 subtable" uni0E4B.alt2
Substitution2: "Single Substitution lookup 22 subtable" uni0E4B.alt2
EndChar

StartChar: uni0E4C
Encoding: 3660 3660 283
Width: 0
VWidth: 1473
Flags: W
HStem: 937 56<-288.091 -201.166>
VStem: -361 66<1001.09 1066.94> -194 66<1001.4 1062.12>
LayerCount: 2
Fore
SplineSet
-245 937 m 256
 -310 937 -358 980 -361 1036 c 0
 -361 1104 -305 1148 -245 1155 c 0
 -124 1167 -47 1197 -27 1227 c 0
 -20 1241 -13 1247 22 1232 c 0
 45 1220 56 1208 44 1189 c 0
 -6 1127 -106 1103 -168 1103 c 1
 -133 1090 -128 1051 -128 1034 c 0
 -128 979 -180 937 -245 937 c 256
-245 993 m 256
 -218 993 -194 1011 -194 1034 c 0
 -194 1059 -217 1075 -245 1075 c 256
 -272 1075 -295 1058 -295 1034 c 0
 -295 1012 -271 993 -245 993 c 256
EndSplineSet
Substitution2: "Single Substitution lookup 22 subtable" uni0E4C.alt2
Substitution2: "Single Substitution lookup 22 subtable" uni0E4C.alt2
EndChar

StartChar: uni0E4D
Encoding: 3661 3661 284
Width: 0
VWidth: 1473
Flags: W
HStem: 648 83<-199.199 -75.2229> 840 82<-197.342 -73.9681>
VStem: -293 82<744.956 825.758> -63 82<744.602 826.319>
LayerCount: 2
Fore
SplineSet
-137 922 m 0
 -45 922 19 859 19 785 c 0
 19 702 -49 648 -137 648 c 0
 -227 648 -293 704 -293 785 c 0
 -293 860 -221 922 -137 922 c 0
-137 731 m 256
 -106 731 -63 742 -63 785 c 0
 -63 807 -73 840 -137 840 c 0
 -198 840 -211 805 -211 785 c 0
 -211 742 -168 731 -137 731 c 256
EndSplineSet
Substitution2: "Single Substitution lookup 22 subtable" uni0E4D.alt1
Substitution2: "Single Substitution lookup 22 subtable" uni0E4D.alt1
EndChar

StartChar: uni0E4E
Encoding: 3662 3662 285
Width: 0
VWidth: 1473
Flags: W
HStem: 664 61<-289.475 -215.354> 988 46<-189.706 -100.081 -115.422 -84.7394>
VStem: -387 307<756 1001 807.578 838.261> -387 92<732.333 807.365> -292 80<886.121 964.63>
LayerCount: 2
Back
SplineSet
-110 1027 m 0
 -101.333 1025 -94.3333 1021.5 -89 1016.5 c 128
 -83.6667 1011.5 -80.8333 1006.83 -80.5 1002.5 c 128
 -80.1667 998.167 -81.8333 994.5 -85.5 991.5 c 128
 -89.1667 988.5 -96 987 -106 987 c 1
 -132.667 991 -157.5 986.167 -180.5 972.5 c 128
 -203.5 958.833 -214 940.667 -212 918 c 128
 -210 895.333 -195.333 882.667 -168 880 c 0
 -158 878 -152 873.167 -150 865.5 c 128
 -148 857.833 -147.667 852.667 -149 850 c 256
 -149.667 847.333 -151.333 843.667 -154 839 c 128
 -156.667 834.333 -163.667 831.667 -175 831 c 0
 -253 829.667 -293 807.667 -295 765 c 1
 -289.667 738.333 -271.833 725 -241.5 725 c 128
 -211.167 725 -191.667 728.333 -183 735 c 1
 -194 681 l 1
 -237.333 662.333 -278.667 659 -318 671 c 128
 -357.333 683 -380.333 711.333 -387 756 c 1
 -383.667 827.333 -342 864 -262 866 c 1
 -286.667 892 -296.333 919.833 -291 949.5 c 128
 -285.667 979.167 -266.833 1002.33 -234.5 1019 c 128
 -202.167 1035.67 -160.667 1038.33 -110 1027 c 0
EndSplineSet
Fore
SplineSet
-167 1034 m 0xc8
 -100 1034 -80 1014 -80 1001 c 0xe0
 -80 990 -92 987 -106 987 c 0
 -112 987 -118 988 -124 988 c 0
 -166 988 -212 963 -212 923 c 0
 -212 869 -157 891 -150 866 c 0
 -146 851 -148 833 -175 831 c 0
 -253 830 -295 807 -295 765 c 0xd8
 -295 738 -267 725 -242 725 c 0
 -211 725 -192 728 -183 735 c 1
 -194 681 l 1
 -220 670 -246 664 -271 664 c 0
 -297 664 -387 676 -387 756 c 0xe0
 -387 825 -342 864 -262 866 c 1
 -282 887 -292 910 -292 934 c 0
 -292 991 -238 1034 -167 1034 c 0xc8
EndSplineSet
Substitution2: "Single Substitution lookup 22 subtable" uni0E4E.alt1
Substitution2: "Single Substitution lookup 22 subtable" uni0E4E.alt1
EndChar

StartChar: uni0E4F
Encoding: 3663 3663 286
Width: 664
VWidth: 1473
Flags: W
HStem: -4 88<251.807 411.516> 127 76<295.989 366.245> 284 77<294.22 367.014> 404 90<250.736 411.265>
VStem: 82 90<163.004 326.715> 215 75<208.283 278.537> 371 77<208.032 279.581> 491 89<165.087 324.666>
LayerCount: 2
Fore
SplineSet
331 203 m 256
 355 203 371 220 371 245 c 0
 371 266 355 284 331 284 c 256
 307 284 290 266 290 245 c 0
 290 220 309 203 331 203 c 256
331 361 m 256
 399 361 448 308 448 245 c 256
 448 178 396 127 331 127 c 256
 268 127 215 177 215 245 c 256
 215 311 268 361 331 361 c 256
331 84 m 0
 425 84 491 158 491 245 c 0
 491 334 423 404 331 404 c 0
 245 404 172 338 172 245 c 256
 172 151 245 84 331 84 c 0
331 -4 m 256
 193 -4 82 103 82 245 c 256
 82 388 196 494 331 494 c 0
 467 494 580 382 580 245 c 0
 580 99 466 -4 331 -4 c 256
EndSplineSet
EndChar

StartChar: uni0E50
Encoding: 3664 3664 287
Width: 702
VWidth: 1473
Flags: W
HStem: -16 85<245.331 457.685> 373 85<244.062 455.489>
VStem: 65 104<141.903 303.277> 533 102<138.935 302.597>
LayerCount: 2
Fore
SplineSet
349 458 m 256
 585 458 635 316 635 221 c 0
 635 126 587 -16 351 -16 c 256
 113 -16 65 126 65 221 c 0
 65 316 115 458 349 458 c 256
352 69 m 256
 507 69 533 165 533 221 c 256
 533 282 502 373 351 373 c 256
 196 373 169 278 169 221 c 256
 169 160 200 69 352 69 c 256
EndSplineSet
EndChar

StartChar: uni0E51
Encoding: 3665 3665 288
Width: 771
VWidth: 1473
Flags: W
HStem: -8 93<269.509 409.236> 175 70<311.876 414.603> 370 90<268.763 492.152>
VStem: 75 87<127.607 275.578> 231 72<103.932 164.127> 423 73<95.6542 164.683> 611 93<75.1871 264.498>
LayerCount: 2
Fore
SplineSet
364 245 m 0
 413 245 496 215 496 131 c 0
 496 45 404 -8 304 -8 c 0
 224 -8 75 35 75 207 c 0
 75 308 156 460 383 460 c 0
 574 460 704 349 704 181 c 0
 704 -41 519 -132 488 -132 c 0
 475 -132 438 -120 438 -83 c 0
 438 -28 510 -52 574 44 c 0
 598 83 611 128 611 181 c 0
 611 294 512 370 383 370 c 0
 248 370 162 300 162 194 c 0
 162 126 228 65 280 65 c 1
 247 71 231 116 231 131 c 0
 231 207 296 245 364 245 c 0
362 85 m 0
 395 85 423 101 423 130 c 256
 423 157 399 175 362 175 c 0
 332 175 303 156 303 130 c 0
 303 92 344 85 362 85 c 0
EndSplineSet
EndChar

StartChar: uni0E52
Encoding: 3666 3666 289
Width: 907
VWidth: 1473
Flags: W
HStem: 0 81<177 722.309> 115 66<323.228 415.206> 271 65<327.977 414.771> 374 89<632.611 731.695> 382 85<363.438 485.109>
VStem: 84 93<81 113.723 113.723 259.958> 223 80<190.386 329.16> 423 66<191.471 261.501> 529 87<241.113 280 280 341.054> 761 79<130.899 342.574>
LayerCount: 2
Fore
SplineSet
373 336 m 0xefc0
 427 336 489 299 489 227 c 256
 489 160 433 115 364 115 c 0
 271 115 223 181 223 269 c 0
 223 398 308 467 423 467 c 0xefc0
 486 467 542 447 569 402 c 1
 583 429 611 463 675 463 c 0
 741 463 840 425 840 244 c 0
 840 96 778 -0 685 0 c 2
 127 0 l 2
 101 0 84 20 84 43 c 2
 84 111 l 2
 84 569 -15 622 -15 662 c 0
 -15 685 6 707 33 707 c 0
 40 707 58 706 71 687 c 0
 183 502 178 166 178 147 c 0
 178 119 177 97 177 81 c 1
 685 81 l 2
 745 81 761 198 761 244 c 0
 761 308 745 374 681 374 c 0xf7c0
 645 374 616 359 616 281 c 0
 616 246 598 237 573 237 c 256
 552 237 531 244 529 280 c 0
 526 360 455 382 413 382 c 0
 385 382 326 371 309 318 c 1
 319 332 367 336 373 336 c 0xefc0
362 181 m 0
 396 181 423 199 423 225 c 256
 423 253 399 271 362 271 c 0
 332 271 303 252 303 225 c 0
 303 188 342 181 362 181 c 0
EndSplineSet
EndChar

StartChar: uni0E53
Encoding: 3667 3667 290
Width: 860
VWidth: 1473
Flags: W
HStem: -6 72<201.993 292.993> 156 74<202.525 293.282> 368 93<534.049 656.889> 377 86<219.631 360.564>
VStem: 74 86<198.116 314.496> 301 73<76.8957 146.501> 429 108<51.4908 110.349 80.9198 283.063> 696 92<92.4844 325.315>
LayerCount: 2
Fore
SplineSet
242 230 m 0xdf
 307 230 374 182 374 112 c 0
 374 41 314 -6 242 -6 c 0
 141 -6 74 85 74 224 c 0
 74 361 157 463 287 463 c 0xdf
 349 463 416 442 452 392 c 1
 483 428 533 461 601 461 c 0
 655 461 788 428 788 231 c 0
 788 107 752 4 724 -6 c 0
 718 -9 711 -10 704 -10 c 0
 680 -10 646 1 659 38 c 2
 675 93 l 2
 683 120 696 177 696 233 c 0
 696 299 675 368 591 368 c 0xef
 551 364 521 346 510 309 c 1
 525 276 537 223 537 169 c 0
 537 56 516 39 484 39 c 0
 458 39 429 48 429 83 c 0
 429 93 435 120 435 160 c 0
 435 290 379 377 294 377 c 0
 204 377 160 305 160 230 c 0
 160 217 161 205 164 196 c 1
 179 220 218 230 242 230 c 0xdf
240 66 m 0
 274 66 301 84 301 110 c 256
 301 138 277 156 240 156 c 0
 210 156 181 137 181 110 c 0
 181 73 220 66 240 66 c 0
EndSplineSet
EndChar

StartChar: uni0E54
Encoding: 3668 3668 291
Width: 826
VWidth: 1473
Flags: W
HStem: 0 82<232.415 491 616.578 778.963> 296 68<418.35 521.451>
VStem: 71 94<145.816 290.944> 336 74<215.102 284.941> 529 72<216.077 285.989>
LayerCount: 2
Fore
SplineSet
468 364 m 0
 545 364 601 313 601 252 c 0
 601 221 582 156 504 156 c 1
 539 121 677 90 745 87 c 0
 771 84 784 68 784 41 c 0
 784 12 760 0 744 0 c 2
 298 0 l 2
 193 0 71 64 71 219 c 0
 71 264 73 413 302 486 c 0
 452 534 734 610 769 664 c 256
 777 677 792 685 809 685 c 0
 834 685 851 669 851 642 c 0
 851 603 801 539 502 449 c 0
 320 395 242 371 197 307 c 0
 175 277 165 245 165 212 c 0
 165 128 244 82 311 82 c 2
 491 82 l 1
 416 99 336 176 336 246 c 0
 336 326 413 364 468 364 c 0
468 206 m 0
 502 206 529 224 529 250 c 256
 529 278 505 296 468 296 c 0
 438 296 410 278 410 250 c 0
 410 211 452 206 468 206 c 0
EndSplineSet
EndChar

StartChar: uni0E55
Encoding: 3669 3669 292
Width: 826
VWidth: 1473
Flags: W
HStem: 0 82<232.415 491 616.578 778.963> 296 68<418.35 521.451> 601 74<348.761 423.538>
VStem: 71 94<145.816 290.944> 271 72<528.053 594.833> 336 74<215.102 284.941> 429 69<545.665 594.742> 529 72<216.077 285.989>
LayerCount: 2
Fore
SplineSet
386 516 m 256xfb
 411 516 429 536 429 558 c 256
 429 584 409 601 386 601 c 256
 360 601 343 581 343 558 c 256
 343 536 361 516 386 516 c 256xfb
468 364 m 0
 545 364 601 313 601 252 c 0
 601 221 582 156 504 156 c 1
 539 121 677 90 745 87 c 0
 771 84 784 68 784 41 c 0
 784 12 760 0 744 0 c 2
 298 0 l 2
 193 0 71 64 71 219 c 0
 71 264 73 413 302 486 c 1
 303 486 l 1
 281 503 271 537 271 560 c 0xfb
 271 623 323 675 386 675 c 0
 439 675 498 632 498 568 c 0
 498 561 497 553 495 545 c 1
 564 567 l 2
 813 647 751 672 796 684 c 0
 800 685 805 685 809 685 c 0
 834 685 851 669 851 642 c 0
 851 603 801 539 502 449 c 0
 320 395 242 371 197 307 c 0
 175 277 165 245 165 212 c 0
 165 128 244 82 311 82 c 2
 491 82 l 1
 416 99 336 176 336 246 c 0xf7
 336 326 413 364 468 364 c 0
468 206 m 0
 502 206 529 224 529 250 c 256
 529 278 505 296 468 296 c 0
 438 296 410 278 410 250 c 0xf7
 410 211 452 206 468 206 c 0
EndSplineSet
EndChar

StartChar: uni0E56
Encoding: 3670 3670 293
Width: 717
VWidth: 1473
Flags: W
HStem: -17 74<336 452.496> 174 72<199.475 301.57> 380 88<243.676 466.469>
VStem: 119 71<94.21 162.746> 309 76<100.654 164.565> 553 95<148.02 299.313>
LayerCount: 2
Fore
SplineSet
252 246 m 256
 320 246 385 196 385 128 c 0
 385 118 377 67 336 57 c 1
 346 57 l 2
 469 57 553 131 553 223 c 0
 553 270 523 380 367 380 c 0
 295 380 217 355 168 321 c 0
 160 315 152 312 145 312 c 0
 121 312 94 353 68 394 c 2
 22 473 l 2
 -7 523 -39 584 -62 633 c 0
 -64 639 -66 645 -66 651 c 0
 -66 670 -52 697 -12 697 c 0
 26 697 20 666 100 526 c 2
 136 462 l 2
 146 443 156 428 164 417 c 1
 187 429 l 2
 246 454 315 468 369 468 c 0
 527 468 648 369 648 221 c 0
 648 126 593 -17 338 -17 c 0
 249 -17 119 13 119 132 c 0
 119 200 185 246 252 246 c 256
249 84 m 0
 283 84 309 102 309 128 c 256
 309 156 285 174 249 174 c 0
 218 174 190 155 190 128 c 0
 190 90 230 84 249 84 c 0
EndSplineSet
EndChar

StartChar: uni0E57
Encoding: 3671 3671 294
Width: 906
VWidth: 1473
Flags: W
HStem: -12 71<223.535 299.05> 149 75<210.993 312.37> 358 93<215.378 341.574 518.022 625.872>
VStem: 66 86<179.392 287.788> 321 72<68.4343 139.046> 376 100<220.959 291.522> 666 77<168.062 315.037>
LayerCount: 2
Fore
SplineSet
261 224 m 0xf6
 324 224 393 179 393 106 c 0xfa
 393 43 343 -12 274 -12 c 0
 125 -12 66 105 66 205 c 0
 66 322 138 451 275 451 c 0
 346 451 390 430 426 390 c 1
 440 410 479 455 559 455 c 0
 673 455 743 386 743 282 c 0
 743 264 741 244 737 222 c 1
 800 335 771 508 914 662 c 0
 931 679 953 702 982 702 c 0
 1006 702 1030 673 1030 653 c 0
 1030 617 950 611 903 460 c 0
 865 335 851 160 723 6 c 0
 716 -4 701 -18 679 -18 c 0
 655 -18 625 -3 625 19 c 0
 625 42 666 98 666 225 c 0
 666 283 645 362 560 362 c 0
 541 362 521 361 498 332 c 0
 483 314 476 289 476 258 c 0
 476 241 466 215 426 215 c 256
 386 215 377 241 376 258 c 0
 373 341 313 357 281 358 c 0
 200 358 152 276 152 207 c 0
 152 197 153 187 155 177 c 1
 178 202 214 224 261 224 c 0xf6
261 59 m 0
 283 59 321 68 321 103 c 256
 321 131 297 149 261 149 c 0
 230 149 202 130 202 103 c 0
 202 65 242 59 261 59 c 0
EndSplineSet
EndChar

